<mxfile host="app.diagrams.net" agent="Mozilla/5.0 (Windows NT 10.0; Win64; x64; rv:128.0) Gecko/20100101 Firefox/128.0" version="26.1.0">
  <diagram name="Page-1" id="bldviGOM2PhAeHIemhQr">
    <mxGraphModel dx="1588" dy="828" grid="1" gridSize="10" guides="1" tooltips="1" connect="1" arrows="1" fold="1" page="1" pageScale="1" pageWidth="850" pageHeight="1100" math="0" shadow="0">
      <root>
        <mxCell id="0" />
        <mxCell id="1" parent="0" />
        <mxCell id="jSoYXtQaay7fsIpfsQkB-22" value="" style="endArrow=classic;html=1;rounded=0;entryX=0;entryY=0.5;entryDx=0;entryDy=0;fontSize=14;" parent="1" target="x5C6FpIDevCYcziMVME_-2" edge="1">
          <mxGeometry relative="1" as="geometry">
            <mxPoint x="330" y="529.09" as="sourcePoint" />
            <mxPoint x="430" y="529.09" as="targetPoint" />
          </mxGeometry>
        </mxCell>
        <mxCell id="x5C6FpIDevCYcziMVME_-2" value="WS conformité" style="rounded=1;whiteSpace=wrap;html=1;fillColor=#f8cecc;fontFamily=Work Sans;strokeColor=#b85450;fontSource=https%3A%2F%2Ffonts.googleapis.com%2Fcss%3Ffamily%3DWork%2BSans;fontSize=14;" parent="1" vertex="1">
          <mxGeometry x="470" y="500" width="120" height="60" as="geometry" />
        </mxCell>
        <mxCell id="x5C6FpIDevCYcziMVME_-23" value="&lt;div style=&quot;font-size: 14px;&quot;&gt;Déclaration&amp;nbsp;&lt;/div&gt;" style="rounded=1;whiteSpace=wrap;html=1;fillColor=#f8cecc;strokeColor=#b85450;fontFamily=Work Sans;fontSource=https%3A%2F%2Ffonts.googleapis.com%2Fcss%3Ffamily%3DWork%2BSans;fontSize=14;" parent="1" vertex="1">
          <mxGeometry x="30" y="500" width="120" height="60" as="geometry" />
        </mxCell>
        <mxCell id="x5C6FpIDevCYcziMVME_-27" value="" style="sketch=0;pointerEvents=1;shadow=0;dashed=0;html=1;strokeColor=#666666;fillColor=#f5f5f5;labelPosition=center;verticalLabelPosition=bottom;verticalAlign=top;outlineConnect=0;align=center;shape=mxgraph.office.users.approver;fontColor=#333333;fontSize=14;" parent="1" vertex="1">
          <mxGeometry x="70" y="440" width="59" height="55" as="geometry" />
        </mxCell>
        <mxCell id="S_g0ONeS2pqSJaHyuwxj-12" value="&lt;font style=&quot;font-size: 14px;&quot; face=&quot;Work sans&quot;&gt;&lt;i style=&quot;font-size: 14px;&quot;&gt;&lt;b style=&quot;font-size: 14px;&quot;&gt;Déclarant&lt;/b&gt;&lt;/i&gt;&lt;/font&gt;" style="text;html=1;align=center;verticalAlign=middle;resizable=0;points=[];autosize=1;strokeColor=none;fillColor=none;fontSize=14;" parent="1" vertex="1">
          <mxGeometry x="45" y="410" width="90" height="30" as="geometry" />
        </mxCell>
        <mxCell id="S_g0ONeS2pqSJaHyuwxj-15" value="Guichet unique" style="rounded=1;whiteSpace=wrap;html=1;fillColor=#a0522d;fontFamily=Work Sans;strokeColor=#6D1F00;fontSource=https%3A%2F%2Ffonts.googleapis.com%2Fcss%3Ffamily%3DWork%2BSans;fontColor=#ffffff;fontSize=14;" parent="1" vertex="1">
          <mxGeometry x="210" y="500" width="120" height="60" as="geometry" />
        </mxCell>
        <mxCell id="S_g0ONeS2pqSJaHyuwxj-17" value="" style="shape=image;verticalLabelPosition=bottom;labelBackgroundColor=default;verticalAlign=top;aspect=fixed;imageAspect=0;image=data:image/png,iVBORw0KGgoAAAANSUhEUgAAAUAAAACvCAYAAACM9QdJAAAABGdBTUEAALGPC/xhBQAAACBjSFJNAAB6JgAAgIQAAPoAAACA6AAAdTAAAOpgAAA6mAAAF3CculE8AAAABmJLR0QA/wD/AP+gvaeTAAAxHElEQVR42u2de3ybZfn/P9f9JG3X7giTDYQxxrYmTfPkySLi5FSBef4iChNRlHFGv3IUBZSfggKCB0BQBEXk+xURGAhfERQFrIrg0Cynpmm3gsMNB+y8bj0kee7r90fSNknTc7p26fV+ra/XkjzP/Tz36XNf130kt2kxxk5HIhqugSBMAdymZQNQYwuFuxLRyDRJzYlFlSgcW5JSEEYCSZ0RARSEKQpLnREBFIQpawBKnSknAdSSlIIgdWZ/FMASDIKwtGaCMCIPWCzAySKAyRLY85KZgjCSGiN9gGUlgGLOC8JILEDpA5w0AtgtLrAg7GMLUPoAy0cAJTMFYcSI0TAJcADYAqA6Y8jBAGHmiO0/RpckpSCMCKkzk8MSFwRhJHi93jnFvtdap+Lx+B5JIUEQBEEQBEEQBEEQBEEQBEEQBGFCkVHgElE4MtjZ2dnR1tbWLSkjCJNYAN1e39VjDYQVUi2RyG0jfrbPemTMMWDuSkQjnxuvBFoUCMyalk57WWMJEx0J0GIAh4D5QCbMJeBAAMYgQexFZq7lW2BsBfFGAr3KjDZSvP6gOXNaGxsb0+P1/nU+/8UafCwBFSUtOIwUCANO+WAgBdBAv6egdf5vRJoZu/qKFHb2hUU7lNJdKeBf6yKR/6AkG3iMHrdp3QjC0mFYF3sxyFJTB+sro9HoXpGhicMBoltKUBn2Arht5OKFlSWoiiWdd+W2rCWw8X4QjgEQQMpeokHUZytzb+kepvlck/1bmLmBMiEQwEx4a/vOvW7Tv5agXwHTGgfpP0ej0bdLFyP2E+MzpS44jOHI0CAXEA36FReEo5lgZMSnA8BaAq/RhD8Y6XRjPB5P7uN6cyIYy8cQewCAbdvXZhtIYcIEUIDbXPYeIv4MM38EGkfs446BGoCPY9BxICAFZbtN628Eelzp1BNNTU0bxxK41ghSeXV0VAM4lkHHEuNL2nC21/msx7Wmn7TEQi/vTxGx7RrpghIBnBiWer2LlHKcRcxnAXoJ86R5NQPA8Qw+3laOO9ym7wUmfLclEvnDaFw/DeMvRnkvO53BjFVEvMptWq+AcUMiFn5GqrYwHNQUiy+5fL73u73WswYZbcR8A4Alk/l9ATqJmH7v8lkhl+k/EyMcuFoXC7aCsXmK5O+7QXjaZfqfd/l8S6V6CyKAADweT4Xb9H/ObVphYnoWhPdjPxsBJ4aPwA+5vdYLbssaiWgzgx+bUq0c+ERiirpN6/LJnM+6xhYXWARwrPBgbrxymdbZ2qhoA/h/AJhlULsboDnq8vmvGW7lVsS/nIJluxLA7W6v9bhpmnJmtVCuAkhFp3e4660VLp+1loAHAD6szGycKmL+ttv0PbR48eLKoa5ujkbXALR2SpZwwsdTUM+7XO8+UKq7UI4usGpoaOi1Aheb5qFu03oGCn8ghq/Ma/ennNXTnx1oe6YCR/hbU7icH00VyecWBQKzJpULrLW4wCKAY6e9vb0CANw+3xlOqCiAD02hPDwhTcZvPB7PoBOdE7Hw/wH89ylc1q3KlP2bQCDglGovlJUAdmj9DrfX+gWYHgYwZwrm47HacP5wKBvQ0Ma5AE/lnYiP70jZ35ksL1NtyyCICGApsPklEM6a4nl5gctrXTjYBU1NaxMAfWmKp9NlHtM8Uaq+UD4CCBwiWQkQ4RaPx3PAoK5wNHw3gb8/lZNJQ90znMEjQQRQ2L+Yow3n14e6qDka+TIBN2CCNxWYQJY4ptVcIMVFEAEsP77gsqyFQ1zDzdHw9SA+E5mdaqaeGQj66sKFDVUT+Q4yCiwCKJQeJ5iGtT1YIhJ5RNkpF4PvBNA+xRTw4OoZO0+T4jK1kd1girMXhAgYYWaEFWiTzfSGg423lerqbm8/sHPDhsa80dTFRx89s3JP6iBtYC5D1yomk8HLQPwegPappUHMnwHwzeFcG4/HtwO4rLa29jqjoup0KLWMwfOYeQaBHGA4QJhRcFsl9Zwl3WNSZrb8KpyKMxOD75U4oTDhQgATtkqGeZpYgBPdDrpNqxT9QHsT0fD0UTxbT5a6AODvTPR7Jn5+umG8EgwGU6UI+NDly6fN3Nv1Xib+ODNWEnDQPjHtiY+ORyKvTLYCVzhpu7uiwkAyOTMj3M7pDoeutJnnkcYSEK0AcAIKxLaU+W6zUbcuFmwZyU1u03oJGHo/wCHzyHYeHI//402RIbEAJ4o4gPsMnX58rPvuDcSml1/uBPA8gOcbGhou37J916k281eIcNR4RsyGOhHApBPAWCy2o8jXWwe4/HbTNGvSZJzLzFcAOKLUBoCh9CoA14gUiABOHbMX9JRN+vbWSORP+/K52a3vHwPwmMf0n26Dbyfg0PFxg8dXYPcV2S3j71q4sOGn1TN33MigK1DKvmvGiokSQF0lgyATzdQaBCH8UREf3RwNnbKvxa+f6RkNPZaeVukh0FPjE1VdV05Zt2FDY1dzNHKVAp0BoIRnqLA1rLXUggjgfgtjMzE+mYiE3z+Z+sXa1qzZ3RwNncqMn5c+ynRwWfZZREOPEfE5pawDaRgniBSIAJar+D1aaaCuORZePUnfUM8/cPaFBJTaIp116PLl08oxS5sjkQeZSjh6S2iYkIyXeYAigONIkpkvScTCZ4TD4Z2T+UUbGxvTrHARgJKeIzxrd/IdZZu73RWXASjViYAekQIRwHJiDxP/V0ss8sP95YUT4fB6APeXMkzbka4q14Lb0vLKNgD3lSi4I0UKRADLhR1K4cTsKWr7V2bYdG+JfayyXvBvaKNUDdyCofZTHA9YXGARwBLToYhPiYfD/9gfXz4eD0UA7CpdiM6Kci68TU3BV5GZyzl2LXU6Dxc5EAHcn2EFOjMeiby4n8djfckSxNBVU6AMl+QMYLJp8b5+cc0sFqAIYIkqO9NP4tHQb8ogKiXbncVR5i4wABCjRNa+ni9yIAK4v5JKk31jmVTp3aULy1FR7gXYJh0tifwpyGRoEcD91fzDH9qi0U3lYcliZ+nCKn8LsLW2tg3AmDeuIKh9LoBVMggiAliSiq7oxbLJEdKlmwuouPy3fV+92gZ4WwlKkViAIoD7rdm0uWz0j8guYXAVU6QYj7nflFhcYBHA/dcFTpVNjnDpFvozU9XUKMa8Y+zJvu8FkLlSXGARwLFjECXLxgJkLp0FyJgSJ58RqHPsYWCmyIEI4H6JDbu7XDJEE5Vwl2yeEi4wl+Cwd81TpbtAKD8LEI6ycYEVc+lcYKWmyNm3NGYBJIJznzd2FTIKLAJYEtJl4wJrpWQQZOSpVor8d4ociADupwaA9AEWDUtrOfVv+EhaiQDun9i6pFbThMIlnAZDYtVMagFkWQssAlgaA5C4XDKklBagJhKrZvgkJQlEAIUJtwBZLMCRx7QUQt8tpU8EcP+MBNm6bKoyl3AlCE2Zfq1SHJw+AgEU11UEUBgnE7B0K0GmjAXIKMHhTyMZSCtNl4vsCC0CWKKaXj59gCCULC5aTxEBJMwYu4bqvftct2UQRASwFNi20pKVRS3AmikS1QUlSKsRbKhQGuEqp8E7EUBh8nmGxGW/vjUQCDgBjH03Z6KtYgGKAO6nHnC6jFrS0lkFCjSj3AtwezJ5GACjBKm+VeRABFCYcDEvXR8gA2UvgAYMVynC0SMSwNI0UhVcIRagCGAJIqGkD3AADgdAZV6CTyhNOPz6SDoXpGiJAE4eUtKZPACzlnq9R5R1DBkNpQjGYTvapLiIAAoTji6pmDuUaijXlKqvr58HYFkpmtC5c2eMwAIs0TxAGQQRASwFtkqLCzxgJaOryrWhSyvHpSjFJgaE1xsbG0cwAV2ESwRQGB/7T5fcnXe7vNb55ZZOpmnWEHBxaVoJGuHZwqXJI+2UlSAigCWgzCaUcunTB993W9aSciq4KajvAjigNCmuXxEpEAEUASxfpkPjuXIRQY/pPx3A50vX4qi/j9RklCIlAiiMi5hjvMR8ATQaay3rmP05fVw+3wc0+OclDDJt6GRwIlxgGQQRARTGqXINwCFK4y9u07p9USAwa39KlcWLF1fWeX03ENNTAKaXMOiX4vH4Hil3UxPZMXhqNnqXV6bs89ymdb/W6v7WprUxAJOyG8GyrNndGmcDuIIzE7tLzW+lSIgACpPGBdb7yjOaAeAypfRlbtP3JqD+DNYhRUYENjXH6xa9gdWr9/lZKw0NDY43t+32KeJjGPyBbo2TMY6n29lsPDVReS0usAigMDlkdz7AZ4DoDA0NGIC7dX0apn8zwK8T8G8m2gjNG6H4P9CqXTN2QtntMIx2dHS0t7a2tg/H+vR4jjrIVl3vIDbmk8HzWOMdUDQfGgtBcL21fWctESr3kTkaWhcLtoxCuqjcVxiKAAoTgwZPkrrlAPgwAIdxxlzJ1HkmgBiKst60zUDlNLhNCwB2DBBWTY8Vp5ECwQAI4B4dYUyQntCPJjKBmZ2ioiKAQhkxZz961x3VTvWrie3uSMn0rQlGRoGFqQnzrcFgsEMsQBFAYVJ5wDKpex/waqpz7x2SDIII4GSDIAI4vtjQ+HxbW9uEnwNcIaPAIoCCsI+5NtEU/qMkgyACOCkNQHGBxw3Gg4lo+LuSEIIIoLjAU038nkh17plU24KxU1xgEUBhPNkrSQAA/It5B87+5GTo9xNEAIV9ZUwSXQtg+5S2+4DvJqKRVSPb8XkfvZyWDVFFAIXxQ6MNTB8HMBUtn61MfEoiGv4KgEl5ZAIpJd0dIoBCXqUo8aFIiVjoLwr0SQCdUycN6Smb2GqJRCb1Ti9iAYoACv2sttKPAsejod9ohRVgbC7z1Atq4hObo6FT1kUib0x6/1zmAYoACvuG1nD4b5yq8AL0CFBWI81JEFYrqA8louF3t0Yif5LcFoaLbIYwhWhpeWUbgE+5TfM7TOpKYrwPwCH7WzwYeFsBzzHoWU46n87GSxBEAPd7D3gfnLiTiEbXAjgLANx+/+HKJjeTfTiYDteEBcQ8n4nmEmMuwAcCVDVBSrcbhI1gbCBwDAohmznSGo2uxyQd2BAXWARQ2I9IhEKvA3h9sGtM06zpNoxZirmGbTXToPQsG6hRrKo04ETOGR1EZID1zN5KTqSIaFZBzW8Hczp7QxczOhSwUyveRWzsVgbv7lTqjdeCwV2SQ4IIoDChRKPRvZBJ1UKZCuBzJQina5T3leLZYKXK51QvIoashpvkriv+QYQxlzktjcrEVzdJgsmFy/SfSeCHSpK5TB9ujoV+J6kqCMWRaTCCIIgACoIgiAAKEwpJB6AgiAAKgiCIAE45E1CLBSgIIoCCIAgigIIgCCKAU8IDlkEQQRABFARBEAEUBEEQAZwiaDkXWBBEAAVBEEQABUEQRACnBETiAgvCvsKBW372vCTDOHHNeSftb69c5/OdxUxzE9HwHT3fubxeL5Tj49Dc1hILF92qy2NZlmb6FEE/0hyJhHJ/q/X7DzFsXsWgAMDTAOxkopaWSOib2XuP0kynDfVurDna8/w607oZxG3Nkcj9AODy+b9OQPXgAXB7Ihq+CQA85rIPauhjE9HwdQOnhf9iaH1wcyzyjUw6WKtIkWtIqyKNX8Xjochg17hM61oimmVr9cC6WLBlgGvOBvOMlljkhwOF09DQ4Hhr245LiMiY5jTuDgaDHbm/u03rMhAdPGTaEt/TEg5vcJvL3gPiU1U6eWM8Hu+352EgEKjuTOvzwPweZswFIQmmt7XSDw50IFWdz3cWQ9Uz9Astkcgfil1T6/O9T0F9IBEJfRWDHHfgMv2ngfnACtJPRqPRtwe6zm1alxFQ0xwN3zy4AAInilKNE8yEEVp09j44E2Twd8apAJYAuKPPTTBczHwDCOzy+v/VEgu93O82Gx4QXw1CE4BeAazz+j/ENj/KgBPgNQzsJGApMb8fK1fehNWrbZv5AMVYycBsZPaorAZQma0IPdvi7yZFqb7XxFeY8UcA9wOAYj6bgTk5rzQrcxl253z3NoCbMvfr4wG+AsB1A2cffwYgE8A3MulAXmY+HcCM7CU979sNoAOAJmCXVvTMMFL6C2A+1KD0uwCcXNw9o9OYcDCAAQXwzR07TiGi2xhAZzq9vSc9cvgEmL05sZqWPeOlE5mNjNMEtDM4e59eBsbVhmHcBuRv+rrUG3B1pOwnAdQCSACIAagG8UrFdK7btO5L1C65GKtX2/3LFJ9GoFWLjz56aduaNbv7xVXjGBBfjZUrv4bVq4vG1eMJLNCwHwHBSEMdAuD6gQUd54AxF8CQAigIw5ZHIr4DwPLCVpoVKXC+1nu93jlp4l8B2KgNOrk1FPpP3gXRMACgJRJ5FsCRPV/X19cfZivHv4n4gh4Lbyiao+Ej86wO03oV4GRzNOIuVeSbY6EvAfhSjoV4CTPfqezUIfF4fPsoOz1OcnutUxOx8JOjuht0cbbBWcqg8woFMBENn5BnGfn8t4D5kkQ0XDOS5ywNBOYaKbsRwEwQfyoRiTzSJ0yeA7Ry/hiE8+ta1m1tBq4dIJh5FZ1dXwdwVZGCZQzV8GuHvgCMDgAJDZyHlSu/1U9spQ9QGEd+BuDdLtP6bBH31OhXYMlxXMYSo1v6iV8Z4XQ6R3tC3XYAQSJ8f+HChhGfvOfy+ZaCcTIz7gT4YTDe6/H768alryxtfxfAPAZ9Nlf8ACAej29PxMJnAvw8E13lsSxrgPbzYQZdutQb6NeNoJgH1aJAIOAE6/OZ6SEivouAQ12trR8ea7xEACcbk3g3GAX9MEB/Jca3a2trZ+T9pooVYHtPVh0PLucs21NZOSoBZCDNGpcycET1zJ1Xjjg/tLoIwO6aCuNRpeheANCazy91/Dwez3RmfBLg51uioccHMtCY9RUADK25aFyU7bgawB5F6dv7pYVSg2pRZzr9cYDmK6Xv3V1d/TiAHQR1oQigsM+w2bAB+3IQ5qmq6q/l95dR/7Jk2y8CeBVEN9T5fGdNwtamJN2t1Z2do3LDiGG3NIVfYsJDDFy71Od753DvPXT58mlMvArAQ8FgsCMeDv8DoLVgfHbx4sWVpUwlrZzHA6gmpp8Pdl1LLBYDEAdT0T7NXTMrthDRNwj0QZfP99H8tOjvQRT4yBcDeKU5EgltevnlTiL6JYAP1dfXHyYCKOwbC5BsnYhG14LpATBfXl8fOLJPSvoX4Hg8nrTZ+CiADcz0C7dpPVlrmkdMhrhwpg/TGOIyA4QhxW17Tc3oXGDK9KNq8NUA4GD6znBvnb6n8wwABxDxT3O+vg/AXGdNzaklbSYUH5ZxTtSaYVy+FoQZA/140JxZPwYoRky3eTyeij59owG1qL5+mZuBBgC9caU07gNgaDLGZPGKAE42m2QS7wajtbIzrpfjawCStrK/3/cbnMXuWRcLtnTunm0R8G0AH1FQcZfP/3WsXGlMcDqnswI4oBXIDAcwtABWbdky2j5AGwDWRSJvALiFgTM9Pt+xfSI98IQAInwewD9zpxx1O9VDADqQGQwpXb5DzQEAp1NvHcblOwAM2J/Z2NiYZsWXAliiDedlfWk9sAVoK30RgD3KTj3c17iGIgD+qYnOHUtZEgEUingbxUWYlNKZwvePN8F8E4CPueutFVlBcQ4U3oYNjV3N0fBXlcJRAGLEfIO7Zf3qiSx/TGQDoIaGBmMQkXEAnB4qrFmzZulRa0uWzt2zv0/AvzTTnb3pwsXFuc7n8wN4NxHfl/v9a8HgLoAfB+OksVraXTkDO8TYAgCdWs8Zxq01GOKc8JZwuBGgR8C4zuM5aj4AKC5uAR66fPk0AJ8F8HCReYk/J+BQ9/r1HxQBLBcmwWYIxMUnoiqle62hVOfeOwC8CoXbGxoaHAA5hwo3Hg6HE7VL3gvgf0D4uMv0nzFhAsgZYdu8efO0wV1gGvIA9GAwOLo+wBwB3LChsYuJrwLgd3mt87IX0ACW6YUAoJkW1Pl8F7m81oU9fwyaBkApMs4dS/o4u7p0zgM3Z17HWDaMW5eA0T7URYZOfRkEw1apmzMNUvFR4BkdXacDOABARW48XV7rwt4J3jZGbfGKAAqDWiZ5roiter9va2vrBuMqAJ63tu28CATnsEJevdqudhoXANhG4PdNVAQV0Q4AoKqqwUaoZ4CxbbTpNaQIF7jXiUjkCYCfB+HGRYHALHD/eboej2c6QJ/JCuhXmekeItzb+wecnhWtc8biGuZO7TE4HctoFJ862D1LA4G5AB8NhSH7CpuamjaC6FYinO2xrKMGdIGZe0Z6z86LJ+FeMF+XbSg+Wl9fP08EUCiRdVS8QhuGzq+wsfCTDHoBhBuYadijcbt27VLZfqLpE6bwbL+Rtbgbiv2eHV1cAHDTeIhfpt6yXcTtvoyAAyrT9ldBmN2/P8x5JoAZCvQxZvUuZvUuIl5ms31kzx8yq13e6Vq37kOjfbfdhsF5YgV6EYRPDTbPUCXTXweoisC/Gs4z2qurvgfg31rjB0RkFHH1PQCOBfM1PXEt/APoTABOWzk+N5p4ykqQSQahcD3FBLzDAH2A6bTqX9k5fTnICBFx/zlZK1caDVu2UGNjY14/mqN6+pUAaojo5YmKY43T+XxH0t5MhJvrfL5/5A4mmKZZk4TxAIENghqqMo96JQIz9UvP5kgk7vL6fkygK7PiGi3Im4sA/CUeDf1moHAX+/0/cNp8FWUGQ347Kgtwz568d9OKr1Uaf9Y2/2ap1/v+dbHYa7mv5fL5rybmSxj0QiISfmw4z9j08sudHtP/ZQ1eDeDwIulzAYAd7dOr79z08sudA/VAuE3rWgDnAfgeRjiIKAIoFKuaA/QBpvt93xKLxdym9RMAn+/Xgq9bZ77F9Ce3z/oDGOsAdCLj9p4E8N87ds3+6UTFMBgMdtSZ5hnM6rcMWuM2rcfACEPRASnmMwi8kJnvSsTCQ20WMmoLEJmBmCL9Y+nrteE8E8Dc3O9d3mUBQAcU6GODBdsWCm1xm/6nwXyKOxA4OBEMbh7pq1UWTO5uDYf/VufzXchM9xik4nU+62GA1rDWc0F0KpgDAELaqc4YSZrEo6HH3F6rEYQ8S/zQ5cunYW/n5wDcPYj49fQl/ASEH3p8vmPikciLOb/MdPv8t/Qv3X2baogACvmFg1QCOt81Y9BbAD8HwyjauW07ja87UnoRgw2w6q1syaqqVx1d3b+FxlIiHANgD0D/BnB5qmPvPRs2RLqLhldZmUbK/qcG3hik0D+viEID/8x/Y6ZBR3Cbo9G/ejwBLzv0l8H6ZE10EjG3E/ASmL6QiIV/N3gzwRuhEByl+/siEXYXFYV4fHud17qcCasArOu7iZeC6f54LPTUkC6+4ttIczXS6eUAft2XLvptYnpx4HTTGwkqsXv3AXYR6/R+l9f7D0XGNcxYAfDHQJRmxgYiXNdeM+22YmKlSUWJedZA04WUpsu1wd8DAKxezQBQ0969BIqf5WTl7UPFtbvCeLAyZZ9ja1qQ07e3hoEtWWEuTPs9ff+/9f5zpNqPE1ef+/OR3uL2+w/nNH+gFI93cPp3mf4bQRAEQRAEQRAEQRAEQRAEQZh6kCSBIAgTxWLTPNQJ1TtYSEQtzZHQZRjL9KIi1Pmse5mxCEAKwJbUtMpL2tas2S3TYARBmDCcpK4B956J8h9WOL/U4uexrKO0Ru5E/Qt6ziWRpXCCIEwIpmnWgJFZwsbYrRQ+kgiFXi/1c3J3qGbg5kQ0fJ+4wELx1tITWJBSSUcF814iSnZ2dna0tbV1D/f+RYHALEcyeeCQhZIo2RaNbhpOmG6//3A7nTYAQBmGbgmHN4zIzfL736HS6bxNOnVn5xsjiVdvWEcfPVN1dMzVRMlpzHvb2w/s3LChsWuo+1yWtVDbtjIqKjodyWQXAMRcrt2jONRHuf3+wzidnqmUcrBS2xOh0MaSW02eo+anVFe14XDYjnR6NwDsmD69a8hVGVksy5pt2zZ1K1Wd3e8QAFBfXz8vSVSTsb4c80jxSgJqNFOj5nTfJgoVFbvXBYNbvV7vHK0rZiiVLDoJv1gaWpY1u8O2D+j5bECtAtGBIHrTsNVDSUpmlssp1S0usJAvTIZ+0YBxmJ1tGp3V0+E2rQ4AOwHsYOBVAl6BwqOJcHh94f1VKX02k/GDoZ5jAHEA9cN6KVv/3SBjfuYFsQvov0nAoG6WzS+AjLxnGdOmfxHAj0aaPo6Ors8RGXcZyJwnOW3mTrhNX1cmfWgTM78Mhd8Wnn9LGjGDjOlI2Uhn1/27W9cDpoVs2m5m4JE9NdO+U0xkAoGAsyNpXwHCF2Dz4URGZtG4zXCb1h4AT9lsfLPwjOHMyXxGwYl13AVQJ4CtYKxjwur5B8z+Ze6abW2kfmrA+Chs7n3fGXs74c68bweArUT4ve6u+GpLyyvbcsWnW2NHtwZABgzGGwAO7c1K5bzbAH+i1x7L/AOBLzRy9kPgZPouAJfaZFzGhv0NPcDm3TlpCBDdmoiErunWuMAgo//u2sywlf1NoycsRlBcYKGwlBQrE9UADgHgIeAUADdCI1Fn+r432btRauv97yoqtJllZiWCqgCaD+BdRHQJMT1b5/PfNYIAZgNwE3D9jL2dvytMU3cgcHBHyv4nCLeiyKYByOyqc6ZBdtBjLsvbHDSVmqaKvy/mAFgCwkcIeODN7buezd2ifgiqASxgxoVUkQy6XO8+sO95qcHLA/GwyosC9o44FzKbsY7MnJYKL+TrX16Z0MisRe0oZsQx6Esun/+6IULcQ8Br/f9o076IjjJ4IKF7l9s060vwiD0A/g0gmW9s8BddXv8JA9yTAvAqCg4ez3KC2+s/MdfyQ8p+AoBZcN16ZHaKybUWqzX0ox5PoHdNbHpaP0FKE/BaYZ4S+EQ2nJcOIi8bGdiEzCHwuRxOFcmreyNWVTWopnB++QIDm3rKBEBrAQQBBJno1ezvO3LLTTbtem/P/Y3BHQOU6d3FyiADb4gLLBQ2o7kFtCsRDdcCILdlLSamk5j5egDz+hp0/mqt33/fIOf+/ro5Gj57IqKycGFDFXjnp3Mitxbgvl2NSZ0L4MoxPYTxZCIW/qzX651jk/EUA8f0Bk98KoA/F7nr7UQ0vBgA3Ja1hBmrieHrey24ATwHAJ1J+1QQjs65txuMTyRi4WcyfWrL3LbSfwTQc6LcDHbYXwNwUaZLIqVs5cgVnDcT0fCRDQ0Njre27/wegMtyfjsDmS2lirQkfFJLOLy+trZ2hqqs+hFAn82xvN7V1wWSUqlB7CoqMLoMgz4QD4WaB7o+EQ3/AEBvl4rbtNoA9BzGZTdHw0cOWaQVHm6OhC8SC1AYrVfAiXB4fXMkdA8UjkO+e1Jp2PzpyRiRabN2fCzr6vVE7NvI3V2FcdYI3L5BicViOxj0y4KqN+R5yIlweD0BzxZYSbv6gqCCQ+j5wR7xA4CmprUJJr644P6VmWMKALuysmgdb2xsTBta3VtozQ31vq2tre3E/fZI7N0ByLYr1SjK14QhFqAwogKaCIfXu03fr3MtAGZyD2aI1Xmtlf0NCmNtU1Pw1XGNiaZzc+Y57K1yqmc60vZRYHwl+907YFScAuCxUjyOWbsp76hh3j5QN8NSr3eRgmMeESxw3mHmew2dyhFE9hR0ofU7mLxl6dLfuVvX70HfDttztmzZ5QEQsdNpZQww2SNt2G7KP3hu+4CFQuvD6ny+Cq3Jx8TfKIjPo71hVqSVsgczmFnlHnWi0/oDdV7LU3idnez8fWtra3tp8gWLipVBJv2qCKAw4haaQYm8akO6epDLj2fC8f20SenPZ/vBxoX6+vrDbMLJOb7XM8FgsMNVb/0fqV4BhA193pgEkOB3mdZ3CTgKwAkFKfn0APccbMB4tcjmxTvB+ExTU9NbvXpXYJVppPv3na5ebcO0NgLobYhsw14AIFJh23kuMAGz3D7/LcR6MTP9V4E4PTtgWwL1PLjfUfIMopuao6H/67MAbaUGc4GZVJ4eE91WbAtnqqqqBdBeouJwMueWhb4M+rG4wEKRbpohFJIKLJucIw2Z2Z4MkbDJODtXzEljNQC0NIX/DuCtvsjSiuz5H8NLHOpn33gIuKpQ/Aj8eCIcfnqEr31zrnuLjELmzf9wcEXHAG+WLrAUBzoQaQaYr2bQaQBy3f+3yOm4ZYTv+3QiEvp/I2xex33uMdPwy6BYgEL/xn7oEpZnlZDqG1FkIFVgJPydmfptDGto+uu4ijjRqnxTBafU+ayTsy5R7sRlwzacqwB8a5hhJ4f4/Q0m+sm8ObNvbh7cjH4ChOOQv+39tbW1tfcUuH7tAHoncadQ9GxeAvidBabZDgBIGoY2Bj8lIwXQU6z4Sy2DbZ3PeAJEiwH25nz7UbfXf3wiFvpLb2IahobNg5WuvNOOGbgejH7PTTodb43ehVEpzrOu6a/M/GC/Mqi4WQRQ6F/UByEQCFR3puwzCirbpr7Cx6n887xpXUss/JN9GQG3138cwEcWSMRZA502RcyrANyI4R2okyqI+wvE+DYzd7DSm1uj0dcB6JbBw9iViIU/sSgQmFWZtp8B473Z7+cYVdWrANyV896xnN9BBj4M4J+5gbnqreXInJ3bKzPJChXONE6KCwRpK5jOVGRrKLW9yjDWBYPBjiFjbeDqRDi03u2zbs3pQwURrgLQK4BKKYZtD2JBE+eKk2HQ6sFGgUdJKv+ZnEhEi5dBcYGFYQtgff0y996UfoqBRbnepmHTQzklKjUJIvDpEV6/yGVZJwzz2lSBq7sxEQs919IUfqk1Gv0XhrckLQkArwWDuxh8Q174XHC6Xs4AQ1asv+KxLCu3QSKF2wrCf+G1YHAXADiSDl3w/l2JWOi5eDT6QjwcDg9L/HKVparyJuTMX2Twh2tN84heQevu1oOnH+txz38efhkUC1AYTACdbtP6KTKrQOpt6AXUv7Td3NS0NjGQQABYXuez7i32oIPmzP7vwiMzh8G0YuExoyMRDV8RCAScHSn7tFyxYeB64oKKp+iUPMtKYxWAxpG6wEToHkUa96ZRSyTynNv0bwS4px+y3m2a9YlotAkAdHfn/apy2iXom/tWozW/7DatB0Foz8Z1Qa71p4lv7nu/Ti5lNW9bs2a32/Q9gsyRmxkjDupsANcDQJfTqZ02D7uB1Zqvr/NZOwBAM3ZT30l58UQk9ItSWIDMOG6gMigCKBSWztyJEU4A5w94KdFNiWj4G4UWUoFILmHGkmIBbNu27RoAO0b4ihXMuLDI9/8BcEVnUp8MyulXIzzTEgl/u/DiOtP/TwY/l/PV6bW1tZcMNfXCAFL5SkrJ0SVznwYQ+EEGru0L0jgDQBOQmXfnNs1PgtWfQJiZvaAKwPlFbHVmoq+1RsJ/6vliGII0irdX/wvi8wos7uuH4wKD8/sAwVjJvVmFvlOxGU8A+MUoy3BhGXQzwy0usDAkNEQ/GANvA/hfrZWVHQHkwSykQZvpoutUR81eAGDiTxXUt6KVaJpT/QXAlpyvaoyKqtNH7F5pJMee6Ly64CF5fayJaHQtwz4W4OcHcrEJ3ALGJ1oiobyRXKUUl7qMJGKhF5F/ZOmSWtOsBQBnV5ceooDxeJdhA+ICC6NEQX+aWeVuZ5Uk0u02O3Yxpbe3RqMbMIhIGun0S1pVrMiW9RoAFVBM0JTv+ijeNX9+9a6WlmHoA+HLzJSmgik2RMSasTP7YU9GO9SdBP0EA+8AQIad/m2xMIPBYMpdb32GCUfkxH7IeYmkk2tYVaxgwizATsJQLcPTOL5Ug5xZqyNvoX9zJBLymOZJNtFspckAeHpDQ4Mjt3ugJRaLATjZ4wkssJV9LAiHg8hJjA3KRiQeD0eKPXfdokU7PK2vfkiTPYs1zRruJgMK6kc2697zh5OG8Xae56rVhx2KF2rSBrHabU+bthkA4vH4TpfP90ECZhd7nlL4fzqNO4mK7uiTZNDejDtMbw+Qktcx88xsuSgqtimnajSSekW2NZlOgFMTOcA8Q2q4IAiCIAiCIAiCIAiCIAiCIAiCIAiCIAiCIAiCIJQPci6wkIfba50KcG3PZ7vC8bN1weBWIHOmq03GqvwSRNtyD5rOhOE/GdCBns+pzr139JzB6/b5zoDGwv4lkdqJsYtBG5VOro3H48UODILHs2yxVn1rfQm0qTkWztuK3uPzHas1jiGiWUyktI3HWptCeTuoeL3eOTaMD2uCBcLBBFRAUzsU7wIolIiEfglAuyxrIdn5KzMGxKCmRDj89FKf752GxllFK5xSu7RmDVBrSyz0VxSs7HB5/csJum8DWeKne9YFuwOBg5FMf244r6J0+vZ4PJ4EAJfPdyVpOHt+08muuwdb8lfn81/MWs/qjRY7Hhts926XaZ1NzPOHFBvixuZodM1kKu+yEkQoLKRnZTfLzBT+VOppAFsBQBvGIWDqt2lmnWnGcgs2KXyMmb7Y83n69On3ovc0MToPhBXFnp1ZhMzQhjPtMq0nQfy1lkhkXe41WumloL53YMJLAPIEkDVWgOjrDGSOITM4hJwtpNym//Np8HcATM8+skdssv9neDyeR+LxeJLSWAJFw9soVON/ATytbDocCkXvYebsrsoMt+lfq2F/ujUabe0VLuL3Meim3utBbyK7Llil04dpGt67pNPpu5FdlkhM3wT1HRnJVVUPYpDdlpn5KyDqXSFjG3YTBtm9m4BLQBQY6p2Y6WoAk0oAZS2wUAKM/C2dwGP1LBwEnE5M/c65ZVWw2y+PrBHPWrh3o+/8jGJVtavHehpfeJmCengSZqieKiVXLEBh7NUY/AFXvfXelqbwS6PohHkSoNbsOs33ArByfp2uoR9dbJp1bdHoJgBQrNL5u/3CGNG7El9E+T0/QQbuUowOBg4iwjsZ5MipIRvAdGuOGXMB8jYf5V+A1H8yUdFrB3js60z8RWJawKDTCHxizm+Wy+dbWmjpDi/dsYmYzin2W6tpdqC1dbRZOtZjDb4CplARtVkvAiiUp+ts4HoA7+/x24btgjD9Mh4NPdbXn+Q/jaAfzG75BAAznKSuRPb8Xs1IFxzMMyIBJNBh+S6Qui4eXfv7ga5PhMPrAVzT5z5bp+YKIIF/1BwJDeXW7WmJRHo2ZbinzvTFGeTKicDsUaU50JGIhZ4r+mMsNPq8BGsew/AAgdY2x0LP7w/lVlxgYSy235s55sgKj8937FhDbImGHgep7xWYOh/pFQul7aEacSYyCoQi12TcnO/r6UddPv817kDg4H2RYh6PZzaDDsp1t5FOt02qXGUSF1gQhuFP3g7CTT3lyGZ1A4CTMMbZBQz9YoGbusTj8VRk++UK++b6WYDEbHCOmUisunLE8ffEnHtE4gxi/jZS9o1u03oWxPclIpEnSpxSC92m9UeAKjW4Ls+CZHV3PB7fPspwj3SbVrF7f5WIhv97DCacHlv+8RNu0+q307dW+K/WcPhvYgEK5eH2Kt7A3LdrL4FPdHn9J2CMgyCc3dsvz8M2jIybmFbdQwmgJspr2LXmzp7/1zjUnQR6qshjDQAfBtOv3ab/caxcaZQwqWoAnAzwcQAO7LO0+JLmWOiqMYRrAJhT+EeE6jG+71gtwBnF3gtp6p5sZVgEUBgLFUz6W7lWGVH+IT+jqtW6t/+vF9u2OwAgpfIFkIp4Map36/jsZ6NPAIPBYKo5GjpFgVYS6FkU7fDnT9StW3f+uDcgoGpg/HdIHsUzSn22cwrADjL0bhFAoXzQcLZGo/8qOPf3BAIaxhQs86ICqdjYMzFaGXZXQc02itT2g/JqszY6C6+JR0OPNUdDHzR0+ggQ3QogXRDIihKm1OsK6kMA7s63dHFJIBBwjiHcVx1sH9D/T39xIi1AYpyq7FRlIhqm7F9FIho+YDQj3eON9AEKY2k+KzIWm7pZG/Y5QOZz7gjnSPF4jprPlLom32Thvm3tuyraUZHXDViVbch1nyeOo/IsSgd3DvS8pqamjQCuqfP5NzDzj/v0j+aVMKX2ZEeaf+82raUZdxgg4NDOpP1JFEzkHomlFovFdpQ6W5mhaSydGER79s08ShFAYWIVsAIA4vHgv92m9TMAnx+Fb3ZInWkeDVYLAF6mKbkKoJxlVdxlaMf3ez61tLyyze21NoPQM2o7z2VaT5BBl7ZXVb09Y2/n1wC8M9f9sjudb/V8yE6ErlcKjU6ipnA4vNMdCBysk9rKrfQE2jEuSca4HYST+6xA/uIYBHB0lV4r0+VdNh8ADErP0mwopXRXPBJ5MaNfBRagxmKXd1m/lR4triPDWL3a3p9LsAigMAY/STv7Onn0zU6ocwFUjkwP+AeAyo4b9zM7bJC6sN86VMJ3ANze9xGnwOZTZuwtauj9tKXllW05VuvJYPpvzUA3A27TAlI2Ci0ezfzr8UizeQfO/sNb23duBXqO7qT3jHYiNIClbtMq3r/HtGKgOYJM/EzP4WwaCiCGZnod6F2jXegC30FFZsZY69fPCSN7KFV+nj7nNq3+hiH48eZo5PTJVIalD1AYswUIAG3R6CYi+mkJLaVmMH2w2OHYiWj4TiI8MIxQftu5e/aXCsId6mQwZuB7LbHwA+ORYo2NjWkw/SZfGNRnJ1OukiyFE6YqDHoNQLDns6GdvWaVzdyhQL2/EfPWPDm0U9+xleM9haZcZ2ennfOA9chbSgYQsFuDuwnYAsY6ZnqhpSn8MgYevdTNkfA5LtP8NaDOJ2AhAdMZmEngrRrYQIQHEpHIo4VhEPEfmelwZAZKZiIzRUUT+G2GijDjxy2x0J8HkYc4wHtyXPi9/dNQ7SHoYE4EXyu45FcAfD3Jg9ydVJg3gyjnXt5W8KzgsJomlTviSiGAh5oasznnOQlk+lYHpTdfGYnhzPzMlq1Jxf8HFJ6Bsy3uDzYAAAAldEVYdGRhdGU6Y3JlYXRlADIwMTktMDMtMzBUMTg6Mjg6NTIrMDA6MDB3FhRBAAAAJXRFWHRkYXRlOm1vZGlmeQAyMDE5LTAzLTMwVDE4OjI4OjUyKzAwOjAwBkus/QAAAABJRU5ErkJggg==;fontSize=14;" parent="1" vertex="1">
          <mxGeometry x="217.43" y="422.5" width="132.57" height="72.5" as="geometry" />
        </mxCell>
        <mxCell id="jSoYXtQaay7fsIpfsQkB-1" style="rounded=0;orthogonalLoop=1;jettySize=auto;html=1;exitX=1;exitY=0.5;exitDx=0;exitDy=0;entryX=0;entryY=0.5;entryDx=0;entryDy=0;fontSize=14;" parent="1" edge="1">
          <mxGeometry relative="1" as="geometry">
            <mxPoint x="210" y="529.09" as="targetPoint" />
            <mxPoint x="150" y="529.59" as="sourcePoint" />
          </mxGeometry>
        </mxCell>
        <mxCell id="jSoYXtQaay7fsIpfsQkB-14" value="" style="verticalLabelPosition=bottom;verticalAlign=top;html=1;shape=mxgraph.basic.layered_rect;dx=10;outlineConnect=0;whiteSpace=wrap;fillColor=#d5e8d4;strokeColor=#82b366;fontSize=14;" parent="1" vertex="1">
          <mxGeometry x="367.5" y="500" width="55" height="50" as="geometry" />
        </mxCell>
        <mxCell id="jSoYXtQaay7fsIpfsQkB-16" value="&lt;font face=&quot;Work sans&quot;&gt;&lt;i&gt;&lt;b&gt;Déclaration&lt;/b&gt;&lt;/i&gt;&lt;/font&gt;" style="text;html=1;align=center;verticalAlign=middle;resizable=0;points=[];autosize=1;strokeColor=none;fillColor=none;fontSize=14;" parent="1" vertex="1">
          <mxGeometry x="340" y="470" width="110" height="30" as="geometry" />
        </mxCell>
        <mxCell id="uD4aB0nu4uxJm6UnGofd-38" value="" style="edgeStyle=orthogonalEdgeStyle;rounded=0;orthogonalLoop=1;jettySize=auto;html=1;" edge="1" parent="1" target="uD4aB0nu4uxJm6UnGofd-36">
          <mxGeometry relative="1" as="geometry">
            <mxPoint x="393" y="560" as="sourcePoint" />
          </mxGeometry>
        </mxCell>
        <mxCell id="jSoYXtQaay7fsIpfsQkB-38" value="&lt;i style=&quot;font-family: &amp;quot;Work sans&amp;quot;; font-size: 14px;&quot;&gt;&lt;b style=&quot;font-size: 14px;&quot;&gt;XML&lt;/b&gt;&lt;/i&gt;" style="text;html=1;align=center;verticalAlign=middle;resizable=0;points=[];autosize=1;strokeColor=none;fillColor=none;fontSize=14;" parent="1" vertex="1">
          <mxGeometry x="367.5" y="508.75" width="50" height="30" as="geometry" />
        </mxCell>
        <mxCell id="uD4aB0nu4uxJm6UnGofd-9" value="&lt;font face=&quot;Work sans&quot;&gt;&lt;i&gt;ARC, schéma XSD&lt;br&gt;&lt;/i&gt;&lt;/font&gt;" style="text;html=1;align=center;verticalAlign=middle;resizable=0;points=[];autosize=1;strokeColor=none;fillColor=none;fontSize=14;" vertex="1" parent="1">
          <mxGeometry x="455" y="558.75" width="150" height="30" as="geometry" />
        </mxCell>
        <mxCell id="uD4aB0nu4uxJm6UnGofd-14" value="" style="endArrow=classic;html=1;rounded=0;entryX=0;entryY=0.5;entryDx=0;entryDy=0;fontSize=14;" edge="1" parent="1" target="uD4aB0nu4uxJm6UnGofd-15">
          <mxGeometry relative="1" as="geometry">
            <mxPoint x="590" y="529.72" as="sourcePoint" />
            <mxPoint x="690" y="529.72" as="targetPoint" />
          </mxGeometry>
        </mxCell>
        <mxCell id="uD4aB0nu4uxJm6UnGofd-33" value="" style="edgeStyle=orthogonalEdgeStyle;rounded=0;orthogonalLoop=1;jettySize=auto;html=1;" edge="1" parent="1" source="uD4aB0nu4uxJm6UnGofd-15" target="uD4aB0nu4uxJm6UnGofd-32">
          <mxGeometry relative="1" as="geometry" />
        </mxCell>
        <mxCell id="uD4aB0nu4uxJm6UnGofd-45" value="" style="edgeStyle=orthogonalEdgeStyle;rounded=0;orthogonalLoop=1;jettySize=auto;html=1;entryX=0.5;entryY=0;entryDx=0;entryDy=0;entryPerimeter=0;" edge="1" parent="1" source="uD4aB0nu4uxJm6UnGofd-15" target="uD4aB0nu4uxJm6UnGofd-42">
          <mxGeometry relative="1" as="geometry">
            <mxPoint x="790" y="640.6300000000001" as="targetPoint" />
          </mxGeometry>
        </mxCell>
        <mxCell id="uD4aB0nu4uxJm6UnGofd-15" value="WS création demande" style="rounded=1;whiteSpace=wrap;html=1;fillColor=#dae8fc;fontFamily=Work Sans;strokeColor=#6c8ebf;fontSource=https%3A%2F%2Ffonts.googleapis.com%2Fcss%3Ffamily%3DWork%2BSans;fontSize=14;" vertex="1" parent="1">
          <mxGeometry x="730" y="500.63" width="120" height="60" as="geometry" />
        </mxCell>
        <mxCell id="uD4aB0nu4uxJm6UnGofd-16" value="" style="verticalLabelPosition=bottom;verticalAlign=top;html=1;shape=mxgraph.basic.layered_rect;dx=10;outlineConnect=0;whiteSpace=wrap;fillColor=#d5e8d4;strokeColor=#82b366;fontSize=14;" vertex="1" parent="1">
          <mxGeometry x="627.5" y="500.63" width="55" height="50" as="geometry" />
        </mxCell>
        <mxCell id="uD4aB0nu4uxJm6UnGofd-17" value="&lt;font style=&quot;font-size: 14px;&quot; face=&quot;Work sans&quot;&gt;&lt;i style=&quot;font-size: 14px;&quot;&gt;&lt;b style=&quot;font-size: 14px;&quot;&gt;Liasse&lt;/b&gt;&lt;/i&gt;&lt;/font&gt;" style="text;html=1;align=center;verticalAlign=middle;resizable=0;points=[];autosize=1;strokeColor=none;fillColor=none;fontSize=14;" vertex="1" parent="1">
          <mxGeometry x="620" y="470.63" width="70" height="30" as="geometry" />
        </mxCell>
        <mxCell id="uD4aB0nu4uxJm6UnGofd-19" value="&lt;i style=&quot;font-family: &amp;quot;Work sans&amp;quot;; font-size: 14px;&quot;&gt;&lt;b style=&quot;font-size: 14px;&quot;&gt;XML&lt;/b&gt;&lt;/i&gt;" style="text;html=1;align=center;verticalAlign=middle;resizable=0;points=[];autosize=1;strokeColor=none;fillColor=none;fontSize=14;" vertex="1" parent="1">
          <mxGeometry x="627.5" y="508.75" width="50" height="30" as="geometry" />
        </mxCell>
        <mxCell id="uD4aB0nu4uxJm6UnGofd-27" value="" style="verticalLabelPosition=bottom;verticalAlign=top;html=1;shape=mxgraph.basic.layered_rect;dx=10;outlineConnect=0;whiteSpace=wrap;fillColor=#dae8fc;strokeColor=#6c8ebf;fontSize=14;" vertex="1" parent="1">
          <mxGeometry x="757.5" y="390" width="55" height="50" as="geometry" />
        </mxCell>
        <mxCell id="uD4aB0nu4uxJm6UnGofd-28" value="&lt;font face=&quot;Work sans&quot;&gt;&lt;i&gt;&lt;b&gt;Demande&lt;/b&gt;&lt;/i&gt;&lt;/font&gt;" style="text;html=1;align=center;verticalAlign=middle;resizable=0;points=[];autosize=1;strokeColor=none;fillColor=none;fontSize=14;" vertex="1" parent="1">
          <mxGeometry x="740" y="360" width="90" height="30" as="geometry" />
        </mxCell>
        <mxCell id="uD4aB0nu4uxJm6UnGofd-29" value="&lt;i&gt;&lt;b&gt;Objet&lt;/b&gt;&lt;/i&gt;" style="text;html=1;align=center;verticalAlign=middle;resizable=0;points=[];autosize=1;strokeColor=none;fillColor=none;fontSize=14;" vertex="1" parent="1">
          <mxGeometry x="752.5" y="398.12" width="60" height="30" as="geometry" />
        </mxCell>
        <mxCell id="uD4aB0nu4uxJm6UnGofd-31" value="" style="shape=image;verticalLabelPosition=bottom;labelBackgroundColor=default;verticalAlign=top;aspect=fixed;imageAspect=0;image=data:image/png,iVBORw0KGgoAAAANSUhEUgAABu8AAAHVCAYAAADxU2aFAAAgAElEQVR4XuzdCbgdRZnw8co4IiEJQUSQLQiCrIkIhkCQXTbJRFEMKkaFgILGkR0ZBAaED5AIODADCkEUAVkEjKIIsonsghhkCbKTgCyiECDAOON33sb3TN26tfVyzj333v95Hh81t7u6+lfV3dX1dlWN+HvrZ/ghgAACCCCAAAIIIIAAAggggAACCCCAAAIIIIAAAggggMCAC4wgeDfgZUAGEEAAAQQQQAABBBBAAAEEEEAAAQQQQAABBBBAAAEEECgECN5RERBAAAEEEEAAAQQQQAABBBBAAAEEEEAAAQQQQAABBBDoEQGCdz1SEGQDAQQQQAABBBBAAAEEEEAAAQQQQAABBBBAAAEEEEAAAYJ31AEEEEAAAQQQQAABBBBAAAEEEEAAAQQQQAABBBBAAAEEekSA4F2PFATZQAABBBBAAAEEEEAAAQQQQAABBBBAAAEEEEAAAQQQQIDgHXUAAQQQQAABBBBAAAEEEEAAAQQQQAABBBBAAAEEEEAAgR4RIHjXIwVBNhBAAAEEEEAAAQQQQAABBBBAAAEEEEAAAQQQQAABBBAgeEcdQAABBBBAAAEEEEAAAQQQQAABBBBAAAEEEEAAAQQQQKBHBAje9UhBkA0EEEAAAQQQQAABBBBAAAEEEEAAAQQQQAABBBBAAAEECN5RBxBAAAEEEEAAAQQQQAABBBBAAAEEEEAAAQQQQAABBBDoEQGCdz1SEGQDAQQQQAABBBBAAAEEEEAAAQQQQAABBBBAAAEEEEAAAYJ31AEEEEAAAQQQQAABBBBAAAEEEEAAAQQQQAABBBBAAAEEekSA4F2PFATZQAABBBBAAAEEEEAAAQQQQAABBBBAAAEEEEAAAQQQQIDgHXUAAQQQQAABBBBAAAEEEEAAAQQQQAABBBBAAAEEEEAAgR4RIHjXIwVBNhBAAAEEEEAAAQQQQAABBBBAAAEEEEAAAQQQQAABBBAgeEcdQAABBBBAAAEEEEAAAQQQQAABBBBAAAEEEEAAAQQQQKBHBAje9UhBkA0EEEAAAQQQQAABBBBAAAEEEEAAAQQQQAABBBBAAAEECN5RBxBAAAEEEEAAAQQQQAABBBBAAAEEEEAAAQQQQAABBBDoEQGCdz1SEGQDAQQQQAABBBBAAAEEEEAAAQQQQAABBBBAAAEEEEAAAYJ31AEEEEAAAQQQQAABBBBAAAEEEEAAAQQQQAABBBBAAAEEekSA4F2PFATZQAABBBBAAAEEEEAAAQQQQAABBBBAAAEEEEAAAQQQQIDgHXUAAQQQQAABBBBAAAEEEEAAAQQQQAABBBBAAAEEEEAAgR4RIHjXIwVBNhBAAAEEEEAAAQQQQAABBBBAAAEEEEAAAQQQQAABBBAgeEcdQAABBBBAAAEEEEAAAQQQQAABBBBAAAEEEEAAAQQQQKBHBAje9UhBkA0EEEAAAQQQQAABBBBAAAEEEEAAAQQQQAABBBBAAAEECN5RBxBAAAEEEEAAAQQQQAABBBBAAAEEEEAAAQQQQAABBBDoEQGCdz1SEGQDAQQQQAABBBBAAAEEEEAAAQQQQAABBBBAAAEEEEAAAYJ31AEEEEAAAQQQQAABBBBAAAEEEEAAAQQQQAABBBBAAAEEekSA4F2PFATZQAABBBBAAAEEEEAAAQQQQAABBBBAAAEEEEAAAb/ASy8vMvMemW/GjBpp1nrPSjAhMKQFCN4N6eIdfCf3+ONPmiOPPLbI+CmnnGCWWmrs4DsJcmzOO+8iM3/+AjN58iSz2WaTEYkISJ3/0Y8uKbY45JD9sGpY4IQTTi5S/OQndzGrrLJyw6mTHAIIIIAAAggggAACCCCAAAIIIIBAJwXm/+nP5vuX/so80Ara/fWll/sc6j3jljdbb/I+M3WbSZ3MAmkjMCACAxq8+8wBs8yLC1/p2IlvOWmCOWDGzh1Lf7Am/Ne/vmjuuefe0tnvRhBGOtpnn31ukbeTTjrOTNlp+9L5ZIeBF/j4Lp9p1bH7zIw9phOQShTHjTfebGbsObPY6sF5dw184Q2xHLx3zQ2KM5p91mkEkodY2XI6CCCAAAIIIIAAAggggAACCCAwtAXOvPBKM+ea28xSS442G663utl0g3XaJ/z0cy+Y2+6eZ+bOe9SssOzSZr/dd2Y03tCuDsPu7AjeDbsiN8YOFpQ5/W4EFmQU0l5f+IpZYfl3BUfeHfb1o80DDzxoPrbzVLPbbtPKnALbtgS64RcK3smIvKOOPt6MHLm4mfOTCxkJ1SoPgnedvSwJ3nXWl9QRQAABBBBAAAEEEEAAAQQQQACBTggc+18XmlvvfqAYVbfXrjsED/HAw/PNyd+7zLzw4svmG/tOJ4DXicIgzQERGNDg3bGnX2hefmVRx058g3VXN5/Y8YMdS3+wJjy3NeruqKOO65f9hx56xCxa9JpZZpl3mOWXX67f3398yQ974pQZ1VWvGLrhFzqG/rucwSc+8VFz7DFH1DuZIbA3wbvOFiLBu876kjoCCCCAAAIIIIAAAggggAACCCDQtICOuJOgXc6UmLIW3kHHn1UE8GYft69ZcvTIPlmSAN/CSBxiuK2hd8fcP5q773/Y7LjFRLPSu97RdPH1SU/K8j2rrGC23nhCR4/TS4nLaFGJe3166pa1sjWgwbtaOWfnxgW6EdRpItODJZ9NnGsn0uiGX+gYEjg+8MDDzGOPPWG2334bc+p/nNiJUxxUaRK862xxEbzrrC+pI4AAAggggAACCCCAAAIIIIAAAk0KyBp3+xxxmnfEnQTprr9trjegJ3+bcegpZv21VzOHfWnXPlna95jvmoefeDqYTVk775Svf6HJ0+jptDQ4esTMT5uJE9boWF4lSHj0aeeb4eb7L184qjD96XePrGVL8K4W39DauUpQR4IxL7bW0Bu71FgzYfy6/UD07/qHceNWrj1VYpV8SoCkTh7s/ce3znOp1vm6P/tcy5ynTBX6xBNPtpMru7agvX+oHOy8VvEL1XR7/UT72LFjfP7ze5ubb7m9a2uQ5ZSd7/zqlosvTbuOaD0qE7yz988p6yp1tGx90mO4XlXy567HWeZasI9vX3+5wbu6tkPracDZIIAAAggggAACCCCAAAIIIIAAAgMjINNlPvDIfHPurAP6ZCA1uk42lhFPEpg6/eiZfUaUafBOglW+33AbeUfwrrN1m+BdZ32HZeqpoI4dZLj9tuvMjD2/bO65577Cavz4dYw9rebPrvil+X//b5Z5/vk/97OUbWef9Z/eAJhsrJ3t7hp79pSLvgKascd0c8gh+/X5UygfMurrG0d/3ZsHPc7VV/3EvPjSS2bvvfftdx72lI/S6R/a5qADvxo8TwlUHH7EMeaXv7ymT55l2tJ/+7cDzZSdtu93mloGOmpN1q+7+OLL++1/xhmn9AumVvGLXQi+Y7/73ePMrFnHFtOySt2wy0TOV+uMb9Rdqv5JXk444WQz++xz+9U3zWfZsvOdX5VySd0wQnVEfCZPntRymVkkEVpXUqe61etNjyfX0pFHHuoNnKvVkUd8zezUqkv29Wrvr9eiXT72+cgxTvrWccGgeyhvkobUZV9d1PTlWpdtbr7paiPrIX7zxFOKqXv1J2sjHnzQvtG1LUP5nrzJRsW6mRtN2qpIbvZZpxlfMLCKbaq8+Xs1gWeffdYsu+yy1XZmr64IUEZdYeYgCFQS4PqsxMZOCCCAAAIIIIAAAj0oMP3Ab5kN11vd7Pv5j7RzZwfuYuvayXa77f/NYo08e7pNDd6VHQkl6blTcFYlC6WVe4zc7XLylwre1TmWvW/OyLsyx+q2YdW8pYJ3ueky8i6nNg+TbVLBEzt4J8EXCTpJsGbMmNGFkAbvJGC2//6HFv8mHf8f23mqGTdupVYgbKH53vfOLYI6st9Vv+wbdFLmUPBOOvfnz19gfjLn50UwTdLeaOKG7dKRIIjdOS/bH3X08cXfJdi2ztprmZcWLjSXXfbTYtpGN+CoCamDBD0kmDBq1Ciz1VabmSXHjDG333FnO2ApaX5hr93N1I+8OQx7ypQdim3uv39eMbJMfqGpISXgMG3XzxX5EItttt7CrLveOuaWW25rB+N8wQYtA8n7Wmu9t9hWghRrr71mcW4/+9mVRfBDgh5zfnJhn4BLWb9YtbcDgXr8+QueMr/+9U3Fbsstt2xxbm5AVfL/xBPzvcGYVP2TdHODdzll51tvr2q5xKzs60YCVVqXrrn2hnY91KCcL3gnwaXp0/cqylWsJ208sahnV199bVHPpKxvuP4X/YLEaiVlIMd65plnzeabb2pWWnEFI2WlQWO9Frfb/qPt6Ux1GylPOa5sc9GF3+93DBntJvVf18qcPv2TZr111y44Lrr4suIYvrroXusnnXRccc/Qa0H+rte5/G/5uy+YLeW1xZY7tuu8np9eg3KdqK3veqpqGyvvJv927a1zzcOPP9WV+cer5vuUc35invvzi+bYAz5bJCFfx22ywdql5zG/9957zTnnnGO23nprs+OOO1bNTp/9pCHq/obCHOsyT/+5l1/bNm8EKzORWbNmFVt+9rOfbTTQqnPt3/vH1jNxpeXMaiu/K2tNg8xsN7aZNK6POOVcc+CeH29/wan1LLZ4ui8Dvv3c66mxjCcScuuU3Hvm/OrWnpwyRowmrLVq6XtMtyxTx+lk/pu8PqVO3PjbPwRPZ/2131Npah35CvraW37f5xo67Fs/MNtsuv6gKtPBmOdU3eTvCCCAAAIIIIBArwho8M2ezjE3cKfnIIE6ebe0g39lg3fyznbVb35nXnv9jSLZpZYcbXbfZds+7dbz51xvLvjZDUWg8La755kHH1tQbHvxqYcaaVMfdMLs4t1W3nV1yk5N5wPrrWFO/cEcc+vdDxT7LP62xcz0j27d711Yzt3eTraVKSj3/tSHzVrvWaldbLG8hN5JpX3uOrvH8p13qK64ZpLPjSa8tzByp83MPS9pe4ur2EhfiJbHxuuvZb7y2anmt3/4o/neJVebv770cpEtOc7R+07vF3B18ybe233w/UXZ2b9PfOU48953r2gmrb9mn+OJw2H77NrHXPaT92f7+Op18tmXFcnaweLcc7bzM6DBu88cMMu8uPCVjt0btpw0wRwwY+eOpT/UEk4FT+wghHTIn3bqLO9IFp0WMRQcm7zptkXwTQIsu+02rR9jKHinG6byKdtJUGHb7T5SBA7OPffM4Cg0Xx40fQm0jB49ql/Qwg4KyjkuXPhydJtLLjm33/G/8q8HFYENX3BPnXVEkg1k/81naAefQoHDHL9Y3dagkGzjBkTs48vffaMhQ2nn5Cs3eJdTdjKycpVVVu6TnarlEjonO7ikI8HsKVftuiRp+IJ3setFPXxlrX8Ti1deeaXfdWAHrqQeP/TQI9Ft9tvvy2afvWf0OdXTz5htTj75P4MBxJinJKTXuuRxww3X77cGou7vuxZkf/taveD8s/uUp31+vroq/1bVtlv3fmkwSKNkm8nr92lwduv4Ocdxgw3yZZE0TMsGMqSOnnzyyea5554zK6+8ciPBIcmLNJresdSY4lQWvfa6eerZF4p/8zW4cs63F7bRr9bKfi3YRN5vuOEGc+mll5rFFlussUCrfu23wrJLm5GLv63IprzUhBrcTZxH1TTU3n65kRdA+ZVdG8G330AF79w6JS9Hz//lRfOdY75Slapj+4nbumuMK32P6ViGSibcyfw3eX1qANe+d9rX6NabvK9SgN0XvKv63ChJ3+jmgzHPjQKQGAIIIIAAAggg0EEB971LA3fyPh/72X0RvvetMsE7eTe75ua7zYQ1VzUf3XYT8/RzL5grrru96FPYb4+d2wE8fZ+VfNn9D/J+qOchf5P3W3mPeWXR60W6Ejhaeuxo8+prb5jNJ765DJUGCu305d+/+PVTi+PK+clHdH9sBbIuu/qWYp+TD/tCnw9Lpb3ty4vPzTfyTo8l/VCbbrBOn/NOrY2nwUNx0HOyg5Zu8C73vLTcxGzTDdcxo0a+zfz2nj8WJpKm9B9IIG/Zd4w1j81/1syd96iRdxf7fdYuT/lwUH7X3HR3sa3bhyVtfTmW/PR4z7Y+Wpcgq/y7ba4BWjtvuq2a2303uedslxfBuw7ebAZb0qngiR28iwVldISXOxJOPWIBB9mmieCddvqH8qmjA30BRntUmS/AI3nUUUryv0PT8YU87cCib8SUnb6btjv68dT/OLFfNdNzk8Dl7+/+v7X+dMNUOafqrQY8QrZ6fpLOQAXv5NipsnODUXXKJWSmwbnQ6DjZT+uq/G83eKf7hwLhEhzUaSHdfe0gayhQbk99GiqrWMBU6uPNN99mVlppRW8gPhaItq/1UHDOPj83CG7Xs9A1aAdH3W3q2KaukSb+rnO0S0Pxiaef6zfPexPH6EQadTs0JTAkHdASHJoyZYrZYostKmfTlxdpWB3eGjm14nLvKB1sqZyRhnccyOCdnMqjjz7amub2vHagdZ999ilGqFf56SLkboBaz7FKILhKPnL36XTwLjcfTW/n1il5odhio/Hm01O3bPpQtdPrZPCrduYyEuh0/pu8PvV0fPU+41SzN6n73Mg+UIMbDsY8N3j6JIUAAggggAACCHRUQAMidrBI+0h0tJQvA/bsENLuHtXqF9VZgmT71Jp3a662UjFaS99TpT/G3l+CiF/+9/8qDq1r8WkAzN1WttF2tASz7LX7NMgl5zL7uH3bI8R0ezstPe9PTdmiz/uZGknQ6rAvvTkjXCwvPi83eKczzchIOftd0HcsX3ryAbr87OCW/H/5OFSCZHbwrsx5abnZ06BqWchoO7ffQLc/8ZAZ7VFyMktUkZd/WGn+Jc9SDnb56HSXbrBSvezj6bm5AVctYzmOBu/KnLPtO6DBu2NPv9C8/Mqijl3wG6y7uvnEjh/sWPpDLeFUUMcOHIUCIzkmqdFTTQTv3rf+5GIqPd+oN81jam09GSl1zjlneE/JHtUk63X5fqHz1NFKOen7pp3U9dGqnJvkM1XOsTKU0Uy77DK92ETWPbRHkdn7aXBzoIJ3VWzrlEvITEeh2mskutva08y6ATjd3zfqTdPR8nSDU1r/QkFc2T/nmra3Ca3JFzr/1L56DVY5Py2v2BS8dvDP9aljm3Ofq7uNNjT32W0ns88Rp/X5skvTlsbADbff0x5NJl822SPepOF33pzriq+QpDGy/tqrFVMKSGNUGl9nXPDzftMsyNdI8hWTnY40UH59x73FFATSiJSpCnRqBvmbfDmmU1E00aEpU2hecMEFrVHNC80aa6xhdt9990rBoVBe9Isr++un2DnqCBQZaXLxL35TOOj0DGdfcpW56c431351p1vQqQilker6y/bSyJMv7x6d/4y5+/5HijTsMtJydvMmUzfIv9n5lzxe2JqGQr48ky/Mdm017LfeeEK7GtppyN/3nLZDpSnvNEEZKXn55Zeb22+/vQi0Tps2zUycOLF0tdfG73knHdxvSgsJIMlIPB3R1oSnm4Z8RbfHLttlXxN2EEMWM5draMEzb67tKwFh++XQNdcy0WvPt597PUm6oXTkb1o3p35o42j5uwWTqlOSxxVa5yP3Ch0p5Y4slHuUHFfqWW4+bH/9GjM2StfdfsfNNzS3z32wz8g7nXYkdA3pdSZffMq1qFOYrPDOpc3J37us/bWmO+WMfU25eZWX+Vln/djIPUGmxtF03XtwE/kvfVG1dmjq+tRj+4J3rsErrTa3GubUWalPWrfkGaVfKdujKjtxX07VF70G5Tnoe+6l8lylvNgHAQQQQAABBBBAoL+AvM+7a9Zp8MMOWIXsZM08t32uQZ3QPhqU0cCLG5CR/bQ/QQNDsXXjQh+lanDQHYkm6euoL5l2U34aHAq9M7/w4svFFJ367uhOgxmrW6k173RfDd758utuEwti2vuXOa/QiEkJyMlouFCQzQ14uhZSDt847fzindDuX5EycEfuyb6+ctOApZaBfQx3zbsy52ynM6DBO25OvSWQCuqkOuLds5GRMff84T5zb+s/S45dslgLa/z4dc13vnO2mX32ucE155oI3mkaEjwK/SQP8nMDEikH2ScVgIxtY+9rr9ln51PX1osF72KBFD1/X4Av5/xCZhpoigVMZN8qx8jZJ+VeJg03wFenXEJeGsQMrdkm+8WuKz0fmRZT1qHz/XRtuFDwLjRqL3VsPVbOdS9BsntagV0ZhSc/GXU7btzKrfUNnzQabPbVV62noZFzdl1yA3w6ajAWGJX9Q8eoY9vpO7c2CLShKkGMcSss2+cLIW1M6rQJd9//cNERqo1NbVzZUzzI3OA64iw0ksKdWkIaphKckiDimCVGtqZxuKsINOmXVO72TQTvxNftfD7ooINKr7EWyot0ysvc46cfPbOYXiJ1jva0jhKA+VOrYSfztUtn87jl31lMoaH+WmbSQTzj0FOKYNx2H9ygqDJnXXSlWebtY9tf7mlDTqej0DTsFxF9OXHLWdLTxqWejzRM12jNyy5TaEj+9EVD6opMqaFleNNd9xXTdOj516nPdqB1o402ao3A3a1UcmqbmgJUron9jv1uMe+8eC98dZE5/bwr+oygzPGUhrWWiaQh89Kv1fq6Ur6+y7km7G3kq8wLr7ih6OCXn7wYSvBOvlDUufTVXMtEXvAkKBbaL3T9ScB8+VawSa4/++VE/TQgJfnQIG6ofHPqlF2IoTKyr6+cfGgZ2v5ShhJAtdehsI8tL9xLLL5YEYy2z83+0lHuj/KTgLReZ/LfOkWK1gu9huQ6lBdcCajLB36jW0FYMZPpavRrSy1nvaa0vu3cqntSvvp3SUP+Ta67y1vXmATx7A6GJvJf6oJyNq57fWpyvmvDNtCpZHbcYqL5xQ13FNP9+Oq+fPRh1yddV0/qpE4jpOuSduK+LOeTqi/aMSD52W3qVsU0QfLs1K9xY3muU1bsiwACCCCAAAIIINBXwDdyTrbICeD5Ru7JvtrWk3cD32+zD6xXfKjsW9pBt//zXxcWH/RqwKhK8E7SkveUUPBO/q7vyHb71M2zfBAqS63otrnBOE3Ht730Zfzs2tuKjyb1XHX7WPAuNnuOrmFo71/mvELBu9D5+kbIad2Rjy9liQh3ClY3eBc6V7fcQuWo7x52YLDMOdtlTfCOu2NbIBX4yOnEl8RkdNZRRx3X6sx/czSC+5Mp8mS9tlBQocngnRwj9fvxJT/ss0nKQTZOBZFi29ij9pZffrlo9j6289Q+0xHmlkEsKJJzfqFM5Zy37FvlGDn7pI5fJ4065RLyyglO5QTvJFg6ZszoaF058shD+6ytmLKSxHLqU2wbCdodfsQxxfqNsWtd/lY3eOcGsnPKWo6bCt5VsU3dU+r+XTv+9csdbZzaX1r5Anr2elnyv+/8w0N9hv5LkEc6yyXdnECFNrDcr93sL9g6FbwTQ+l4Puecc8wbb7xh9t13X7PqqquWog0F79wAzG77f7PfF332OWrDzw6G6BdedpnYFmI375H5RqfdkIy7QRBfI88dFegrZz22Ni5D2zz3wovFqDXf+mXyMmMvbF0K1tpYgqwySvKee+4pRknOnDmzVFK5wbtQfZYgrH7xmPLUFzj760kpp5defrUI4uZcE7nTZsqx5Gcbu/UxtAaD7CflFrr+pLw1CBx62ZI6HZpyNKdO2YVYJnjnLnRu58NXhnpv8wVv3SC75Ek/bNBzi22jeRF3OyDum6rVLVfZ5ulWkH7ihDXaFHZ5hV5M7dGiTeW/1AXlbFz3+tTkYsE7t56l6r6vPrnXRs6zp8p9Oae+SDlLJ4g9fZHuZ9fvpj5UqVO+7IsAAggggAACCAxlAX1XsKc+1POVv8n6cyd+bc9+M7jINvIO7Ft+JHfNu1jwTvNw4J4fL94jBzJ4J3lxZ3+pM/JO2vIyS6LONiRryMlUpMu3Zu+RGaG6Fbxzz6tu8E6nA5UZP+yPBmU2FplNR/59oIN37jnb1zbBu6F8pyt5bqnO8JyOfjmkrokmgTM7oCAd/b+56Vbzve+dWwT2uhG8KzvNn+Q/5SDb5ARGQtvov5eZUlKLMrcMOhW8S61hpvnMMXSrZ84+Kfc6adQpl9ClpvkJrTkn++UE72Ij00LHTlmljp1T53S9PgnI/9u/HWim7LR9OztyXhddfFk7sNd08C61dqZmJBW8q2Jb8tZaenMJHG243urt0Sg6iktHfUiCqY5DX2DAzkiZQIUu/Kv7y0ijdyw1pggwdCJ419SUbznBOzmno1vTJMTO0dfZHPo3mZpPpxeUcrv+trnmkSf/1Fo0+Zn2V2vaKPTlzxfgczvHtSPZTkcboFpGuii0bCNl/c0zLylGjki9mrDWqn2m1CxdQf+xQxPTm+YG73z1WTv47SCNa+Wmr9NUyIhUmZ5v89a6bvLCJb8y14TdiR+61nSEjiyYLVMKygtBzgLqkhd7cXN3ChAJgkl9km1yAmtu+frqnVun7H1yjpGzjTjJl5u6cLkcQxfy9i18HkpTAmQfGL9GEXC3v6i082yPQvadb+jf7HxIAO/XrWmJZVpbCYRLQKfMyOWm8j+Q16ceOxa885VdrO7nBO/0eE3fl3Pqi+969p1/6hlctdzYDwEEEEAAAQQQQOD/BHTWBF+QTt4HZZp/96dBP9+Ul2WDd+6HzL6y6VbwLmfmnLoj7/R92Q2YdmLaTC2LnPOqG7zTmat802jK7Dz26EUp49hoOvdvZabNLHPOdl0b0ODd/Q8/af72t//p2H3p7WNHtzpllulY+kMt4VTgIydwZG8TWhMtFVRoYuSdBhBj68KFyi/lIPulziG2zXnnXWSOOvp4E1uXLZS3nDKQfTsVvLPXvIute1hlzTudBjEW1NR1ykKB3zplV6dcQuWl+ZVpL0/9jxO9m8XWvNPgWGxNuNCxc+poTn2KbaP1LDQtaCr9nJGJoTLVNe8kcBhadzK25l0d207e+7UTXebXlvW+9Ccdx0u3nijvn6AAACAASURBVGn2VHChkTWyTyeDd5L+csu8vQhENB28ayIgpGahzlVtuGlgyxe8s8+xSvBOGreHn3Ju0dkvQSL5Wk2nPOxG8E4NdD0xDUTY634dd+Dn24GrMnW6qeCqHDMWvJOXLvn56pldxmWCd7KfXGNzH3i0GJlqL27dZPBORkfK9LIyneBqK7+rmPJS6lkTwTsx0yBxTtDMLdteCt5p3mS6RQ2i6r/VCX5JGrpYfZXgnT0Vz6orLVdMiynTbeoajDl1pan8l7k2Zdsmr089dpngXaru1wne1b0vh4J3dn0heFe2xrE9AggggAACCCDQOQF9r5a+kNAoO/voqSk1c4N3sWCVPeOR/U7r+6gtNpVk7rSZ9pIp9nrhErw84TsXm3evtGzxYWMqL75ScoN96uOur6fbxUbeSfoayLJnsZB/16CgvX+Z86obvNP8uwFdLR/JY9WRd3pubvnr+dlplzlnu7wGNHj3mQNmmRcXvtKxq3zLSRPMATN27lj6Qy3hVOAj1REvHjnb6HE6OfJOO+ZD62Hp1J6S525PmylrAW673UeK6hMKcEog64EHHjS9Nm2m5FkDo6Egm10Hyowu1GBTKKhpBw47EbyrUy6he4EGBEe21kG64fpfmKWWGttvU70e5A/u6DTdP7bGoOwvv4GYNjMVfNMy9Z2b/Ftqf9kmdF+yyys0es4+vrtNHdtO3vul4/OB1nSL9ugUOZ6OUNEvoNzRebKNNASebY0QkfWjJJ0nnnq2HeyTv0vD5Lw51xUjdnxTCMo2kq6OqtPp5XxfrKlBk8G7Sy+91Nxwww1mscUWM9OmTTMTJ06sRR0K3mnnskwfmnOOVYJ3vqkq3Skxc0beSXnommyK4abjqwsxOB2xFgv+hvZ/9NFHzXnnnWeee+65YprM3Xff3YwaNapyOenLldvQ1dGmssbdsQd8NlifJSBWNnhnZ9a2zLkmcqbNDE3P6U5lmZo2M1Q37f2qBO9y6pRtpC8Y9gucO31lTj5896RYxdG6YX+J6dZd35TCbppVgnfy0umuxWdPiZkTvGsq/2UurqavTz12bvAup+7nBO86dV/OqS8E78rUOLZFAAEEEEAAAQQ6L6ABvKK/orUWuPT1uyPuZBtZp1jWoLanzHdzlxu8k/10uQqZtUXXXb/mpruLY8i/yXuq/Do98k7egQ46/qxijTZdx1vWZZZpQ+Xf7NFkdUfe2UG6qR/a2IxZYmTxEbJ8mCqj01LBO91f1mTfcfMNi/XFZY25Bx9b0G//MudVN3in7zOSL1n3XD6uvfv+h4u1uuVXZ+Sduxa4zHQkHwtfc/PdxexHdtplztmuuwTvOn+fGTRHaCJ4ZwdYfB3q2mEuKFWDdzqaKRSYk7SlY3/qR3Y1i1pTVflG38VGRKUcJP2cUU2xbXSUmS9QFRvdlhMclfzFgiI5frFKa5ehOx2k5H3vvfct1jSUX5ngnX1u7kguSffAAw8zzzzzbFGmnQjeSX6rlkvMS4OdEoC76MLv9wng6fF0f9/UkjqK0Tf6Ljb6LKeO5tSn2DbvW39yUR6+cpYymz59r+Lv8mt62kxJU4P0Ehw999wz+6z5Z49olG1996Oqtp26qWvHtG8ovxzTDtJIo0gaGgfvtUuxLpNOjbj+2quZw760a3sKQE1LOkO/0Qp0vPraG+118CS9JRZfzBw+89Otxu8S5uxLrioaGO4iwotee73YRkbGaEe+Th/RVPBORtx997vfNSuvvLLZZ599agWEtHx0ravtPrhB8U8LX11kbrnrfnPr3Q/0GwEVO8cqwTsNwuroNi0fu+GWE7zTct5nt52KqS513UJ3UepYXXCnGtHGZc4UIG5dnzVrVus+/IyZMmWK2WKLLRq5FKQeym/3XbYtXg7kd/nVtxQvRRqY0zzH6nPKU0e16nnrl4r2Wgipa8IXxJAA4E133mekjCT/uh6ABkflOKf+YE6/eufuJ9exez3J/y9bN8UvNqVfTp2yC1YDKfIS/JXPTi3WCJx11o/7TAOaE7zLKUP7uBrAlXva5z72oeJP37/0V30c7W0kb/JTaw36VQneST0Yt/w7zSFf/ETRMaD3Pb035gTvmsp/mYusE9enHD83eOcGdX1131dX9B6157QdzJjWC76sFVml7ofu1TpSNae+5AbvfHkuU1ZsiwACCCCAAAIIIJAvYLcrZS9pl+tPpuaXGVUkMCPvlPLeHPqVCd5JGvqxp6YnwZjtPvj+9kg3+Xdtg/rW5nPfgex8yXuKHQTUv8m7iLzvy8fG+rPXbNN/851vLC8+E9/27jnLcQ7bZ1dz0Amzvfl10y2zf+556brUtknMXj/as/vW5N8kwCu28pOylGDwtbf8vlgiwU67zLSZklaZtHPP2XYd0ODdpVfdbF5rdSR26rdqa6qiTd6/VqeSH3LppoJWOR39gqLBIelQnzJlB7PJJpPMk0/ON7/61XXmoYceMQcftG8xbWTV4J12ymv6S44ZY15auNDIfx9yyH7tcrGDTDJt4UorrlD87ZprbzCPPfaEkf3n/ORCs8oqK/cpy5SDbJwTGIltI9P5Tdv1c0U+ZNq/j0z9cJGH+QueMr/+9U1FwMMXnMwtg1jwLtcvVsE1aCLbSFBqm623MPffP8/cfMvthauU+8UXX14qeCdp2aPQJN2JEzcoRiDKGon6/yXdTgXvqpZLzMoOYonN5ptvapZccoy57robiyCnBL5mn31ukYQvwGXvL+e90cQNi23VW/63b9rKnDqaU59i22jwUPIg19jGk94cKXXrbXcUa91Jvvbf/80GRyeCd3Z5yTEkGL722mu2r3Hxkp/UH1/wrqptrLzr/E07iENzfmunuzYq3EaRdq7rV2huA0IauHt/6sNFx6j87MWI5f/L3yVQsMzbx7a/InMbFm5jVUaYyXpeus6bjFhxG7M5JjLV229/+9vGAkJyTGlwuT+ZjlTXy9K/pc7RnmZT93HLQv7dns7QTVMavDKCTgKHOh2Dz8o9lgaYJJAlP/2C7YKf3dBnWodYXZBy1kWYNf/bTF6/vaZiTvnoNnfccUfrmbmKWXbZZcvsFt1WOvw1GKQbynn+aysYIwEt/bn1Wcpyv913btfnHE8tN22w64tI7jWhI4vskYJuWUv5unkVbwnw2deGbz/3evI17O0Rk766KV6x6zC3TtmF5jsfCfTry1BuPlL3JLei2MFq+Zs4ynp/MhWtTg3j3sfcl1ifhdwb3I8k5N+0XH33Rs2bPXLZHTHqll8T+S9zoXXi+tRnhbys2+fruxZk21Td99UV21sDpJ24L+u5HHv6hUUHj95T7U4etwxj56/ppL5ALlOGbIsAAggggAACCCAQFpB3x7vufai9rvyoVh+bTBupU+Z3yk6CcPqRWaeOkZOutJHntWZqkg9G3WUHcvYvs42cc53jlDHr5nnJu4f8tA+gjElqW0l74SuL+vRjhPYpc84DGrxLnTR/765AKmiV09EvOZYO9RNnfbsI3tg/CVKdccYp5sXW32fsObNy8E7SdEcsyb/51hWTPB/ytSPbI8E0P9Kpf9K3jusXuJO/pxxkm5zASGqbkJMEePbee4bZp/Uf95dbBqnpCHP9YjVQzu/8Cy5uj6ySbSXANmvWseYXP7+qCEiVGXkXqztSXrPP+k/zne+cXaTbqeBdLA+xckldqTpNqwSR7J/6pNZ5lJGk+x9waBGEcq+pE44/ymy22eR+WUjVP9khpz6ltpEA3hmt/+gIO0lXrCRIv9tu09qjQDsRvNPyOvyIY4pgof2TQN4pp5zQutd8ORi8k+2r2KbKu+rfX3/jvyvtKmt3bbje6sF95z2yoGh0+RZzlp1Sf5dtpGHxdGtKhjVXWzE7j29b7K3Z2za9YRXLKueYyrd8wSU/Wfuuzi83b7G6IGn8sTVdhV1Xeq2MJP+yvliormp9HT1q8VqmUudjaeRcEznlmbo2c9LQ688tu9x9Q9vl1il7/6bOp6xvzvZNXWv2+eYcN6ccctLx5X8gr8+c84ptIy/rdvC9anpST59q3UebfrmWjh/5dbrTo+p5sx8CCCCAAAIIIIAAAgggIAIE76gHHROQ4NQ9ranz5De2tdbXhPHrNnos6XR/4oknizTHjVvZG4jTA0rwRIKGOds2msmMxGwn2dwXiMlIpvQmZfxiiUtwpxNlrOmmyrb0iWfu0Ilysc3Ht64H3xp4sezZ+3fimsqk8W6m5dXNOmxnxC6vKnWmF2yvu3VunSLouX23ikxX0enMDjXLTnlRRp2SJV0E6gsM5PVZP/ekgAACCCCAAAIIIIAAAgggUFeA4F1dQfZHAAEEEEAAAQQQQAABBBBAAAEEEEAAAQQQQAABBBBAoCEBgncNQZIMAggggAACCCCAAAIIIIAAAggggAACCCCAAAIIIIAAAnUFCN7VFWR/BBBAAAEEEEAAAQQQQAABBBBAAAEEEEAAAQQQQAABBBoSIHjXECTJIIAAAggggAACCCCAAAIIIIAAAggggAACCCCAAAIIIFBXgOBdXUH2RwABBBBAAAEEEEAAAQQQQAABBBBAAAEEEEAAAQQQQKAhAYJ3DUGSDAIIIIAAAggggAACCCCAAAIIIIAAAggggAACCCCAAAJ1BQje1RVkfwQQQAABBBBAAAEEEEAAAQQQQAABBBBAAAEEEEAAAQQaEiB41xAkySCAAAIIIIAAAggggAACCCCAAAIIIIAAAggggAACCCBQV4DgXV1B9kcAAQQQQAABBBBAAAEEEEAAAQQQQAABBBBAAAEEEECgIQGCdw1BkgwCCCCAAAIIIIAAAggggAACCCCAAAIIIIAAAggggAACdQUI3tUVZH8EEEAAAQQQQAABBBBAAAEEEEAAAQQQQAABBBBAAAEEGhIgeNcQJMkggAACCCCAAAIIIIAAAggggAACCCCAAAIIIIAAAgggUFeA4F1dQfZHAAEEEEAAAQQQQAABBBBAAAEEEEAAAQQQQAABBBBAoCEBgncNQZIMAggggAACCCCAAAIIIIAAAggggAACCCCAAAIIIIAAAnUFCN7VFWR/BBBAAAEEEEAAAQQQQAABBBBAAAEEEEAAAQQQQAABBBoSIHjXECTJIIAAAggggAACCCCAAAIIIIAAAggggAACCCCAAAIIIFBXgOBdXUH2RwABBBBAAAEEEEAAAQQQQAABBBBAAAEEEEAAAQQQQKAhAYJ3DUGSDAIIIIAAAggggAACCCCAAAIIIIAAAggggAACCCCAAAJ1BQje1RVkfwQQQAABBBBAAAEEEEAAAQQQQAABBBBAAAEEEEAAAQQaEiB41xAkySCAAAIIIIAAAggggAACCCCAAAIIIIAAAggggAACCCBQV4DgXV1B9kcAAQQQQAABBBBAAAEEEEAAAQQQQAABBBBAAAEEEECgIQGCdw1BkgwCCCCAAAIIIIAAAggggAACCCCAAAIIIIAAAggggAACdQUI3tUVZH8EEEAAAQQQQAABBBBAAAEEEEAAAQQQQAABBBBAAAEEGhIgeNcQJMkggAACCCCAAAIIIIAAAggggAACCCCAAAIIIIAAAgggUFeA4F1dQfZHAAEEEEAAAQQQQAABBBBAAAEEEEAAAQQQQAABBBBAoCEBgncNQZIMAggggAACCCCAAAIIIIAAAggggAACCCCAAAIIIIAAAnUFCN7VFWR/BBBAAAEEEEAAAQQQQAABBBBAAAEEEEAAAQQQQAABBBoSIHjXECTJIIAAAggggAACCCCAAAIIIIAAAggggAACCCCAAAIIIFBXgOBdXUH2RwABBBBAAAEEEEAAAQQQQAABBBBAAAEEEEAAAQQQQKAhAYJ3DUGSDAIIIIAAAggggAACCCCAAAIIIIAAAggggAACCCCAAAJ1BQje1RVkfwQQQAABBBBAAAEEEEAAAQQQQAABBBBAAAEEEEAAAQQaEiB41xAkySCAAAIIIIAAAggggAACCCCAAAIIIIAAAggggAACCCBQV4DgXV1B9kcAAQQQQAABBBBAAAEEEEAAAQQQQAABBBBAAAEEEECgIYERF//40r83lBbJIIAAAggggAACCCCAAAIIIIAAAggggAACCCCAAAIIIIBADYERP/3Zzwje1QBkVwQQQAABBBBAAAEEEEAAAQQQQAABBBBAAAEEEEAAAQSaEhhx1a+uIXjXlCbpIIAAAggggAACCCCAAAIIIIAAAggggAACCCCAAAIIIFBDYMRvbrqJ4F0NQHZFAAEEEEAAAQQQQAABBBBAAAEEEEAAAQQQQAABBBBAoCmBEXf89k6Cd01pkg4CCCCAAAIIIIAAAggggAACCCCAAAIIIIAAAggggAACNQRG3Hvf/QTvagCyKwIIIIAAAggggAACCCCAAAIIIIAAAggggAACCCCAAAJNCYz440MPE7xrSpN0EEAAAQQQQAABBBBAAAEEEEAAAQQQQAABBBBAAAEEEKghMOKJ+QsI3tUAZFcEEEAAAQQQQAABBBBAAAEEEEAAAQQQQAABBBBAAAEEmhIY8fQzzxK8a0qTdBBAAAEEEEAAAQQQQAABBBBAAAEEEEAAAQQQQAABBBCoITDiuT+/QPCuBiC7IoAAAggggAACCCCAAAIIIIAAAggggAACCCCAAAIIINCUwIi/vPgSwbumNEkHAQQQQAABBBBAAAEEEEAAAQQQQAABBBBAAAEEEEAAgRoCI156+RWCdzUA2RUBBBBAAAEEEEAAAQQQQAABBBBAAAEEEEAAAQQQQACBpgRGvPzqIoJ3TWmSDgIIIIAAAggggAACCCCAAAIIIIAAAggggAACCCCAAAI1BEa8sug1gnc1ANkVAQQQQAABBBBAAAEEEEAAAQQQQAABBBBAAAEEEEAAgaYERrz62usE75rSJB0EEEAAAQQQQAABBBBAAAEEEEAAAQQQQAABBBBAAAEEaggQvKuBx64IIIAAAggggAACCCCAAAIIIIAAAggggAACCCCAAAIINCkwYtHrbzDyrklR0kIAAQQQQAABBBBAAAEEEEAAAQQQQAABBBBAAAEEEECgogDBu4pw7IYAAggggAACCCCAAAIIIIAAAggggAACCCCAAAIIIIBA0wIE75oWJT0EEEAAAQQQQAABBBBAAAEEEEAAAQQQQAABBBBAAAEEKgqMeO2N/2bazIp47IYAAggggAACCCCAAAIIIIAAAggggAACCCCAAAIIIIBAkwIE75rUJC0EEEAAAQQQQAABBBBAAAEEEEAAAQQQQAABBBBAAAEEaggQvKuBx64IIIAAAggggAACCCCAAAIIIIAAAggggAACCCCAAAIINClA8K5JTdJCAAEEEEAAAQQQQAABBBBAAAEEEEAAAQQQQAABBBBAoIYAwbsaeOyKAAIIIIAAAggggAACCCCAAAIIIIAAAggggAACCCCAQJMCBO+a1CQtBBBAAAEEEEAAAQQQQAABBBBAAAEEEEAAAQQQQAABBGoIELyrgceuCCCAAAIIIIAAAggggAACCCCAAAIIIIAAAggggAACCDQpQPCuSU3SQgABBBBAAAEEEEAAAQQQQAABBBBAAAEEEEAAAQQQQKCGAMG7GnjsigACCCCAAAIIIIAAAggggAACCCCAAAIIIIAAAggggECTAgTvmtQkLQQQQAABBBBAAAEEEEAAAQQQQAABBBBAAAEEEEAAAQRqCBC8q4HHrggggAACCCCAAAIIIIAAAggggAACCCCAAAIIIIAAAgg0KUDwrklN0kIAAQQQQAABBBBAAAEEEEAAAQQQQAABBBBAAAEEEECghgDBuxp47IoAAggggAACCCCAAAIIIIAAAggggAACCCCAAAIIIIBAkwIE75rUJC0EEEAAAQQQQAABBBBAAAEEEEAAAQQQQAABBBBAAAEEaggQvKuBx64IIIAAAggggAACCCCAAAIIIIAAAggggAACCCCAAAIINClA8K5JTdJCAAEEEEAAAQQQQAABBBBAAAEEEEAAAQQQQAABBBBAoIYAwbsaeOyKAAIIIIAAAggggAACCCCAAAIIIIAAAggggAACCCCAQJMCBO+a1CQtBBBAAAEEEEAAAQQQQAABBBBAAAEEEEAAAQQQQAABBGoIDOvg3RXX3WEenf+MmTl9Sg1CdkUAAQQQQAABBBBAYPgKvPTyInPMaeebGdN2MGuutuKAQkheTpp9qfnUv2w54HkZUAgOjgACCCCAAAIIIIAAAgggMKgFhm3wTgJ337vkKrP8skubr31xmlnxXe8Y1AVJ5hFAAAEE+gqcdu7PzCbrr2U2HL86ND0kcP3t95jTvj/HbPS+Nc3BX9ilh3L2Zla+ctTp5ulnXzDfPnzvYdM2uPOeh8wtdz/Ax0w9VxsHT4a0Xb342xYz/3X0TLPk6JEDknkJ3B32rXOKa3jahzcz03bafEDyMZgOKs/K62/9vdl9l+3MTltN7ErWpZzOOP8Ks9vUrYbNfbYrsBwEgR4QuOiKX5tRS4zs2v2kB06ZLCCAAAIIIIAAAh0TGJbBOztwd+wBn+96B4O8JN/6u/vNnp/cwWy50fiOFS4JIzCUBeQ6vuG2uWaLSRN4OWygoA8+frYZt+JyPdV5XydP3/zuJeb238/r2QBRA0U2aJPQspn5uak99wxc8Kc/m69+44ziw55Tj9xn0BqXzTjXS1mxwbG9Pie7NRpOgsAnf+8y8/axo03V9rW0kZ9Y8EylEXx24K6bgajBURvCudzz0G+bv770sjn7hP278k7UZDlJHb/gp9ebbSa/rwg+9vqPd8DeKaF5jywwsy+6sufavk0J1bmX1slDk9d3nXywLwIIIIAAAgggMFQEei54Jx1nV/3mTvP4gufMq4teKxrU6625SmMdfNJQly9y13vvu83+Mz7WlZdUt7J8Zv8TzWuvv1EEHAbDi+ZQqeycx9ASkJGz0mnDddRMue7y5WPNaiu/y3zzazOaSbCBVKrmSetGLACjz5r7H3qyyOnaq69sJm+wbnKKNRk19ugTT5vtPrhhv9ECclz5jRq5ePZoD91n2Xe8vatBaB1pJZ3kS7Tyu07r/DfdcN2sERA65bTsu8zSY826a6xiNpu4XvbzVJ+BoY7iqmXjaz+sutJypVzla/GLfn6j2XLj93kD2dIpdeMdfyim3Fa7VVZ8p7c+uJdAnfO66c57zWMLnjXPv/BiYf7uFZc1O2wxMWiux4pdhnYdtjvbunlPDeVz1XHLm+WXWTp5PTZwmxnSSei98NC9d+3aCGRpZ3+jNX1m1QCefLTxyJN/Mm6e5Z41etTIaJ3492+fZx56/Klh/3GcXM8/vvJGk/Nc0fei2PNSn3v283LCmqtVrlNaxqH7bJmLUsr8Dw8+1nPtl9A58A5YpnT928pzo+wz0ZeS3FOOO+PCQVN3ysqF7qVl06myvT4HpL+jm8+fKnllHwQQQAABBBBAoNcFeiZ4Jy+aP7jsmmLaFt9PXipnTp9aqyNH1+OQjq9OTdWlDeVL/vOwYNnLy8LceY+Yj++wWXZnZ69XJPKHQLcFejl4VzXo1G1D+3i9mOcqedKOSJm67YSD9/AGo3SKMJ+3rzNRAzYy0lM6leXn64yQ/Oovp7NCR4HLPt0KnOpzUM/DNhAzWSMqNG2a2J545iXFCA33t9SSo81Be+2SfEbrlJnyAc2/f3W3fumULRtNILZfbt4kLZ0yU0YNuet2xc5f9o0Fvaqel44qkQ4w9yflFRrBr0HI2D3FraPSIXrIN88uPi7ynX8n7k/aeRpKW8ruMztv3dgHXJ04h15OcyCCd+KhweAN1n1P6Y/UfB3Odn0O1U25t5z1oyvN4TM/nbwP5bTVe7lcQ3mTe9TVN/2umN1DruOc54rem3xTjMaeF5KHKh9Calk2NbpZPwDI+fimF8o09Q5Ypd3TC+fVrTxUfSb68kfwrrOlpu09eY6fdNgX6PPoLDepI4AAAggggMAQFuiZ4J2+SGvnoX7FLw2/H//iN8XaFU2soyEvop1ch2OodggM4WuAUxukAgTvmi24XuwwqpInvQeH1jrSemM/a0RSRlNddtXNRWDKDeDZAQbZL/QlsR28y+k01anK5Pg52zdR4uojHacf3/GDRVBEOz+vufn3xbn5prO0AzuS11132qIYdSH/ft6c64opSqWD5qzjvhrNZmxtpSplIwez19qS4OP6a69WBG2lI1umU5NRGTntB2kf7HHISd7zsM9fOqzlOBrc06CB2PnqXdXz0o4vOUcJDOpIOcnnlTfcUYwQlJ8vmKHHlHUFt9lkfW+ZrLHqiv3aQ7pft+qjXltSHz//sW3b+fzT838xd8x9sCg7+fXq+ohNXJOdTGOggndyTlXb277gnXsthGatyD3mUG2r2+9SucG72Bqf+jf7eSFlK/fW086dU7ybhT7E8NVrKZ8vHXFaVz8Q6OT11Ym0q7R7OpGPXkyzzjPRdz4E7zpfynpP6uaI/s6fFUdAAAEEEEAAAQS6K9ATwTv9CjPUuWZP59TrHThDtUOgu9WSoyGQFiB4lzYqs0UvdhiVzZOOugsFkXQ9M3HxBTzsAM23D9+7PWpP0r35rnuLaTVlfRTflG6Spgbv5PgSBLTTcMvCDjjldrKWKU/ftnrM0FfQ9lfSbhBO10QLddRqIDK1jl1obaWqZSPnqR3ModGOqYCuWqmPb/SltlNCQS3tBHTrXp3z0ungQp1edoDOnU2g6v2x253rqc5TXUONqcarXf0DGbyrlmNjQlO9aeA/dY/JOe5QbavLfWrUEiPNqFGLm9O+Pyf5UUhsjU97FPt/HT2zX6DfvlfEnnV2eeh9tNff5XLqUKe2Kdvu6VQ+ejHdOs9E3/mknj+9aFAmTwM5babmU42lj+eHJx1UJvtsiwACCCCAAAIIIPAPgZ4I3mlnXmxxebtjzJ16QRqn8pO1mnQhcPn/++2+c3s9Bl3/4aY7729P+WWPHvDVCOnIvP6Wue0vv2Ub+fp0h80/0G9azLuHvQAAIABJREFUMV0U+qnWV6jaEatpyrp9M6dPaR8itYC0jmSY+8CjRVp6XB0l4eZVF9zeYtKEYt0hmX5Up8yRxvKEtVY1e396p1IjDqUTU6aI+3pr+qG77nuoPfpRji2dt/+y9aTgWhdlrfVYkv/VV1nB+zWvL005N9neHgHh2ki9+em1t/UpQ3fUhL1PHUs9jxnTdjCjl1jcnHnhle3jSofuphuuHZ0+ys2rnN82k99XanrVsvmXjj37mojZiJOvHFLnlnt9Sr29+76H29en1t3dpm7lnfow1TndhKecs68OyX3ANx2YnqsEdyT/K7S205/Ub3s6Qp0quMw5161j9igpyZeU3XYffH+xPlusw0jq1U9+dYux70la7qHpf+37nKxBpKPa3JFJVfPku2dr525oHZ2cjsNUGrHOEA3eybNM6mesg1Kfe1InpFy7MdJJO75iz1oNhNkd5NrBGxu9pmsixdZB0s5g37nWKRu5RuUnIwF9P71XpNZXUh9fEDDn/LT87Wmz65yX7PtKa+1f3/qKem8Krdej51Il0JG6BrzIFf8xp/PUHvkaChLINXTlr39bjATSe9vO2032TgFb5j4q9+kzzr+ife/LaVOVaTsqm9xXtK0o5X7Vb37XfhamnsuShpyT3mO1nbbXrjsUa0jL30KBbV97U+5boeduqJirPCNCabn3WHukaejjgdznfZm2uuRPyuLG397brlepNrC2wWRksqzPpyN/Zb/Q+4PtUKYexy65nOtKz09G8Po+ENCPVmLr5pUNDvieL77zsGddcdsq7vb2O4RvyuecNqik6baHdTSw77mi9Si0RnAsT6F3wDLtxyauQzlfWcPQbZvaaes2Hxi/Rp91fKvcN+yR8HIMuZdu/P61zWd33ib7/bTOM9FnZl8nX/38R2u/t+n9IfReaj973Gm5ZV+9f7j9Bpp393lk3+tltgH3l7o+y95vyrwP2XnJve5j9zT+hgACCCCAAAIIDGeBAQ/e2V92pr7ICk2Hox1m0jFnr5mnnRX2yD3tdH9l0RvtAJevU8NeX0M6Mt659JJFPdFAh9sJKA3gZ//8l/bf7RdI98U31pi2F3iWvK68/DvNq4teN9L5LYE8X2ewvnzIMeVFTAIH0jkqPw0mSloy0iR3ylC7s1NMpaN+6bGjzaJWHrRzzNcBXMXaHj1gBwfsDl5t+Es+1l/nPWbUyMXM4wuea0+H5lvjxF1PSl6GnljwTHvNKl/+61jqeUhnqay7Ij8N3uj6UqHOfHsUjgRbpb7ZZRnqIHBvXmXyLx2SMtWd1pUXXny56CwMrRVml62Uw0rvWsYsMfJt5sFHFxT7hepYzvW5/7HfLdLQgJCc13MvvFTkL5SfWPCuKU97ih7pNFxlxXe2OtPfaAcZ3fKUPMlPjm+fi/ybHdQQyzrnXKWO2fcW93rWe6cvqKL3aDkH+fvaq69cnKPWz9C6NXqfc+/Ldidh1TyFHtoaEAutiaR5igU09HxT5xVb806CN5oXX7BB66d+QBIKwDTdONFr8ewT9g8+C/TZZz/jcgJQOXmNra3URNmE8hA7ru6jU2ZW/Tpc95f07OBdJ89L70++6zbVaRcrr9QI1pyyzt0mN8igwUjftKQ6KtRuH2hbzReUyH1Wy0dPh33rHPOX1rNRn+V2m+rUI/fpd5pl246agH48IfdXuT/I/Wdkq3Pbfi6H1nLT89d7tLb9iudOqz0hz1Hf/cq+/+rzzX7u+kZb+cq16jMiVEdC02b+Yd7jfT6E0/3LPO/LtNW1zmmQQdqd9ruD7zmi9VnaBtKelV9uO7BsPY5dY7nXVWyNz5xrODXq2U7D/ggk9r4Xqs+hd6DUh1w5bVC5znV5Bre8fO8KqZGbsTyF7s257cdQuZS9DvX5EVt78DP7n1i8e7ozEXzjtPOLf8+9b9jvY+69rez7aaxexp6Jvv3saZvlPl/meq3yjpkaCR27bmPtZblH+Z4PsXZA2ftN2fch27upNmTOPYltEEAAAQQQQACBoSgw4MG71FRUOej6YiaNV3e0nQSrtIHqBty0ISz7uVOE6QuL+9Jmd7r7OmVTL3RyPrHGdGgUoh04cTsM7FGJIxdfzHzti9PaI5Xs/crMN68vGJJft7PMbsC7BlWs7WNJh4eOEtRgbWzBa315cr/GtjsJ3BcaLXc5txMO3qPPqK46lnoe0oH43tZaQvZoR/uly+1Es/Pq5kc9YyNl7GskN//iJQFh10aP5wsy5vzNN7IldX3qPcA31WHshS/UOdKkp3ZM+TqMY4Gi1LRHdc+5bB2TOqL5dcvWnpbOFwTQDkxfnYiN5NL7nHsPsT/CqJqn0HPBN/LJ3lbv67HglWwfSydn5J0Eb/Te5HOz05DjdSN4lwpKqpOv88h3H5Lr7E/P/aXYLTTizS2n2NpKTZSNr17YHfuxYIQ+Z6pO56ZGbkdop87Lfrb77rv2VKHiIiP45EMiGa3u++LftUtdSzlts5xtcoMMdsDb/pjF/neZKUA/ULJ93HZK7rNanpN//utLfT58stP1PZerth3FW+7r0iFut2PFUOuW7/5s12/7ea4jNCRwJz9f8C401W3s3uUr06rPiFD9KBN4rvq8T7XV7UCIW39iwW17lKjdnpVzlf1OPPOS4kMlt+5Uqcex6yvnuoqt8Zlz7drBi9QzVdLLyZPeh91gROy6yw3ehd4R9eMON4hkt9vdOpCqP1WCd2qeaj+GyqbKdRhrx4buuWXvG/Z05G69j71X5NRBe5vUM9GXXux6lXwf/52LiqCu+/5c9R2zTvBO209uG0XLyfcOFbqXVrnfVH0fyr32y5Y32yOAAAIIIIAAAsNJYMCDd6mXrpzCsKcqc6dM0QZ2aA2k0Boa+gWkvGi4v9i6G6kXOkkrpzHtG2llfyFof/Ftv3z4Omhia1qEfLVcQlO5+dbaqWOtI5XcIKrkL/QCGasb+kKYWivI7fSsY6kmoanl9DzcY8YCdNq5Evsy1nbIzb/s47MJjR5JTZtnr33iduLErk99qZs775E+I9P0nGLnH7p3NOmpnRShKcdCdTDV+SLlVOecy9ax1DUUu951pIJv6j7taIsFD1KjTVP3mNzpJEP3R7uMcgMSTQTv5Li+0XduB2ZOh2bOczC1Te5xfNvZzyyZCk7X/dNj6hS/vuelbpN6DjVRNvq8kCmf5aejlnKmAdT7RtlpJuW87CmS3XtFU+fl3ufPufTq9kgRX1BSj+urF9Ie+szOW5stNxofrDZlRtSk6l7s72XrpduWi41wDd2fcp/Vku/QFKqh9cSqth21vEJtltBakbFnlP1cds8jFaDT8s8JylR9RoTqRZngXdXnfaqtLte1TDkamjIy5KP1OfSMtj+wstu7Vepx3esq1CZNXc86fbrsH2pL+tLImb44dt+R6/nn197enl5Wj5F6j4y1Qe0R1777aGhqyVT9GYjgXZXrMFYmvo+zqtw39J059M4hox5llHHuDCO+uiXXVeqZGNpPPp4qe71WfcesGrxLjSiUsnq19YGOLNtgf5wTupdWud9UfR8S99C7Zepew98RQAABBBBAAAEE3hQYUsE7XyeDvmiEOkS0QVxlVJpvn9QLnaCHGtM5o6z0q257Wq5QZ4BdyXM7EHNfhn1TjFW1Tr3Q2x1QYh5aY8s+39iLiWwXWnupjqUvoGnnKdRJqXm1y9TeTzszQn/3HSMUrJZttS6E1g7S+mn/PfXCLumG1ovKmaovdkMO1d1Q50iTnnqM2NonvryngnepB1DqnEMBsVAdS611FluLLJbXWMd7arrApvOUEwTIvQ82Fbzz3RPc+39Ovu0ysEc02v+eCnLmHicWvLOna5W1atxp5GKj1nS0qW8Uq31fSt3nUmVoj+RWn5xglTxb5ZeavlvTlHuiBAl1SmTp/Nvzkzv0C4il8qvppbbTdb/stdDkvjRz+tSskXT63Lv5rnvNNTf/vhjhFfsoITeAYn8w4t4rcj56KFsv5RhaRzQgHKr72k5x/577rE49R2N/9903Yx36uc9l2zRnetPQc1nbm6Ey0g73nDKs+owI7Zdb92T/qs/7nLZ67LxCecypz+5UlVXrcV13rRuhaabd9OXcrrnl7mIaVv019e4k6aU+AAydb27wLvaOWHbEdar+DETwrkp9CE1lGppGusp9I/U+lmoPh/7exDOxyvVq33dC71GhNnXV4F1O/4DPyXefqnq/qfo+lNvGqVoP2A8BBBBAAAEEEBgOAj0TvCv74mQXTqzTy54eSdZsc3+6hpvvBVRHx8jaTvKTtUjkK9xH5z9TrK3XdPAup8NCt7FftnNePlIdg65L6mVYtnfTrGqdcyx7uiE5tkxnNXHCe81mE9fzrt2Uc76yjbu+UR3L1HmE0ta86tpzblnoGjupTm3Zr07+9bi+epg6N9lXt3E753PKQl/CH1vwrHn+hRfNMkuPLdb9m7zBusWaQ/Jzzz+UpyY95bjaiSn/W9dU2nbT90c7zHOCd02es5ZdqPxz7i2xPOsoBFlnUr7ulfUjl22Vz6glRhblXmXNrbp5cq+TnGkhc+qi795mHyt32kzZx/7wQDp5ZJpJd4rMnGvWPr7UR1m70/1JmcycPqXfv6fqhrtDLHjnm0ZQ9o9NC6zpp9ZWaqJsfCdvf5Gf+ojHnX7Zl57Udw1+6T1h0w3XDn5UUve83OkP5ZgStNth8w8UbZAqv9B003ZaqfLSbaXsZSSm7+eOAgiVT860sb56aY9y0nWq3GPoGsD2qI7U8yznmoyVa5W2Y6qe+O47OfkMdRZrerr+lOumo1Zzg3dVnhGhupvzbNB9qz7vU8EXTV+uFWnzyz13iZGLF+verjpu+WIEmNQt1yenTEIfcEh7tEw9jl37qXyUWeNTPnL84WXXFtN9yk/yKWsp7jZ1qz7TzqfuRb71VO19UnkOpZ+6nnPeEcsEISUfqfozUMG7KtehBnHtUeehsqpy30jd21L1xv17k8/EnDrnux/lnJPvHbNq8K7MPdH2ij03qtxvqrwPSX7K3G/K1ge2RwABBBBAAAEEhoPAgAfvtOGcOy2gr1ByXsykc1mCb6HfhDVX67Nuj37lpi+pEkiQjuv5f3q+/QI7kME7u8Mg5+Uj50XDtkm9DMu2oeBdWeucY2nepBPh9rvnmbkPPFqMHJCfu66IL2+59aaOZeo8UsG7VEdsbEo6Pb86+dc06gbv3OsiVffsjn+5D2yw7nta6zO9UXSW6agWyVvZ4F0TnmoiHSI33XmvufG39xZT1ckvNponFbxr+pxT5Z/z4h/Ks72ujQQ3pPPyuRdeMk8+/VzboheCdznXfU5AItXJUCZ4J3myR/lIYFrqtL3uS84120RjJHVe9j1WpgS0A1naYROr86mpsfY45KTimvFNjSzHbqJsQk76pbn83Tf6QvMeW1vUXk9H0hGfLTeZEJ16su552fcJbYt85EObZI+0i9Wb1H059fcm6qSkkVv/tTPZrpe6r9QrCaCGfu7Uh1Wf1Xb6IZ+qbceUd6eCd9J+kvZt6OebLtndtuozInTMnOeV7qtuZZ/3qeCLfb3rRzsy0lg+5tMPqiQPTQbvytbj2DWYuq5y1/jU+izH0o8GQh/Npe4JqTyl/h5KP3U957wjDoXgXdXr0FcXQuvT6nVT5r6Rurel6o3996afiTl1rk7wTvJuv7v0UvCu6v2m7PtQmed8mbrAtggggAACCCCAwHASGPDgnT0PemptDX0BcKepiL0YpKZy9BW2vfjzSYd9od/IrpwvKmOjpEIdE76vH938+dY9yXn5KPvylHoZlny5aVaxlnRyjuUrJ13/wvdlvU4vGqpTofWX6limziOUdmrapzI3pDr51+P46mfqi2nZN7RmVKru6fmXnU4v5N2kp89ev2yOTT2XCt41fc6az1D5p+4toWl07KCHb2qtWH1LdcBWzVPsekgFgHKmHkqtLVI2eGePvpO8uwGsnGu2zD0gtm3O9FW+IJzdKRgaiaPXoy+Qm7O2UtWy0ekrt5g0IToSLbaWUmg9MdvSnjLqa1+clj3ipOp5ybHtjtK9P72Td5S5r7ylTslvw/GrB6tDauSYjIar81FVbp3Nrf9aRnaANTX9VygPVZ/Vdno+vzptx9Rz0nffyRltHJrmLjX9XW751XlGhI6RenbY+1V93qeCd+oTGo0bymNOfXb3rVqPY2WUykfOGp/2yNb9dt85ej/JqS+pD0g6PW2m770sZ0p437ml6o/+PfaRZ+hZmmo/htqlX/3GGcWfyrbVZB/7GSgfqMmMF75neZX7Rk67I6f+1HkmhtJPXSf2Me3yqvqOmQrehdpROe2IWD21897k/SbnfUjypeflWx87t+zZDgEEEEAAAQQQGM4CAx68E/zUws+yjf0S6a5JE+v0CAVptNB1eiN75F2qYyeW39QLXehFQP5dAyShKURDL7Y5Lx+pjiH3IrBHixz8hV36XSO+abeqWNuN+tCXr7oIe2itO19QN7WeVuiFvY5lqt6E0k51oki68hvIkXc5a+uEXtBTdS/n+pXzzx1515SnvpTKFFlbbjS+3zUQu0ZSnS9Nn7N9P/NNQZe6t+j14HbWpK6H0H6x+5zmtWqeYg9sDTyFOghi+dV09R4eGoVVNnhn3+P0OrZHiaSMm2ygpJ617jSfK77rHcXh7X+3p9ay8xYbeZeztlLVstFgayzQZH8k5HZs6r0tNWWmlntojZtQOVU9L0lP7hNl11WT/UKjJjSPqQB16jpqsk7m1H+ttz6LWOBV7+HdGnmXagPErr/UczJ039FO5FC9VB83UJAKqGu7KzXyLlV+OfXfrU9lgndVn/eptnoqDyFXezSob5RxaI2xKvU4dh2myiVnjU+tz7ERyWXvBXpvCj1HYoGe0Dmlrruc9lboPhtKO/Y8sAPa3Qrepco7dR3aZa1LQ/jKvcp9IxV4St377DpW9ZkYqqdVr9eq75ipa0rrv9sWTwWZQ/er0L+Xvd/UeR+y2ySh677sfYTtEUAAAQQQQACB4SbQE8E7aRQe8s2zi2kQfS8L8vfjv3NRMUWbr1M21fCPvYTr33xz/fs687SjTypK7KUstgB8KD92B6m7v/ztmNPOL6Zcc4+bemnTTkD575x102Q7fcGQ/+3r7PxGKy9SXm6HUFlr+1ih4J2++PlGZoWmQ7NfyNzRk3Z9qzLlUai+pToQQuUUKz/9W+4IiCbqQuol0FcO2tnr+1I3dX1q56PvmtEXZF/dDXk35WkHy30jcLVehu5J7nqK9sOl6XPWtEPnbt9b3HusfT245WcHbV0DSXP/Y79bTCNcZdrMqnmKPaTtjtH/Onqmd6SSdlr4yk07SKTsQvtXCd7puUq6boduzjXbVMPEvl/6OlG0TvvK0x55JtfqkqNHtrMVW/NOA2c5QaiqZaP7pZ4hvjzkTJlZ5Rlql1mV86pTL/ScfB8C2detr70VCuA2VQfddGLnKfX1zAuvNH948LFina3DZ36635Shsedu6Gv/qs9qO+++55pvak/dJ9V2TD0nQ/ed2HVpr0/ktnW0nCV/7r3OrgOpGTHqPCNCdSoVOLP3q/q812OE2ura9vC1d7ScJR+hNqT8zd3XnorTvVdVqcexazLmkjtlZplyyL0/pIJIaittXvc5U/V6Tl1bWta++6XvHVHONRSIlzI+afal5qHHnyrekaoG72LtR5913evQHo0l611K3t0PZeW4Ve4bmjffPbzMO06dZ2Kofmqa8ne3/HPeu6VNUeYdM1b/pX7rjB5uGyz23I7dr1PPDV/99F1ndd6HUgHS3HsH2yGAAAIIIIAAAsNZoCeCd1IA9rRc9pppsraSrm/me5mTfVMvZto5Ldtu/P61zSbrr2UWLlrUXnDe10j+0hGnFS8v0sEr28tv7rxHioa1LNR+++/neV/K7Ckvdt1pi+I4f5j3uJk5fUq7nsVeiO3OY8mrrLEhv5vuvL/oJPcFcXJeaFJG7kWg5yEvW+Kg6xvIWmS3/u7+9r+5o/LKWstxUx1pdnDBLo+Hn3jKzLnmtnY52caSrv21vq6HY+ff13lfxzJ1HrG07eCXTP/2rmXe3q5vviBp6kXU1/mu+6TqQqh+2h309noXsgaMBJWlrpxw8B79ppNLHc/ufNxh8w8U567X5xIjF293guSOvJPzbMpT09G1XjRv198yt92h7DtnNdT6+qfn/2JeeXWRmbbT5kUxdOKcJd1YHbPvse71vEKro8w3/aykqeeia3yNGTnSyPlcdtXN5r2rrljcC6sE79z7fpk8xR7asemqZD/feoPy71qP5X+HprOyPXzbpOq6L98595zY+Zb9m29dHPsZEwtc2ut56fNJntFSB+Tn6/zM7SiuUzZ2mdrrU7nn5Qv+pEapufdNqeup3ze/NqPPJlXqnNYLKQ+5PmO/cSsu16eNEVqvy25PhZ4RqVH3qXMv+/fYeeqap1KmB+21S3CtPy1DqX8brb+mkXvUNbfcXdRLX32u86x264P9XLI7Ucu2HVP3jthHXzLFnXzcZq9hpPczKWdx9N2v9NqU/bb74PvNe8at0L63S3szdx2wqs+IUF0pGzSq8rxPtdXtejl1m0mFjfykXj346AKz9NjRXld7P2m72e8zdjveDUxJ2mXrcexay2lvpkbUaTlI+2dk6z4U+82YtkPWWpz2NRJ6zvra7rLmuAbx3TZX6npOXVv2/dIur7vufbi4rnzvXe5HT7qmupSx/NZf5z3m+lt/Xyl4l2o/pq6bsm01Tc/+WC42vWGV+4bv3Vbex8RIfjkjsuo8E0Nmmqacr+SlzPVa5R3Tvs5992sJ+F/08xu9berQO5gG/HxlFruXlr3f1H0fSt1vyrYd2B4BBBBAAAEEEBhOAj0TvBN0aURfeMUNxQux/ZPOl20mv8+kpk2MjSqTF61vn3N5v7Sls8e3low0kk8885IiYKY/yceen9yh6BiSqel8HRv2l3r2fvYXjKmOCXkx+uFl1/Y5tqQVymtO52/q5dWt9PaXd8+/8GLx0myfj5RHaBrHstapF285rpTH7IuuDNaNUF7sLxlz8l/HMnUeqbTli2MNRmpe5eXuMztv7Z220XejSh1D9knVhVj9DJWDvPCGOm9Sx5M82SME9LykA2L/GR9rjzgtE7yTNJrwlHR8dUj+PXbOvvuHO5K3E+ecKn/fvUXO4+utES3SASwddG7gwXdPk/PX+19oitDUfU7LuUqefHVf/83+gMAXWI3dT2JlqulXGXkXy2+qzGL7Vv1b2WeMfZyy99TUtHbuOVS5x0gaUu7nzbmuHUi00w2Va2qqZzsNvY/lmPvaImXPyx4RkDqmLxAn1+0Z51/Rz0PbU75npj1CInTtpPJS9u+h89SgpXzMstnE9aLr/cm5/uCya9odwZqHULnXfVbHnqNV246p52TsvuMra/H71L9saUaNWtyc9v05wQ8SxP/0Vj1x27qxNp5bxlWfEaG6kvvssPcv+7zPaatLwOGCn15ffCCmPwnkzJw+1dx8173FR4ex2RskoCPb2L9QO162KVuPqz5Xctb4lLS1HHKu6dgHL+7+OVMd+9pHVa/n1LWl9jq7SW55+a4dzaPWjyoj73Laj74yqXsdarlI2qnpoavcN3zXU5l3nLrPRJ+ZpinB9Keff8Gc9aMr+1zvsetV0ivbHtK2itsfoQ7avxD6uCb0fAndr1PPjTLPzdD5yr+Hrk17JO2pR+6TcythGwQQQAABBBBAAAGPQE8F7zR/0qH2p+f+Uvzf0aNGZn3NmVu6dtprtEaN2FN/+dKQhvLLrywq/rTh+NVzD1MEm2S/Ovm3j52T1+zMZWzodm7ZbrkOZa0zslV00GrdKFMm8oKmv9z85+SnE9toXuvUnU7ky07TLod3vfPt/UbbVTm+dDz8sfVFu/yaSlPSasrTrkO5+dN9Qtt36pxT/npvyT0PSa8T17Odzyp5Cp1nbOqtTtfjlH0v/b3OMyb3npqztpLPpM49xs5b7Nmp9cQ3NV6nyqnOeVXJk32PiT0z7dEn3fSock6hfQbqfurLT9W2Yx0P+/zLtnOayG+nnxE5NmWf9zlt9TJpuh9j2GWS247vZD3OXeMzx7rONrGpKjXdTjqE8l6lDus+ZdpTOXap9mOT55CTn6buc2Wup6r5qrNfFffc9pCdL63fVd71mrhf17nOct6H7JGCsaVE6pQV+yKAAAIIIIAAAsNFoCeDd8MFv5fPM/Vlei/nnbwhgAACsfXb0OmOgI42kxEoodHR3cmJ/ygyuuOJBc+Yr37+o418gDCQ51L32PYUWu502HXTZn8EhovAQIykLmMro59uuG2u+fDWG2XP6FAm/dxtY+v/5abBdggg0JsC9rSyTJfZm2VErhBAAAEEEEBgcAkQvBtc5dW13BK86xo1B0IAgQ4JSHBm203f3+jo7Q5llWQRGFABCbRefdPv+qydN6AZ4uAIDEKBXg/e9RKpTvfqW7qgl/JJXhBAoLyAThksU8fyQwABBBBAAAEEEKgnQPCunt+Q3Zvg3ZAtWk4MAQQQQAABBBBAoGEBgncNg5IcAggggAACCCCAAAIIIDDMBQjeDfMKEDp9gndUDAQQQAABBBBAAAEE8gQI3uU5sRUCCCCAAAIIIIAAAggggECeAMG7PKdht5Wui7HFpAmGKS+GXfFzwggggAACCCCAAAIlBHSdz3ErLscUtCXc2BQBBBBAAAEEEEAAAQQQQMAvQPCOmoEAAggggAACCCCAAAIIIIAAAggggAACCCCAAAIIIIBAjwgQvOuRgiAbCCCAAAIIIIAAAggggAACCCCAAAIIIIAAAggggAACCBC8ow4ggAACCCCAAAIIIIAAAggggAACCCCAAAIIIIAAAggg0CMCBO96pCDIBgIIIIAAAggggAACCCCAAAIIIIAAAggggAACCCCAAAIE76gDCCCAAAIIIIAAAggggAACCCCAAAIIIIAAAggggACRqjvxAAAgAElEQVQCCPSIAMG7HikIsoEAAggggAACCCCAAAIIIIAAAggggAACCCCAAAIIIIAAwTvqAAIIIIAAAggggAACCCCAAAIIIIAAAggggAACCCCAAAI9IkDwrkcKgmwggAACCCCAAAIIIIAAAggggAACCCCAAAIIIIAAAgggQPCOOoAAAggggAACCCCAAAIIIIAAAggggAACCCCAAAIIIIBAjwgQvOuRgiAbCCCAAAIIIIAAAggggAACCCCAAAIIIIAAAggggAACCBC8ow4ggAACCCCAAAIIIIAAAggggAACCCCAAAIIIIAAAggg0CMCQyJ49/e//71HOMkGAggggAACCCCAAAJvCowYMWJYUNAWHxbFzEkigAACCCCAAAIIIIAAAgjUFCjTT9DTwTs6AmrWBHZHAAEEEEAAAQQQ6HmBMo33bp4MbfFuanMsBBBAAAEEEEAAAQQQQAABBN4UkH6Cngje0TFAlUQAAQQQQAABBBBAoK9At4J6tMWpeQgggAACCCCAAAIIIIAAAgj0lsCABO/oIOitSkBuEEAAAQQQQAABBHpfoKlgHm3x3i9rcogAAggggAACCCCAAAIIIDC8BboWvKOTYHhXNM4eAQQQQAABBBBAoDmBsoE82uLN2ZMSAggggAACCCCAAAIIIIAAAp0W6Gjwjk6CThcf6SOAAAIIIIAAAggMd4FQII+2+HCvGZw/AggggAACCCCAAAIIIIDAYBXoSPCOjoLBWh3INwIIIIAAAggggMBgFdAgHm3xwVqC5BsBBBBAAAEEEEAAAQQQQACBNwUaDd7RUUC1QgABBBBAAAEEEEBgYAS0LV52Ss2ByS1HRQABBBBAAAEEEEAAAQQQQACBkEAjwTuCdlQwBBBAAAEEEEAAAQQGRiDUFieINzDlwVERQAABBBBAAAEEEEAAAQQQqCtQK3hH0K4uP/sjgAACCCCAAAIIIFBNILctThCvmi97IYAAAggggAACCCCAAAIIIDBQApWDd7mdBQN1YhwXAQQQQAABBBBAAIGhKlC2LU4Ab6jWBM4LAQQQQAABBBBAAAEEEEBgKApUCt6V7SzoNbjBnv9e8yQ/CCCAAAIIIIDAcBDolQBY1bbsYM//cKhjnCMCCCCAAAIIIIAAAggggMDgEejke3bp4F3VzoJucfd6/rrlwHEQQAABBBBAAAEEui/QyYa7nE3dtm6v56/7JcYREUAAAQQQQAABBBBAAAEEEOicQNX38FLBu7qdBU2efi/lpcnzIi0EEEAAAQQQQACBoSdQtbFuSzTV/u2lvAy9kuaMEEAAAQQQQAABBBBAAAEEEEgLpN7Ns4N3TXUWpLPs32Kgj1813+yHAAIIIIAAAggggIArkGqku9s33RYe6ONTIxBAAAEEEEAAAQQQQAABBBBA4P8E3Pf0rOBd050FuQUyUMfNzR/bIYAAAggggAACCCBQVyAVSOtUm3igjlvXi/0RQAABBBBAAAEEEEAAAQQQGMoC8r6eDN51qrMgBNup43Uq3aFcQTg3BBBAAAEEEEAAAb9AKvBV1c1Nt9Nt2G4dr9PnUdWb/RBAAAEEEEAAAQQQQAABBBBoQqDpfoJo8K6bL9lNHKuJNJooJNJAAAEEEEAAAQQQGL4CTTTYJY1utW2bOla38jt8axZnjgACCCCAAAIIIIAAAgggMBgFqvQTDHjwrs5Lfp19B2MBk2cEEEAAAQQQQACBwSdQpZEuZylt3ar75irVOQZt8VxltkMAAQQQQAABBBBAAAEEEEDg/wRy3vWDwbtOv4xXSb/KPqEK0WRaVDoEEEAAAQQQQACBoS2Q07DOFchJy22r5uyTe3wNDNrb56TfZPu5ybTKnDfbIoAAAggggAACCCCAAAIIINCEQM57dO5xfGkNSPCu7Mt62e19HRK5SGyHAAIIIIAAAggggEBZgSqN9tg+vvZvlWP4zqNs2rTFy9YGtkcAAQQQQAABBBBAAAEEEBjuAlXe4e19vMG7Ki/oOQVRJt1ObZuTT7ZBAAEEEEAAAQQQQKCuQJmGur1tqh1cJl37HMqkm9q2TLp1HdkfAQQQQAABBBBAAAEEEEAAgaEgUOZ9vmvBu1gHwD/90z+Zf37LP5m3tP6bHwIIIIAAAggggAACw1ngb//zP0b+87//+/cgQ5kGvySSbou/pWiP80MAAQQQQAABBBBAAAEEEEAAgYEX6Be8K/OVbW72Y2n+81veYt76z2/JTYrtEEAAAQQQQAABBBAYsgJ2u/m///ZmEC/0yw3gRdvirXb4Yv/8z0PWkxNDAAEEEEAAAQQQQAABBBBAYDAKdDx4l/rK921vpbNgMFYc8owAAggggAACCCDQvIDbdn79v//WGoH3v5UDeKm2+OKLvbX5kyBFBBBAAAEEEEAAAQQQQAABBBCoJdAneNf0qLtUeou1AndMlVmr/NgZAQQQQAABBBBAYIgI+NrO//M//2ve+NvfomcYGoGXaou/7a1vNW9hqswhUns4DQQQQAABBBBAAAEEEEAAgaEk0LHgXaqzQP4+8m2LmdzpfoYSOueCAAIIIIAAAggggIAr4Gs/y78tev2NZJvZbVPntMWXWPxtyXQpJQQQQAABBBBAAAEEEEAAAQQQ6L5AR4J3OZ0FcqrSYcAPAQQQQAABBBBAAAEEjAm1oV997fWCJ/XRm/49ty0+auTisCOAAAIIIIAAAggggAACCCCAQA8KtIN3qZf83Lyn0rH/TvAuV5XtEEAAAQQQQAABBIayQKwNrcG7nABeysg+DsG7lBZ/RwABBBBAAAEEEEAAAQQQQGBgBBoN3pUJ3MnpErwbmELnqAgggAACCCCAAAK9JZAbvIsF8DSN3DXwCN71Vh0gNwgggAACCCCAAAIIIIAAAgioQNeCd74OCYJ3VEQEEEAAAQQQQAABBMJTZoqNPfKu3YgfMaIfWyx452uLE7yj5iGAAAIIIIAAAggggAACCCDQmwJF8C41Yi4n67E0fH+Tf6PDIEeWbRBAAAEEEEAAAQSGskCqLf7Kote8693ZI+zcNGJ/E0vZfvQSI4cyK+eGAAIIIIAAAggggAACCCCAwKAVaCR4VyVwJ2IE7wZtvSHjCCCAAAIIIIAAAg0J5ATv5FC+6TDl30L7h/6m2xO8a6gASQYBBBBAAAEEEEAAAQQQQACBhgU6GrwLjbjTcyB413BpkhwCCCCAAAIIIIDAoBPIDd6FAnhlTtg+FsG7MnJsiwACCCCAAAIIIIAAAggggED3BGoH78qMunO3JXjXvYLmSAgggAACCCCAAAK9KVAmeOcG8GRf34g82c79m3scgne9WR/IFQIIIIAAAggggAACCCCAAAIjFr3+xt/rMIQ6G1Kj7uSYBO/qyLMvAggggAACCCCAwGAXSAXu5PxkzTv751vPzg3gabqxte8I3g322kP+EUAAAQQQQAABBBBAAAEEhqpAreBdncCd7EuHwVCtVpwXAggggAACCCCAQI5ATvDu5VcX9Rtd51vPTgN1bpq+bWWbMaOWyMki2yCAAAIIIIAAAggggAACCCCAQJcFuhK8czsQ9P8TvOtyaXM4BBBAAAEEEEAAgZ4SyA3eSaZD02PqCYWCd+4J6zEJ3vVUVSAzCCCAAAIIIIAAAggggAACCLQFKgfvqo66s/cjeEdNRAABBBBAAAEEEBjOAmWCd3YAL7bWnS9Y5wvsEbwbzjWPc0cAAQQQQAABBBBAAAEEEOhlgY4H70Kj7gSF4F0vVw3yhgACCCCAAAIIINBpgTrBOzuYF8qnu/adfTyCd50uXdJHAAEEEEAAAQQQQAABBBBAoJpAo8G7WKBOsmf/nXU2qhUYeyGAAAIIIIAAAggMHYGc4N3CV17tM2Wmu4adO6rON8rO3UeOu+ToUUMHkjNBAAEEEEAAAQQQQAABBBBAYAgJVAre5U6ZGQrmsc7GEKpBnAoCCCCAAAIIIIBAJYGcwJ0kLME7+YXWvMsJ3tkZ1OMSvKtUbOyEAAIIIIAAAggggAACCCCAQMcFOha8i43CI3jX8XLlAAgggAACCCCAAAI9LlA1eOdb784eWeeOshMGex+Cdz1eMcgeAggggAACCCCAAAIIIIDAsBdoLHiXO2Um62wM+zoHAAIIIIAAAggggMA/Amo5EDryTrbVwFxoFF4oPQ3e2W1xRt7l6LMNAggggAACCCCAAAIIIIAAAt0XKB28qzJlprvWnZwm62x0v7A5IgIIIIAAAggggEDvCOSOvHvp5Ve8U2bmBvB8x5F/GztmdO9gkBMEEEAAAQQQQAABBBBAAAEEEGgLNBK8qzLqjuAdtRABBBBAAAEEEEBgOAtUCd7Z01+m1rpz/+5OnUnwbjjXPs4dAQQQQAABBBBAAAEEEECglwU6HrwLjboTFKbq6eWqQd4QQAABBBBAAAEEOilQJngn+fBNmemudSfbabru2nfu1JkE7zpZuqSNAAIIIIAAAggggAACCCCAQHWBrgXvfEE8gnfVC449EUAAAQQQQAABBAa3QNXgnQby7ICe/W++4J3v3wjeDe76Q+4RQAABBBBAAAEEEEAAAQSGrkCp4F3OenehKTT13+3/psNg6FYszgwBBBBAAAEEEEAgLpAbvHtx4cv9Rt3plJju6Dr7iPbf7Da4/vtSS46hiBBAAAEEEEAAAQQQQAABBBBAoAcFagfvYuvdxabMlL8RvOvBGkGWEEAAAQQQQAABBLoi0ETwzl7Hzs20u8ad/N2eOpPgXVeKmYMggAACCCCAAAIIIIAAAgggUFqgK8G7UBBvqAXvDvv60eaBBx40H9t5qtltt2mlC4Md0gJqfOSRh5oJ49dN7zAEtzjvvIvMpZfNGRb17K9/fdHsu+8hRSmecsoJZqmlxtYu0bn33GuOOuq4Ip0fX/LD2ukNhwS47oZDKXOOCCAwEAJ1gneSX98aePZ5uGvcyd+Gc/Du9DNmm1/96ro20e67TzdTdtp+IIp+UB2zE+2xQQXQo5nttTat5mettd5rjj3miB5VGxzZGk7ve4OjRMglAggggAACCCAwMAKNBu/KTJkpp9urwTt5Qf3NTbeae/9wX7tUJk+eZDbbbHK0lD6+y2fMPffcZ2bsMd0ccsh+A1OiQ/yo711zg+IMh7PxCSecbGaffe6wMLjxxpvNjD1nFmU++6zTktdgTvW303xw3l05uwz7bbjuhn0VAAABBDogkBu4k0PLtJn2z50yU/+/va6dbO8G79xj9tLIO+n4f7HVBh83bmWzyiorNy4uH6JcfPHlZuTIxc3qq69mnn76GXPC8Uc10rZoPLM9lmAn2mM9doqDMju91qbV/Iwfvw4fyNWsUcPpfa8mFbsjgAACCCCAAAJDWqBjwbvUlJmi2ovBO2kon3/BxWbRotf6Ffwyy7wj+pJP8K76taJfF6a+1JTyuf/+eWb/A74ybEfeDaeXOQmkH37EMUXF+sbRX29k5N1AdXTI/UF+g3HUKNdd9XsbeyKAAAIhgSaDd3IMe3270P/u5eBdJ9vR0p7YaNJWRVFccsm5w7YN6auLOTOHdKI9xp2hvsBAtWlDOSd4V79MNYXh9L7XnBopIYAAAggggAACQ0+gVvAuZ707N4hn//9eC9595V8PMr/85TVFKW+//Tat/3zIjF1yjHniifnFNIUyqk5+Rx7xNe+0mJ3sdBh6Va/vGekLCl9qpku6V1/mpGPngh9dUkxH1cvTUQ5UR4eOXmtqBGG6prAFAggggEAvC1QJ3ulIOnuknTsKT87ZDt65697Z/7+XRt51sh1NUCF8JXTSvZevv6GQt4Fq04bsuM6aq1W9+r7X3BmSEgIIIIAAAggggECOQHbwztfBUCZ4p9va/91LHQYy8uuoo48vptI599wzvV/k2tvM+cmF/ab04eU3p8r5tyF4l2/Xqy9z223/UfPYY08U19Dv7745/4S6vOVAdXQQvOtyQXM4BBBAoMcFygTv/vrSwvbZhKbMjI22c4N5mtjbxy7ZM0qdbEcTVCB41zMVvcGMDFSbluBdg4UYSKpX3/c6f+YcAQEEEEAAAQQQQMAWIHj3D43Jm25rnn/+z2a//b5s9tl7RrCWfP7ze5ubb7m9GJl36n+c2Gc7t9NBgn1XX32tWfjyy2ajiRuaT35yl+QaHj+74pfmlltuMw888GCRtkwjuckmk8yUnbaP1lx5ebvyl78q9hszerTZdtutvaMDJRHZ9uabbzMrrbRisY0ec8kxY8yOH97O/OLnVxXHiuX38cefND9qjbKSn7u+n/zt57+4ytx33wPmqaeeLvIzaeOJ5sM7btfv/DUvt99xZzGyUaYm/cjUD7fP1V1rUEznz18QzZuOALvt1jsK+xVWWN5sPGli0EPPZd311imc7RFkkpEPfWgrb97tApF9rmiV3a233VGcs/ykzMVzwvh1K911ZO2XCy/8cVGm9jnEXuZyfGR/X7nlZNK11fop++6//6HFOnz2Oaut1jXfMbQOhNaVzMmvHkfqUarM3I6OKuUtx/Ad81Ota3yppcb2OU3Nv6xTKD+5d6y04grtbXLWx0wZSWKxstf9tWwk798983t97hc7teq+m3fNZE69cuuGXDfqIfvLT+439q+J+lGmLHLqONsggAAC3RIgeNdXOha8q/oc0+fM/AVPFbNr2O3MULtDnlnantM2rO/57j4jNb3Tz5hdtFWlXf3FL+5RPFur5N/Oh7S3dmjNCJJaf1vajtKOlynm7Taw7xmvz/afzPl58Q4ks19I21V/7ntAlfZYKt9NtMH1vUPb/bH3jpxrWw21Talt8FA7qW4bTcshVn9C+c4J3pV5L8vx0XaXvOvJbBv2NXJPq/7JWtWpmVTsui2+0z6xc7Buq499LV108WXF+5bsKzPl2O/Jbnu0zDu4rHev5Z56B2+i7opllfc9LSffe9kX9to92d+QW85shwACCCCAAAIIIDDwAo0F73xr3Mnp+Ubc6b/3ysg7ffHJGTEkDexddplelNyD8+7qU4La6fCJT3zU3HHHXcUoJPcXmnJTGt8z9vxye2pOd793v3ucuejC7/frXI/tF9rHHuUmLyYXX3x5+3Aypd/s2T8IBih1Q1kfQ/abvMlG5pxzzmjvr6MT9R/k5e2hhx4p1hAU32OPPbLPC5bmJXQpSDDIDm6ocWjqQTn+N088xbtmoXjMmnVsv2Ca/TW2rEc2ffpe/faPjciUOrH33vsWHR++ny/Qm7r01dfdTgM/EghybWTblI9soyPA3PqbypOcp9pI59fyyy/Xp2ynTNnBHHvMEX2SyfnSPfVlaSq/bp3TDEiZHXzQvv0CRnZHh6x7U7a8Jf1Q+fjqieY/5JtTDimjVNnb+0sgVUYZ595jUmnL3+26YaerHgceeJgZM2Z0v+lUm6gfZcoiVcf5OwIIINBNgaaDd+70mO7Umm6bXM51sIy8q/ocs5/5btm67ahYe87XhtX07KDjNdfe0Kf9r8/4MvmXdEPvBLE2pT39v+R39dVXa79XSLvtgvPP7tOpr/kO1Xm3rZ1qj4Wex5K+vC+ccsoJ/d5j6rbBY+1+OW7ovSt0zrFzCL0L1G2j5dSfUH5Twbuy72U597+Qubxn/eu/7lN8zBcK3sWusVDdtt9tJGinS1zYedV9Y+nH3sGn7fq59nUr18ro0aPa/z90LnXrbux9IvW+J/vG6n7Zep9T7myDAAIIIIAAAgggMDACXQ3euZ0GvRK805cuNxD1/9m7D7CpirP/4wOYRKVqjBXRN8ZYUJTYUTQ2LKBoxC42xGBvqCCgoqioqIiNxAZiQcVXUayIBRuWBLsxaqKIBY2v0myx/Pc+/O9ldnZO2/I8Z3e/e11cwLOnzHzm7LPnnN+ZmbAm2WDDbkG4417U2hfBGhzIU5qzPpwd9KDSkOzSSy8o6kmnZZALhgtHDs8/fShP9Z18yuDg4tt3UaM9AaXsw4cPCS7KJdC7eNTlwf58Fxz2viRwku3KE4+vv/FW0MPstdxTh3LhFRVmqoFdFynrjj16B2xuD0bp3afbfPKJB729kySQintSMyqcsi9g5YaMPjEsF3KXXnJFEEj6Ak374uuTT+YEodRhh/UN2kje0zBTPHxl1zJJ2S+95IL8jRFZ9/RBZwWhXpqLKDvQ1HqIqTzhOjb3NLe85PhryvBOjqlt/rhLsF+3LnqzyNd2lQhnom4W2UPZHrD/3kGby0t6hWpPNwno7N6P9nGiIWSa9pYn6i+77KrgWBo29LT8Z9Uui+84KWfYzHJvDOn68lmXmx7yd//+h5pOq3Y0Tz8zw4wZc01wkyLs8xf1ubODO/k91K/fwbntdM5vd8GChfkn+t25EMs9Pkpti+b5umWvCCCAQKFA2vDODuckmNOhMH3z3/mCPPmZfS4u69VaeFfq91jc9419niPfZSefclxw7qC9a+ScIiy80e9IOadYuHChkfMR6UUlo1zoA2j29/D06c+YrbfeMvR7WHoK3XrbncEDSFtttUXReY3vOsI+B7nyilEFvZg0kIr7jvedV9pHbNT5mNbPvv6RHody/q/nGL7rmHLOwe02kwcnTx14Qv76wg6tpj4yOVFPJPv80D7Xta+rpI2ffWZqwQe53HO0JMdP2O/OqPCunOuyJPvTz4meS55//qjg+JdrBd+xJo679uwTnBPKsaY96exr3ahrG2njKVMeCj5fer7/9NPP5R/alHWl19z8+QuCEHGrLTcPrsH1GlCOTd+0F3odI+f11/71ivyxYj8g6ytXOceu+JZzvacPE7sPKtrXnsyxzRkHAggggAACCCBQHwJVDe+iet0JX1bCO72ojbto1SbXiyz34ll/HnZxoDeafRd+uq4v5AkbWk4vGuRi45GHF/eec8vphhfuxYJv2D4dRtR3g0CDOLceUfWTMunFka+OSee8iwoR4uZKCXvfvvANs1QPX9n1Zobv5kCSoXTsXyVyobjpZtsGP/LZuwGl23bV6nmnbRv2VKz6hAVlUaFs3E2PsJtF9k2bqEDcDeXLaW/dp7SP7waA1sU3/G4Wwjspt9z8cHtI2jd4fMdxks+d79iwb9RUOtwtpy3q4+ubWiCAQK0LlBve2fUPC/LC5qfWcK/WwrtSv8fiwru489Co9+2H98JumNvn3nHfw3Id4QZw9s1+38OGUcP6y7p6nhb1HR93HZTkfMxXf/t8zX2/nHMyXdd3XSV1TjLkt/0ZsgNWd2oE9Ze/3XPvuPNYWSfJeZQslzZwiQrvyrkuC/vdqvNb+45hu52jHh6NWlf2686bbX++4oJrWT/qQUvf+bk+kBp2DS4PpvqOsXKO3Upd70VdKyZ9KLnWv0cpPwIIIIAAAgggUO8ChHfWBVXcRaseDGEhkD1spntzXNfVi2f34kyDrTQn2lFhmF60yvB4br3sGwgvPP+4d56rqN6Iut+kXlr3qIvbuJsmrr3rp+FDWO84WV9DRzegsy++fBdBesEuT137LjiTzpeY5JeJXmhHhV1RIWW1wruwwDquXeJultm2YcdT2M0ifao6LHCVY0KeyO3UqWPBE+jltLfuMyzE1OPQ135ZCe/CPvNRbRx2XNmhX9h2o47pco6PctoiyWeRZRBAAIFqCxDeFQpHnd8kOXeN+h6L+74JOz/XEto3293vO91v2PmIfa4j/477Hg7bjl2GJENu27pJwqO48/q487Goc1d9UNI9jy7nnMw+B3EfHivls6vnFRLUPHD/pNB5gN1tVyq8izp+wuoTN2xmlEOSctvr2729fAGZfZz7joWoAFnW1evLsJFtonz02PRdp9nXgHEjvPi8wo77co7dcq739LgPC62lDmqd9vdEKZ8b1kEAAQQQQAABBBCorkDJ4V3Yk7xS3LgedzpsT1ae9o3rseU2QVx4F3XxGxZ82UPPyYXFn/bc3YRNjK7l0acfwy5Y9aLCDQSTBGVhN+XtGwdJh6HR8lYzvNNgLu6izHcBluTCN+qmjz00j4Q67sTpaT7CSYLRKMdqhXf6RHfY8J9h+427WWZf6KcN79L2mNV2KKe9dZ++J3d1+3KM+YaczUJ4V2oPyLD2TfK5izoGyjk+ymmLNJ9JlkUAAQSqJZAmvPty7rygGDpEptvTLq7nnfa0c8/Rl80NbZiVV5LwrtTvsajvm6ShWNh3YZLriCTn3knClLh558LasprhXZLzsTD/cs7JpK563iznXTL38r777lU0t3XS41uOA537TIKRvn33C6YTkCkJol5J2q0S/r4yJPELK3uSctvr6vVO1GcwrJ31MxY1JUPY6BVJPl9x1z9JzjfDnJKEd2EhWdh+y7ne03PvqAd+1aMSoXbSzw/LIYAAAggggAACCFRHgPAu55r24qUSF+++oEICs1GXjCmYiFtOzHfccTtvkKcXE3GHhnuRleQGgmzTF9johVvYBYNcpOgccVouuVDrumEXM3/BgmDuPl/dk5YpzD7p+tUI76SeUu/Rl18d1E9eUmeZzyRtkBd38Snbbo7wLuqC3R4mx32aPMnFctznL+yiOcnFfKk3OsLKbQ/dE/e5cy/k6zG8S/K5q1Z4V05bxLUd7yOAAAJNIUB4V6jcXOFd0gCkEuf/pYaPKhU3D/D4m24N5rDVl4RQG220ofnb314O5hrzDcuY9HyqnPOxaoV3Uk85R73q6muD+slL6rzttt1LCvLknPYvf7khmHNQ5m6Tl/T42nPP3UKDvLjzWNlGc4V3pV6X+X7/JalnknaO+93qXicmOT7jrp/iwntp88n3PpA/hrTdN9nkD/k5693z+iS/N+KuJ6KGSQ3ztnshx1mmHYY1bnu8jwACCCCAAAIIIND0Ak0e3tlP/Gal550OXZF0yEq9eHWfZktycZHkwkcuHO/PTfA+depj5tnnXgiOCgmDJky4tuBpUh2jX4Z6bN+ubejR0z73VHWX9Tvn309yw10W9g0zGTUkkS4v62oPNCnXrFmzzZtv/cM8/vhT+UnKw+aLiOs5F3ZxlmT4EUzt5h4AACAASURBVClXtcI7xZUA9oEHHzF3331f/uaJXPTfcfv4RMPvaP3CerjJfpojvJP9ak9PnaBejilp8zFjrgnqGjeZ+12TbvYeo3GfibCbRRouxw3z5O60nItte5/dum0W+Ru7e/duBe/XY3iX5HNXrfCunLZo+q9a9ogAAggUC5QS3slWpJddOT3v7P3S884YHQ5QbKOGmctyeKe937QH2s477RAccK+/8ZZ5881/mOnTnwnCqGqEd0nOx5KEOml7L7mfKGnH22+/K3+9odcjvvnrkvw+knPchx9+NG8n60TN2x11Ptoc4V0512U+n7g5AWWdsHbWz5gEqxeOHB7J36nTqgW9HZNcX5cT3un1jfa2XK/zOkH5nn32efPWW2/nr8WrEd6Vcr1n37fo1+/gSMv1c9dqHTLUuzrJ545lEEAAAQQQQAABBAoFEoV3vpsLYcNm2j+3gzrfUJpZCe/si/aweSiUTS+EfMN+pLm4iDpZt5tIgryLR10ePPXnzucWd6ESdrAnDe9kfXt+Avl/2KTd8p5e/IQNKVjNYTP1YjFqPgR7KFD7AqycMCfqF4rs7+RTBge98eJCSd2OGoXN2SDLRQ21EndMJL1B5dZLjvvzzx9l2rRpXfBEtywnx+WAAf3MUbk/7itJz7u4mz5h4V2clXx2XsvdyJGXHaSV095xQWPU8VDt8E7DfN+NuSSf+VJCYbWMmnej3PAu7Pgopy04EUAAAQSyIJAmvPu/3HeaPWSmlt8dRtOulwZ88rOw8/NfL9MhCxRBGZqr553sW7+jo64DwubFS3L+X+73sDaS75zIHvYzbJi8SoRHpZ6PSdnDRnAo55ws6sCV7Z4+6KzQhwbTHvT2EPnueVaS85Goc7Qkx09YeaP8yrku8+0vybVW1Egd5Q75Wmo4KnUJOxfV6/qoeQ6rMWxm3DWMlDnsei/JtVXa45vlEUAAAQQQQAABBLIrUJHwzndDwL5RoHPcuT/LSnhn3zCICk1kOb0Q8l1A6MVXWFBjh0f2fHEa8qy99u/NeSPO9B4tvhv/+uRdWJnlAup/777XbLrJRsbu6ZbkBoIWwr4gbde+nbnssqu8PazsGx9hQ3REhU5JevDY7eTuI8lcfFoXt4dlOTcO5KLvxhsnBHMUHnjgPkVtl2Tb9kp2OBw2GbzePPIdgxp0hAWo2gayz6STmGvgp25yvM6a9aGZO29+0OPT7WFm18ee3P6Vl58t8rE/E2nnvLO37bNSezdoT9ImcU8Oh4XEUqbhwy8wbdu0MePGjS2ob9SNm7iviLjewVE3lWTbST7zpYR3su24emlvAN/vxXKOD123lLaI8+Z9BBBAoCkEKhnexZWX8O5Z0++IY0MfptLz+7CH68LOKexz06hwodzvYW3fUkeQCAseZbtxD1FF7VveswOQZ5+Z6j0U9RrJPT8t55xMTF948W/mrLMGe+e5S2JuF1YcZIj/sJEiwkK2cs/RqhXexT00lmTeNdvHvtaKu9bznfPpcSYjxvTquVPRcSLni//4xz/NYYf1LXg/iU/cw4th5/Vxx0jYg59S+HKO3XKv9/TcO+xhA/GQ16WXXBA7Z2PcdwfvI4AAAggggAACCDSvQNXDO1+PO6my/DxL4Z19Au67+JYLlhNPPD0YOsPtAadNaM/B5G7DngRdhpR0h3DRk3DfE7N2byn7fZ1rTPbvDqlp78+9ERF3oWIfknrRIk8kykvmk7CDR3vZqCc87XCh1OEVZV9RF2d6ESoXjNdfd1XBMCFi2Ldvf++QQeVcfNnDwDxw/6SioUn0gj5qgnb3V4A6+o4TO3zzOer+fE+QShtcdPHo/BweScM73Wba4Sm1Xnpsuzds9BidM+ezoExpwzv7ePBZ6U0C971y2tvep+8Gn7aPrzxxNxaivgrCfgfIOnpsy7/DhsRK8pkvNbzT9eSYu+3WGwpuEtjWYQ81lHN8RA0zG9UWzfu1y94RQACBRQKVCO9kO9r7Lsw1arQMet4tUtPzVDlfu3fy7QXfZfY5ddTDe80V3sX1vLPPHaN658ed50X1nNJw0PdAoW3rPmxVzjlZXGim54FJp0WIegBOjHft2Se4DnLPZ8s9R0sSToV9tkvteRd3XRa2P30gyzclgL1N3zmf3XPPnU7Avk5zrzOT+MSdY5fS887+3ItHJYfNlO2Vc70XNYSptkPUqBh8ByOAAAIIIIAAAgjUjkDVwruo0E5vWGQpvLMv3OXfOsF7x1VWDsa7n/nyq8GNcd/cc9rc9lOl0kNNLmy2324bM2/+fDNlykPB+mHzn9kXtr167Wy22GLRfFrPPfd8fl1fIOBb78MPZ+fnXPP1SklyI98+hPViVn4WdQFsz60gF+8638Ydd94dzBdxwP57m+tvmOANaTSIFCNdV+YakJfdazDq4sy+yJL26737rsH6sz/6ODdnxbTg3z7Dcm4cyDb1pojuU+ZCk3n+Zjz/Yn6/SYdJle3ZF7B2PXQidamD1CcsZNabCzrvSbu2bc20x54MhruUGw5ybMoraXgnAe7uvfcN1pHhMXUuCN+vOV8vPL25IsvLxbz0BJU2kWOidevWZtttuwfDwpYS3tnHjW2l9fXdhCu3ve32kbbYfLNNAgqdo9K3T3lfP3fymTzk4AOCdeQYGXjK8YmeirU/h7Jf/d0kDxTI51KeFpchWpty2Ew9BvQGhNR96623LCibtHnU0LHlHB+ltoXv2OVnCCCAQFMLVDK8k225IZ7+jPAufNg8u831fM4+f0pyDp8kXEhy7p1k+MWwAM2e807P1WSEBBkdYv78BWattdYMzh195wh2r0JZd9VVOwbXH3ItYveQigrv7O9jPdcTW+kZJ+cA8vKdC5dzTmaf98s+d9hh2+AcVeb5e/TRx4P9Rl23uZ933zlFp04dg7nP9Bw87DqunHO0JMdP2O+mKL9yrsvC9meb258TbWe9Rgl7YMt3zSS+t952Z3Cd7At/k/iUGt5JPfUcVs/Ppc3lOu6qq681G220oXn77XeCa6hKh3flXu/ts+8hQbn02NfPrVxTySush2NTf8+xPwQQQAABBBBAAIHyBJolvNObCFkL74RSLoJGX351/kLT5pULkqgb7XLh8Mknc4wMGeP2cpLtyPrnnjM0dOJonVdMnuq0X3JxJMGXHWLZ74etJxdApw48oWh/SW4guNs/+eTBiS4EfPWWUGXs2NFmbu6pVRmyKCykkXoMGTI83zNMzexeinEXZ3JROezMEfnQTOuRZF42WTYs0IqbX0BM9cLTtpO6n3HGQO/wMFEfXR1+UW94yLJSh/POOysYqjLK0Z5rz1f/UuacsG8ARJVbynjaqScWDSEqAc3Y3B+5MNeXXGzKcC4TJ04KDXVl2bjyhrW5bN83lFI5N4q07L72kfe0TquttmoRk917124Xt9dsmK89/6W9jH7O+x1xTLOFd1FlkxA/aqgyqUs5x0cpbRF1DPMeAggg0FQCacM7KZcEdG5Ip3PbpQnvdN/0vCts7bDzubBzalk7SbiQ5Ny7nPBOyqEBnl0jHY3iL3+5ITjXChvuUPdtr+uGbXHnY2Hfx3IufOHI4d5h1ss9Jws7B9RzsrAhNcM+42F1kOWjruPKOUdLcvyElTfOr5zrsqjzUd+1ll7fyXESNde37zMWdZ2WxCfu+jDqOk7aTs+h3fNrmc5Ct13p8E72Vc71XtixH/V5a6rvNvaDAAIIIIAAAgggUDkBwrsQSzkhfi031KK+oub1irq40W106rRqot41eiIvQVfafcsFgK63/vqdQ0PCyh0+4VuSi6S05dfldd00Zm5JKtF+pTjZ9W7fob13Do4029X55WSdtMegbZB2XbuM9g0nmYdCwkPfS550ll59YcPK2sd2OW0b5mdbVWP7vv2Wss9y2tT9jDT35zzqc6dtEBd829vQ32GltF8pbZHms8iyCCCAQKUFCO8qLVq57dnnc1n7ro2qpX3ul/Y81F63nDrb38dpy1BqC7rn/aWcR9j7tusgP0/jocdOmnVKrXfS9cq5LgvbR7nHSzXKlNSjUuf05ewv7HhLe81Wzme+UuVnOwgggAACCCCAAALVEyC8q54tW0ag5gXsOQ+lR2ncK+7J17j1eb/+BNKEd/VXe2qEAAIIhAsQ3nF0IIAAAggggAACCCCAAAIIIIBAmADhHccGAgiECqQJXuz55154/vFm7flJk2ZHIM0xlJ1SUxIEEECg+gKEd9U3Zg8IIIAAAggggAACCCCAAAII1KoA4V2tthzlRqAJBOxAbtKkCaHDgEoPvf5HHhdMnO6bbL4JisouMiogx9Cmm21rZA6OJL03M1oNioUAAghUXIDwruKkbBABBBBAAAEEEEAAAQQQQACBuhEgvKubpqQiCFRHQCa7H37OyGDjO+20vdl8s01Mp04dg//PmjXbzHj+RfPww9Py718x5uLqFISt1qyADqe6/vrrmrPOGlz2XJA1C0HBEUAAAUuA8I7DAQEEEEAAAQQQQAABBBBAAAEEwgQI7zg2EEAgVkCGPhx9+dXmtdfe9C67+uqdzPHHH2V69dwpdlss0HgC0vuu3xHHBMfPWWcOMgceuE/jIVBjBBBAwBEgvOOQQAABBBBAAAEEEEAAAQQQQAABwjuOAQQQKFtAQpjXXnvDzJ0337Rv1zbYXqdOq5rVVlu17G2zgfoXkBC4e/du9V9RaogAAggkECC8S4DEIggggAACCCCAAAIIIIAAAgg0qECT9rzTmxTyt/xZtkP7BmWn2ggggAACCCCAAAKNLJAmvPviy69MixYtgj/y0r/137It+2fyc/2ZvR/3XHy5ZZdp5Cag7ggggAACCCCAAAIIIIAAAghkVoDwLrNNQ8EQQAABBBBAAAEE6lWA8K5eW5Z6IYAAAggggAACCCCAAAIIIFC+AOFd+YZsAQEEEEAAAQQQQACBVAKEd6m4WBgBBBBAAAEEEEAAAQQQQACBhhIgvGuo5qayCCCAAAIIIIAAAlkQILzLQitQBgQQQAABBBBAAAEEEEAAAQSyKUB4l812oVQIIIAAAggggAACdSxAeFfHjUvVEEAAAQQQQAABBBBAAAEEEChTgPCuTEBWRwABBBBAAAEEEEAgrQDhXVoxlkcAAQQQQAABBBBAAAEEEECgcQQI7xqnrakpAggggAACCCCAQEYECO8y0hAUAwEEEEAAAQQQQAABBBBAAIEMChDeZbBRKBICCCCAAAIIIIBAfQsQ3tV3+1I7BBBAAAEEEEAAAQQQQAABBMoRILwrR491EUAAAQQQQAABBBAoQYDwrgQ0VkEAAQQQQAABBBBAAAEEEECgQQQI7xqkoakmAggggAACCCCAQHYECO+y0xaUBAEEEEAAAQQQQAABBBBAAIGsCRDeZa1FKA8CCCCAAAIIIIBA3QsQ3tV9E1NBBBBAAAEEEEAAAQQQQAABBEoWILwrmY4VEUAAAQQQQAABBBAoTYDwrjQ31kIAAQQQQAABBBBAAAEEEECgEQQI7xqhlakjAggggAACCCCAQKYECO8y1RwUBgEEEEAAAQQQQAABBBBAAIFMCRDeZao5KAwCCCCAAAIIIIBAIwgQ3jVCK1NHBBBAAAEEEEAAAQQQQAABBEoTILwrzY21EEAAAQQQQAABBBAoWYDwrmQ6VkQAAQQQQAABBBBAAAEEEECg7gUI7+q+iakgAggggAACCCCAQNYECO+y1iKUBwEEEEAAAQQQQAABBBBAAIHsCBDeZactKAkCCCCAAAIIIIBAgwgQ3jVIQ1NNBBBAAAEEEEAAAQQQQAABBEoQILwrAY1VEEAAAQQQQAABBBAoR4Dwrhw91kUAAQQQQAABBBBAAAEEEECgvgWaNbz7748/17cutUMAAQRqTOBXv1zCfPf9DzVWaoqLAAII1J5AmvBuiZbGtGjRIvgjL/1b/y3bsn8mP9ef2fvRf8vf8ufHnxdtjxcCCCBQjwKc19Zjq1InBBBAAAEEEECgcQSaNbxbtkP7xpGmpggggAACCCCAAAII/H+BNOHdF19+VZXwbrlll6E9EEAAAQQQQAABBBBAAAEEEEAggwKEdxlsFIqEAAIIIIAAAgggUN8ChHf13b7UDgEEEEAAAQQQQAABBBBAAIFyBAjvytFjXQQQQAABBBBAAAEEShAgvCsBjVUQQAABBBBAAAEEEEAAAQQQaBABwrsGaWiqiQACCCCAAAIIIJAdAcK77LQFJUEAAQQQQAABBBBAAAEEEEAgawKEd1lrEcqDAAIIIIAAAgggUPcChHd138RUEAEEEEAAAQQQQAABBBBAAIGSBQjvSqZjRQQQQAABBBBAAAEEShMgvCvNjbUQQAABBBBAAAEEEEAAAQQQaAQBwrtGaGXqiAACCCCAAAIIIJApAcK7TDUHhUEAAQQQQAABBBBAAAEEEEAgUwKEd5lqDgqDAAIIIIAAAggg0AgChHeN0MrUEQEEEEAAAQQQQAABBBBAAIHSBAjvSnNjLQQQQAABBBBAAAEEShYgvCuZjhURQAABBBBAAAEEEEAAAQQQqHsBwru6b2IqiAACCCCAAAIIIJA1AcK7rLUI5UEAAQQQQAABBBBAAAEEEEAgOwKEd9lpC0qCAAIIIIAAAggg0CAChHcN0tBUEwEEEEAAAQQQQAABBBBAAIESBAjvSkBjFQQQQAABBBBAAAEEyhEgvCtHj3URQAABBBBAAAEEEEAAAQQQqG8Bwrv6bl9qhwACCCCAAAIIIJBBAcK7DDYKRUIAAQQQQAABBBBAAAEEEEAgIwKEdxlpCIqBAAIIIIAAAggg0DgChHeN09bUFAEEEEAAAQQQQAABBBBAAIG0AoR3acVYHgEEEEAAAQQQQACBMgUI78oEZHUEEEAAAQQQQAABBBBAAAEE6liA8K6OG5eqIYAAAggggAACCGRTgPAum+1CqRBAAAEEEKgFgTTnEbVQH8qIAAIIIIBAJQVatGhRyc0127YI75qNnh0jgAACCCCAAAIINKpAmptuX3z5lZGLD70AsS9E5N+yLffiRH9m70f/LX/Ln+WWXaZR+ak3AggggAACNSWQ5ryhpipGYRFAAAEEEGgCgVoN8wjvmuDgYBcIIIAAAggggAACCNgCaW7CEd5x7CCAAAIIINCYAknOF5Is05h61BoBBBBAoJEEkgR0SZbJkhnhXZZag7IggAACCCCAAAIINIRAmhtthHcNcUhQSQQQQAABBAoEws4V3J+nOaeAGAEEEEAAgXoVcIO5sKCulgI8wrt6PVqpFwIIIIAAAggggEBmBdLcaCO8y2wzUjAEEEAAAQSqIuA7T7CHv5adEuJVhZ6NIoAAAgjUmEBYaOebdkKrVisBHuFdjR2MFBcBBBBAAAEEEECg9gUI72q/DakBAggggAAC1RLwBXPu3LVumFetsrBdBBBAAAEEakHADuvcOeOT9srLWj0J77LWIpQHAQQQQAABBBBAoO4FCO/qvompIAIIIIAAAiUJhAV38vOwP+6O0pxnlFRIVkIAAQQQQKAZBXw95zSwi/rbLnIt9L4jvGvGg4xdI4AAAggggAACCDSmQJqbagyb2ZjHCLVGAAEEEGhMAfscwQ3rfvrpJyM3G3/xi18Ef/NCAAEEEEAAgUIB+e7873//Gzzw0rJly+D70v6jS9fC9yjhHUc3AggggAACCCCAAAJNLEB418Tg7A4BBBBAAIEaEfCFdxLayR95/epXv6qRmlBMBBBAAAEEmk/gu+++C3YuAZ4d4mmJCO9yEu6Y3IKjTw4t26F987Uee0YAAQQQQAABBBBAoJkECO+aCZ7dIoAAAgggkHEB39x2Gt5JcFcLNxszTkzxEEAAAQQaQEC+O7///vui8M6eGy/rDPS8y3oLUT4EEEAAAQQQQACBuhMgvKu7JqVCCCCAAAIIlC0Q1evuxx9/NEsvvXTZ+2ADCCCAAAIINIrA119/bVq1alWzve8I7xrlSKWeCCCAAAIIIIAAApkRILzLTFNQEAQQQAABBDIj4IZ32uNO/pbwrnXr1pkpKwVBAAEEEEAg6wILFy4sCO90+Ewtd9Z7sxPeZf0Io3wIIIAAAggggAACdSdAeFd3TUqFEEAAAQQQKFsgLLyT4E7+tGnTpux9sAEEEEAAAQQaRWDBggVBeOf2viO8+/nnwIA57xrlo0A9EUAAAQQQQAABBJIKEN4llWI5BBBAAAEEGkfAN9+dBnfyd9u2bRsHg5oigAACCCBQpsD8+fPz4Z0EeNLTTv/Ipul5Z4V47knIsh3al8nP6ggggAACCCCAAAII1J4A4V3ttRklRgABBBBAoNoChHfVFmb7CCCAAAKNJEB4l2ttt1u/HAD2CYf+n/CukT4a1BUBBBBAAAEEEEAgTIDwjmMDAQQQQAABBFwB976Zznknve5++OEH065dO9AQQAABBBBAIKHAvHnzzBJLLFE0bKb2uKPnHT3vEh5KLIYAAggggAACCCDQKAKEd43S0tQTAQQQQACB5AKEd8mtWBIBBBBAAIE4AcK7nBA97+IOE95HAAEEEEAAAQQQQGCxAOEdRwMCCCCAAAIIuAKEdxwTCCCAAAIIVE6A8K7OwrsnZ8w0Tz3/Sv4I6bXDlmbDzmsWHTG63EF77WxW77hi5Y6oDG9pxOXjTKdVVjQH99m5oJSTH3naXHvrvWafXtsVvZfh6hQUTeq2/jq/M717bJX5IktZZ8x804w4tb/32IyqwPuzPzU33/WQ6b7ZBmabzbtWtK7V3Hbagu5/7Nlm/oKvzZRxF6VdleURQAABBBBoEgHCuyZhZicIIIAAAgjUlEBYeCdDZsrQmQybWVPNSWERQAABBJpZQMK7Vq1aBUNntmzZMvgjQ2UybKY1XKa0kZyAZHnOu5ffeMccf9Zo8977HxUdUl3X+72ZcPkws0z7tvn3JEC5ZsI95tYrz6p4CNLMx3To7lfZeA8jFm4gohZH9d3DDD3h0KwWP7RcEsQecOxwb92yWJleh55mZr7+z5KOPa1rNdqqmttO2w5yrMrro5fuSbsqyyOAAAIIINAkAoR3TcLMThBAAAEEEKgpAcK7mmouCosAAgggkHEBwrtcA9X6sJlfzp1vttv3ePPZf740W2++oTn9qAODHk0S6F14zS1m+oyXzRqrr2KmT7oqfzgS3i3+ZIrfq2+9a1bruFJN9kKstfBOerh9MPsT0yXXU9AOlJP8rqxmwFbNbSepm72MfHbnzl/QMMF6Wh+WRwABBBBofgHCu8VtEHduE/a+joTRvl0bc9Cfdkp9XqQluGnSQ8F5w3GH9anIgSHbm/XRp03yUFvc6BFynr5pr/7m62++NRcMGlDSKBlZGV0hzFXKd+zQS826a65uLhpydEXakI0ggAACzSVQ6fBuwZffmvde/TSyOmt0WdG0WWbJgmVkvWfve9t8Nuur4Oe/XX8F06332qHb+fT9r8xzueUXzv02WGbzXmuZ320YPUrVK0++b1ZYrYNZcfUOBduVbT1686IRsVq3X9JssdtaRcvoCqXsV9aV+n36wVehZUxbf9lmWH3efflTM2PK27H1keXUz4W220jqPCdX9rDXBtus3lyHL/tFAAEEMidAeJdrkloP7664cZIZedXNQXB325VnFx1k2tPJvuD1hXdycZwkTKn0cpX6VMSVK6znXZL9x23b3UaS5ZMsE1Y2e92mCO/KKWsS36R+voAtTdmilm3q8C5NuZP6lGLdlNuuRPnYBgIIIIBANgQI7xa3g55XH7hnD2/44jvvPu28q80tdz8SjJzw0aefm7ZtljaTrx+Z6FzcPQIq3WNfrx2qPQJA3DmsnCv17jfIfDLnCzMsNzqGO/R90k9CU5/jhZUrzDXOIWk9WQ4BBBDIgkClwzsJhG4YOi20arPf/o/pcciG5qCh2+SXkXXO2ft2s2SbX5qNd1zDLJz3nZk57V9m2ZXamhGTDygK+h656RVz3eCpZuU1ljUb91jDvP/GZ+bV6R8EodtJY3cr2rcEY9fmlpewb/ejNinY980jnjT3XvOi6bL1amb1zsublx55z3z83v+ZIy7Y0fQ4eIOCbf31tEfMo7e8an7XdSWz7uYdg/3+86WPTce1ljNnTNirqJz2yidufUOwzpEX9Sgqn1v/zz6cG2w3rP5R9blswH1BPaU+y6/a3rw5Y3ZoffZZZVRguHS7XxWV6fgre+YDTPF+4o7Xi8s98xPTYfnW5q8zj8rCoUwZEEAAgUwIEN7lmqHWwzuZH0t614UNgSlzuh19xiizW27+u7EjTw0OPL2JIIHeHVMeC4YxlNfSSy1pDsnNCecOHyk9gQ475fygd5++ZHsXDB5QcJNBlht68bX57cmyvuWkzC+98g8zatixwXxzsn8JH3f54+Zm8MixZtAxB3mfHt66zzHBXGAzH7oxKIZvf3ITxJ5Pbc3u+wVP67ovHXpRttHzkFOL9iluZ196fWydtS53jj23wEgsfTca5Knbc3PDlmqZwsx9vyGk3cbn1td1pa47bbNpEN7aQ4LqMXH/+IuL5pXT8r7z1MTIX0KurZZTng6X/em21c8XHvtsNWx2y5bE2775Mi93HMhNL335hocNO0bsY1LL6MOIGlZWjit5+RzlvY03WDsfptsOH378WWy5fW2UtD2kTGnKJsvLzbHBF4w19z36TIFnKfMSZuKbjUIggAACCFRdgPBuMbGeV8tPfOcOvvBOAjc939XeZccf3qek3nP1Gt7Jed/YmyfnRxUp9aDOengn9ZIytm/bJvV80KWasB4CCCBQLYFKh3dx5Tyj1y1BiKXhnQRRR2/6F9N1+98WBG/y86G9bw2CpfOnHJjfrPQ2O++ASUXhmgZgvmDwyuMfyK8vYZ/uW7d1/v0HFfSIu/uK583dY2aYq1/4cz6QkwDr5nOfMGfeuW/BslrO1db9jTc4lB1L6PfS1PfMpY8dVhTwSa+203YcXxRohtVf6hlWH93POXfvX9BzUMPOIbf2kalefwAAIABJREFUMXYvOQnv3J/FtZ++r0auR9L1WQ4BBBCoVwHCu1zL1np4p09xvj5tgvdpXd/TnPZNBhlSs0f3TYJj/K4HnwzCKntOMRnKZcf9TwzelzBqtY4rmKeefyWYM88ejtO33P3TnguCCnfYTi2zbFPea9emdTBUzOBj+5r1tu9btLxe1MrcbhpC2vuTmx1d1lkjN/zle2bMDZOCsr4w5drAQ8KiufMWBOVdfrllzF67LHoiq/tmGwTDEvou6CVgkxBRl++0yormwSdmeIcg1bpIuLX9lhuZjiv9xkiwdPdD04OQ7erzB5rePbYK9qlBqtT5lCP3Nx3atQ5uSkj4Gva0tv7y0dDLrsOMmW/mg1I7vIuaVy7J09TuUKydc22jdZLySL305lTU08I+W98NLNdb9vHGO+8Xeev2xLpN66XybakO7nGW5JiUul417i4z+5PPg/BKHDfvum7AftBeO4cOpRp1o8zt5Zm23G4bpWkPKXeassnyEorLfJnyuZfPhf05mnrb6FCDrjsfFvy+8IXE9fqlSb0QQAABBBYJEN4tPhLs82o5T3vs9jGxc03Ld7V9jijfqXKOmnT+ZbsHf1x4l7a3f9y5Ytrt2Z+ZtKNHpNlX2LJJwrs0+wn7HRC3jTjXqN8tcdt21027PL/XEEAAgUoJNHd4p6GYHZRp3STYOn7L68yYZ47Ih1HSs+zz2fMKAj1dXrY16bJn8z3Bnp38DzN24MNBMNg/15Pu/L53FQSHI/a/Mxgm09db7+A1LzenXNc7H3ZJMCY9An3L6n5ueueEomYJCwh1QQnBnrzzDTN6+uFF62r9NVyMq4+UecConbzDjYqbDJE59La9g/1IOHj4elcW2CY9pqQco4+eYk68ulfk0KZJt8dyCCCAQD0JEN45Nx/sEw37xoT83D0JWbZD+0wcC3EXghJgbLnHgIKeWXqTwQ58pDL2vBIaBmpo5M4zIUHUa7m54vQmw4BBFwfhh3sj37e+ltnXwy5sO+7P5UL84rG3mVMH7F8wN1hYecOGzfRd0MsNlAULv8kHgNrQWgbbQutiB56yvC/U0h5xz9wztiAQkTLL07ZRwwFpbyo3TNFtVjK8U0O7t6bUye6lVsnwTuumgat6a9305pYdgrnLajvYN8LSHJNJbuzYH/g0AVmScttP6ruf6TTtIWVMUzYNTt3Pora1ewz4DKJ6KGbilySFQAABBBCouADh3WJS+7xaRpNwH8jyPbgk3/XzFiwMHqDTB5bc80O30dxRCiQoPPvkfsEIG/Jyh7l0R2zQ5fWhsrCDwndt4euln3R7sp+ko0fo+WaSkTxk2bQjN9jhaJJ1ZR86ooI8zPbIUy8GDzzZvSbd0QtcFz2fdb3tc3d31IYwB3eEEVlOzxPlfEyujXREFXkv7uHAiv9iYIMIINDwAs0d3kWFYtI4R3a9xvQ5qVt+CEsZfnLXIzYqGtJSlnXDPndZt9ef7Hu9LTt5AyhZdpOdfmf2PG6z4BiR4TUlNPSFd25oqAeVBGQnb3ej2XqvdQuG6rQPOrdM7gEpddjnlG5BGaPqoyHhHR8N9B7TErjdccmz+ZAwbvmwD4b2cDxo2B+9bdDwHygAEECg4QUI73KHQL30vIual8INrvQmgh106KdB5+DQG/LaW0wuFq8ccXJoLxy56FxphV+b6ZOuKvhgycW+9Kazh1WMChw16LBDAw0Vfdt3P8V6AeuGaUnDu6hhIH1li+r5qD2TtG3UVi6kpZdhkjkG9eJdhvb0DU3pCwnL7XkXNeymu+1ye97FDbs5JRcI98oN0bph5zXzgajvRoSGUHa7pzkmmyK8S1pu9/ORpj3keEkT3um2fT13pUeezDMTNsSqtN3c+QtyvV5/l/hYbvhvXQAQQACBOhEgvFvckHY4N2zUdUG4Yz/MFjbXtIQ+b777fjAChfswmnuY6PmSjD6w585b59ZZOj9qgC5rXwvoOaecOw44qLf5YPYcc93E+4Ky+c7/7f35ztO1l76cy/TcfouC7cU9xJNm9IgkoyZoWdOO3GCfI9qjYRyx327ByCI6Yoj7cKOeV8l+5T157dNru+ChuyQu+sCjPcKJbENG9tAH99zrFGnvvQcMC/Yl7b3eWr81r7/9r2BEEzkG7If59PiSn6+1Rqf8CBK6v6gAz95P3JD6dfKri2oggECVBZo7vIsLr9z344Z6jHo/bl9Krb3S7OE0Nexye5tJmHXRYXcHc/W589lJzz6Zi0/myJPXbzq2M9vtv37B0JWyjMxN55sLT9aR8PKY0bsUrKPltOsj5Tij583mhteP9c69p/PW6RCkdo/AGVPeDjYpvRBl3sAVV+/gPerChjit8iHK5hFAAIGaEiC8yzVXvYd3erFvX4j6biLokavv2Re42oNJlpGhCTfv2jm4cJdhJ/UlF5160eh+CuQJUF/PsLDAUXu+6UWkXpy7vf/kAv/q8f9r3swNsfj2e7MK5rYrNbyLCnE0iExaF9/wh737DQpunMhLh2iMGp5Rliu1TL6bKXE9NWV/Ucu44W654V2a0CxqWd97aY7JNOUQozQBWdpyu/5R7RE2j46U0ff5cm8O6bb1ZpT92dXPVNSDATX1jUdhEUAAAQQqJkB4t5jS/i6WkRTkgSt7KO+o8+6kDeKORqDraTBmf+/rqBvuQ186DLcsq/NH+/bvO3/te8K5wTzLxx3WJ79Kkl76snCa0SPSjJqQduQG+9pA3B5+8gUz4fJhBQ8g+UbJ0HM+d3QR8UzjEnU+556fqYN7Lq/XRL65zKNGVAk7l9Nz1LDzxqTHJ8shgAACKkB4V3wsyBCTH7z5edFQljp33MprLBvMxfd1bhjNj9/7P9Nl69VyQ0juVhCa6dCSEtxJD74VOrU3rz8zyzx991sF8/tprz3ffHgasNnDhtqldcNICfp2OfwP+d6C7rISHmrPQa2LLCPllwDxzRmzg/rscGAXb5goPf/+75P5wfx8cUEfnzAEEECgUQUI73ItXy/hXdhQO1Fz3vnCHV94Jx8QuUC/9Z6pQVCmw7HYF45RQYmsL/OI6VA1cQGSO/Sl9gCyh0qUi9dzLx8XfHblidRVV14+mPfuq3kLg+GDshje6S8aeQL3wceeC5621iDPDSbtX0qEd4s00oZgaY5JwrtFT5K7r7a5J/tvu/LsRv2OpN4IIIAAAiEChHeLYdxwTh900nPRSoR3GlT5eke5DxTpeXTUCBtR89XGnadrzX0PCLqHS5IRLdzhI5OM5FHKyA3utYFbVntoUPsaKWz0jrBfDmEuacK7uPaWoTk1gI0aUSUsBHSvM+T/9kOZ/OJDAAEEShUgvCuUk+Bu5rR/mTPv3Nf8bsMV829Kr7OhvW8Nwqut9lwnCO/k9dIj7wU/c5eXIM3XG0+HnbTn05NQTF6DbvpTvtebzgUo+wrrleeGdxoY7j+oez7Ak6FErxs81fzzpY/NRVMPyW9fln1s4mtmv9O7F9RTAsNLjphsfMNiytCh+pKg792Zn5gjcnMJ9jh4g1IPP9ZDAAEE6k6A8C7XpLUe3vnmYbOPVL2At4dM0Ys8X2Dk9qzyHfVycXv0kEvM9Bkv54fekQtb+0Iy6tMSd1PA7uEmQ3XKnH3u3FtyUdum9VLmsdvHFDwxW+6wmRriRA1RmXQI0Lh6ipE8Hb3nEYPNZ//50viGLpRl0t740KeGfeGsDu8T1ZsqzTCNUTdudEgi+2aJewPLNxSpHjtic/NdDxUNm+m7+RLW8y7pMZk2vJPj7+tvvi3q3ebrnZk2dEwzbKavrdOUTfcVN89O3X37USEEEEAAgbIECO8W87nnNtrDTc7tJCSTIcCvmXCPiRteMqpBogIk99xOyyO9/2RITvv10aefB+ecUWUJm/Pu5v99OOitptvQ7bo9vuz9pX0ALemoCWnO28KWlZ/fds+jZnbOxJ4nTsqfNLyTtk7qkia8K6W9ox7KLOfYK+sXBSsjgEDDCRDeLW7ysOBOlpCgTHrajZh8QNGwlBJqPTI+d6/thT8H70kwNnbgw+amd07wHk8y195nH841Q2/bO3hfgsHz+94VhGH2q8PyrY2vR54u4xsGVEO/b7/+b8G27EAv7iCX+kgoOXr64ZGL2kNv2kFn3PZ5HwEEEKhnAcK7XOvWeninAYmEFG6QZd88sC/a9KLeN7zKdvseXxAk6TwNxxy6V0FIptvQCdvDAiMJd2TS+f4H7G5699gq+DwlCbU0lJSgTEJC9wlhuai1hyTSD6pu2w14wp5g9V3Qhw3D4ws9o+rivifBorzsIYdsj6inoOOGBrLbMizA1KBN9hkV3umQPG6Aaa9vH09xZYsK76QscetryJw2BEtzTEYFpL4vgbBtq73dHmnL7TtuRl51c1Fv0rD2SFO2sGNFA/rOa66e7zHrOjDnXT2fHlA3BBBAIFqA8G6xj69nnX73y7lqj+6bZCa801JHzWPtnofI9/1hp5wfXB/Iw3QdV/qN6b7ZBrl54lYKHrBrqvBOyq4jeZQb3unDinL9tNcu2wTzz8m8d089/0pRW4UFaWldCO/4rYoAAo0gUOnwTnp6hc2ZJp4SOPXqv5Hp1nvtgFfmfFu98/LmoKHbeLndgOrgNS83dq81d6VS57yLCu5kH7Jdew48d7/S0+7Qs7cN6iXhl/RM0/nl3GXD3he7OR98ZV576gNz7zUvmiG39vHOdafbi5rDT4I1eV114oNmuVXahZbFh66h3B0fDYz9CCSdRzB2QyyAAAII1IkA4V2uIWs9vJNjUS8G7Uns5y342tz90PSgd5Dba01vMsi6csEtk67Pnb/A3Hn/48EwjnYvPb25LzcfTjlyf9OhXetgknoZslK2rT127AnPh51waHAB/Opb75kxN0wKlrODqSThnT0HQ1RIJ3Xbf48dguEyr7313vzcd254p2GgzjOnk8T7Lv7tOusk9vJk7n25J6elLJOvH5kPMtOEdxqqSCg24KDewa8RvUkQ10NM20yWO3zfnkbmVHnwiRnmpVf+EfjaN04keNm0V//g59KWW27SxTzz4qv540H2GxXeyfo6N5962ceTrO8Lg8Vm757bBmW7Y8pj+aeY48I7+wlx8W7fLle33LCirnfaECzNMRl8FnY+rOjGVNgQQloW+cwd0mdns/46v8uXWT9XU8ZdFLRx2nL75prR9pTjfZfttjCvvfWuGZ8bOlZe0s52e6Qpm93W0k5yM04+39dNvC/4XaDhvO87T4fp4mnuOjkjoBoIIIBACgHCu8VYYcNi2gFRXG+3OPq4YRTtc7uoETbi9mNfV+i5YtiIDNUYNjPpSB7ljNwQ9cCW7wGosPAurUva8E7OMcOGSbXfSzKXOedqSY58lkEAgUoIVDq8kyEg9zmlWz6cc8vohmtxQZcb1kWFRTIk5Rk9bzZhoVPYunHBndRByn3D68cW9brT+sm2ZW67PY/bzEjvtweu+1toz7WoOksvvJO3u9Fsvde6oYGmvc91N+8YutzdVzxv7h4zI98j0G4LKe/xV/b0Bq1uz0HZjtTL9yK8q8SnkG0ggEA9CRDe5VqzHsI7uQF/1bi7gpv5ciNfXxos6Fxz+nP7ol5v0ut7dnCnP5Mw64bb7w+CDX1JiDT67OML5kewn0DV5ST8GXFqf7Nh5zXz68rF69vvzfJekNofMB0GyDe8p04Sbw9zI/uSHn4y550bOthDfco+NOzSi393eamzBo92XdyJ7dOEd1KGC66cUBCiaVminoDW/etNILsNbrzkDNPzkFONr5ecPiWty0s480ZuzkLpyRgV3snyrpceSzNmvhmEcu5NALdsEuRJEDd45NiCHmN67Lm9DOXn7vErdbr6vFPyQWnaEEzqkfSY1GWPP2t0fh7CuLlRdN5F/cyJ0ahhx5qB515p1lqjkyknvHM/H1IPu2xSXvmstsvNSecbiitp2bSt+55wbsGQUfL5Pvvkfvnesr4vPh2ekxtC9XRaQF0QQACBZAKEd4udwsITewQMWbqc78u4XvWyfT23iwrV5Hztw08+i5zP1j231f+7w7uHjeThHkFxIyzYD6ClGTUhbrthIzfo+aR7zWM//JZk2My0LlHD0rsBYZiDL7QsN7yTbcqLOe+S/e5jKQQQiBaodHgnPenkpUNC2nvXMMkeTlJ7eY155oiiIEmHgNThKGVbEnxNv+tN89eZRxVVTEK4z2fPC+1l5guakgR3siPpWbfL4X/whlgaGmrPPOlBd/yW14X2nIvalvj956P5sUNWSpmSBJknXt3LG6RKGcICQrcNw3ozStB49KZ/MQNG7RQa1vL5QwABBBpNgPAu1+L1EN7ZB67ME/bB7E+CoWxW77h4Qtyog1vX6ZLrPbRM+7ahi1Z6uUp84ORC+9VcL6S4spe6r2oNDajbLeVCWS6ypXebHYiG1a+U/aipr2x6o8J3A0rXS3PsueUupbxJ2jbpsZtkW+4yadqjlO37Pt96vEfdsJH10pStEu1Xbv1YHwEEEECgNgQI7xa3U9R3sT2SRDnhnd2rfs+dt86PqnDL3Y8YeXjInYfXHn5eRnuQESom3vto8ACXb15n+6hzwzs7pJOH5GQUDhmRYtozfysa/cF39KYZPSLNqAmljtygIZ2UVUZP0FEHLrvudrNg4TdFIxqE9bxL66LD0utQnbJ/fcDS3YcGsNK2xx/eJ3eds0YwWoeOunDn2HPz1wHlhHf28Rn3YF9t/GailAgg0NwClQ7vNMja4cAuZvejN80HchrEHTTsj6bHwRsUVFvnkzvs3O3yw0Rq768eh2xY0LNMA6Pfb7yyOeKCHYPty8+m3vyKuW3kU5FDTbphl8w99+gtrxqZD+63XVYoaooVVuuQL7+UZ/TRU8zuR21i9jhms3wPPK1X1+1/a04au1t+GzoPnl1fsblh6LTQufN0WxdNPSRy6FHdSVh4Jx5De99qpFfekRf18B5iWh+p+44HbRDUR0JHMZw57V/mzDv3NTqPndbFLpfU5crjHwi2HTc3XnMf4+wfAQQQaEoBwrucdr2Fd015ALGv+hSIGm5JhpaUGxu+YXzqUyPbtYoL77JdekqHAAIIIFCrAoR3i1subFQBXUJHJygnvJNt+XrVy1D1MlS5b0QLd1SEsBE53GPQN0JGmtEffMd0mvXTjJqQZuQGe5QN3z7sEQ3sESIkWAsLPNPUS1xkeZ3WQP6vgZlvHxKsnXj2mKKRT2TUDfsBvnLCu6TzYdfq7ynKjQACTS9Q6fBOaiC96W4c9pj5+L3/y1eow/KtTZ+TuhUFd7KAhE3XDp5qnrvv7fzySy79C+MGd/qmhmDvzvykYPs651yYoju/nvQoi3p12Xq1gh6EEnjdccmzBfWKKqf2NPz26//md7PFbmuZ/rnQUcIy9yVDhPrCzaT10eVkv0/e+YYZMfmA0GE+ZVmpz7izHzdffbYwv4vfdV3JHD5i+3xwZ29Tgj37FVWXpj+S2SMCCCCQDQHCu1w7EN5l42CkFNkRkF5qO+5/YlAgfdpX5xSUITN9Q6tmp/SNVRLCu8Zqb2qLAAIIZEWA8K75WiLtKAVpeuHH1Uq2Vc4IC2nKkmbUhLQmWk/dRykjYdhW5bpEuZcyqkpcO/I+AgggUC2BaoR3WlYJ5d579VPTuv2SRWFQWH0k+Eu6vG7f7iFXLSd7u2n3K2Hjwrnf5nsVNkUZ0+xDetzN+eArs0aXFSPDPtmmtI+8Nthm9TS7YFkEEECgYQQI73JNTXjXMMc7FU0h4JtjTZ7YlqGaLhpydIotsWg1BSY/8nQwDJbM65J0mNxqlodtI4AAAgg0hgDhXWO0M7VEAAEEEEAgjUAlw7uvPv86za5Zto4EfrnkEmbptr+soxpRFQQQQKA0AcI7wrvSjhzWahgBfdo36Rx7DQNDRRFAAAEEEGhgAcK7Bm58qo4AAggggECIQCXDu/4bXI1zgwp0231tI3MW8kIAAQQaXYDwjvCu0T8D1B8BBBBAAAEEEEAgpQDhXUowFkcAAQQQQKABBCoZ3jUAF1VEAAEEEEAgUoDwjvCOjwgCCCCAAAIIIIAAAqkECO9ScbEwAggggAACDSEQFt79+OOP5ocffjDt2rVrCAcqiQACCCCAQCUEJLxbYoklTKtWrUzLli2DPy1atAj+yEv/rsS+qrGNFt989/3PcRv23VzwzXMn27FPNNz/uychy3ZoH7dr3kcAAQQQQAABBBBAoO4ECO/qrkmpEAIIIIAAAmULEN6VTcgGEEAAAQQQyAsQ3lmBHeEdnwwEEEAAAQQQQAABBOIFCO/ijVgCAQQQQACBRhMgvGu0Fqe+CCCAAALVFCC8I7yr5vHFthFAAAEEEEAAAQTqUIDwrg4blSohgAACCCBQpoAb3sn/ZchM/dO2bdsy98DqCCCAAAIINI7A/PnzgyEz9Y8OmcmwmbkTDHm5Jx76M/k5w2Y2zgeFmiKAAAIIIIAAAggsFiC842hAAAEEEEAAAVeA8I5jAgEEEEAAgcoJEN5ZAZ0b1hHeVe5AY0sIIIAAAggggAAC9SNAeFc/bUlNEEAAAQQQqJSAfX4g//7pp5+CP9rzbumllzYtW7as1O7YDgIIIIAAAnUrIN+fX3/9db7XnXx/yh/tdScVt/+dRYgW33z3/aIuchEv380F94RCV7efEpKf0fMuTpf3EUAAAQQQQAABBBpNgPCu0Vqc+iKAAAIIIBAvEBbeaYAnNxklwOOFAAIIIIAAAtECCxcuDBaQITM1uCO88wyXKUhyAuIGeQybyUcMAQQQQAABBBBAoBEFCO8asdWpMwIIIIAAAtECbnjn9r6TEE9uPC655JL0wONgQgABBBBAwCMg35Xffvtt0HNdvjPt8E7nvNPV6HlnhXmEd3yeEEAAAQQQQAABBBBYPDpFEosvvvwqGM7DN6m2/EzOsd2LDv2Zb7QMfahuuWWXSbJ7lkEAAQQQQACBJhTwzXtnD5+p/9a/7Yflm7CY7AoBBBBAAIHMCOj1st3DLiy4811XZ6YiTkEYNjOrLUO5EEAAAQQQQAABBOpWgJ53ddu0VAwBBBBAAIGyBKJ639mBnfxbgzt3CpuyCsDKCCCAAAII1IiAHcTZAZ782w3yaq3XnTQB4V2NHIgUEwEEEEAAAQQQQKB+BAjv6qctqQkCCCCAAAKVFPCFdxrSaWBHcFdJcbaFAAIIIFDLAnEBnoZ2hHe5Vnaf9nG7+8uBoCcdzHlXyx8Lyo4AAggggAACCCBQqgDhXalyrIcAAggggEB9C7jnCHbvurB/uyJpzjPqW5PaIYAAAgjUo4Bvrjo3pPP937bI+nx3UlZ63tXj0UudEEAAAQQQQAABBDItkOamGnPeZbopKRwCCCCAAAIVFwgL8GRHDJVZcW42iAACCCBQBwK+HnhBAGbNH6/VrIXgLij7N999/3Nc2/huLrjd+HUb9LyL0+R9BBBAAAEEEEAAgUYXILxr9COA+iOAAAIIIBAuEHUfLmx+uzTnFtgjgAACCCBQLwJuEGeHeEEAlgvv3Bfh3c+LMsFaGDbzh9wkv1/OnW9++jFX5uK2rJfjmHoggAACCCCAAAIIxAnI6WDLFubXHdqaVi1bxi1d8vtpbrDR865kZlZEAAEEEECgZgXCzhV8vfJqtpIUHAEEEEAAgQoJhIV47uZrJbiTcjd8zzuZ5PfzL+cuakNJYWP7IVboaGIzCCCAAAIIIIAAAtkTkNPBn34Ons77zTLtTctckFeNF+FdNVTZJgIIIIAAAvUlkOR8Icky9aVCbRBAAAEEECgWSBLKJVkmS7YNH959/uW8XI+7n+hxl6WjkrIggAACCCCAAALNLZAbRaJVq1ZmuWXaVaUkaW600fOuKk3ARhFAAAEEEKgZgTTnDTVTKQqKAAIIIIBAEwnUWminLA0f3s35z1eLetzR5a6JPirsBgEEEEAAAQQQqBWBFmaFX7evSmHT3IQjvKtKE7BRBBBAAAEEalYgzXlEzVaSgiOAAAIIIFCiQK2GdW51Ce++yIV3vBBAAAEEEEAAAQQQ8Ais8OsOVXFJc9ON8K4qTcBGEUAAAQQQQAABBBBAAAEEEMisAOEd4V1mD04KhgACCCCAAAIINLcA4V1ztwD7RwABBBBAAAEEEEAAAQQQQKDxBAjvCO8a76inxggggAACCCCAQEIBwruEUCyGAAIIIIAAAggggAACCCCAAAIVEyC8I7yr2MHEhhBAAAEEEEAAgXoTILyrtxalPggggAACCCCAAAIIIIAAAghkX4DwjvAu+0cpJUQAAQQQQAABBJpJgPCumeDZLQIIIIAAAggggAACCCCAAAINLEB4R3jXwIc/VUcAAQQQQAABBKIFCO84QhBAAAEEEEAAAQQQQAABBBBAoKkFCO8I75r6mGN/CCCAAAIIIIBAzQgQ3tVMU1FQBBBAAAEEGkbg559/bpi6UlEEEEAAAQTSCrRo0SLtKplcnvCO8C6TByaFQgABBBBAAAEEsiBAeJeFVqAMCCCAAAIINLYAYV1jtz+1RwABBBAoT6BWwzzCO8K78o581kYAAQQQQAABBOpYgPCujhuXqiGAAAIIIJBxgSShXZJlMl5NiocAAggggEDZAkkCuiTLlF2QCm6A8I7wroKHE5tCAAEEEEAAAQTqS4Dwrr7ak9oggAACCCBQKwJhoZz7c8K7WmlRyokAAgggUE0BN5gLC+pqKcAjvCO8q+Znhm0jgAACCCCAAAI1LUB4V9PNR+ERQAABBBCoSQFfIKc/c//WChLi1WRTU2gEEEAAgTIFwkI7/bkvrKuVAI/wjvCuzI8HqyOAAAIIIIAAAvUrQHhXv21LzRBAAAEEEMiqgK93nR3ayb/DQrys1olyIYAAAgggUE0BO6yTf7v/t/dNeJc7kZCXe3KhP5OfL9uhfTXbK9G25xDeJXJiIQQQQAABBBBAoBEFCO8asdWpMwIIIIAAAs0nEBbcaWAnNxxbtWqVvynZfCVlzwgggACAscDIAAAgAElEQVQCCGRPQL4vf/zxxyCX0hDPDvO0xLUQ4NHzjvAue58wSoQAAggggAACCGREgPAuIw1BMRBAAAEEEGgQATu808DO/vuXv/xlg0hQTQQQQAABBEoX+P7774vCOzuwI7zL2dLzrvQDjDURQAABBBBAAAEEmleA8K55/dk7AggggAACjSbgC+9++uknI38kuKuFm42N1mbUFwEEEEAgewLyfSoBXsuWLYM/bu+7Wvg+peddE/e8e//f/zbvv/9v88dtt8veEZ3hEs2c+Xfz6isvm0MOPTzDpSy/aHJ83DR+nDnz7OEFG/vyyy/NFZePNrv17m26dv1D+TtiCwgggAACCCCQSIDwLhETCyGAAAIIIIBAhQR8c9tpeLfkkktWaC9sBgEEEEAAgfoX+Pbbb4vCO3suvKwLEN41cXi3Qed1zJw5n5qJd95FgJfi03HO2WeZGc89ax54eGqKtWpv0Scef8zst/de5tP/fFlQeAkvd9lxe3PG0DPN8SeeVHsVo8QIIIAAAgjUqADhXY02HMVGAAEEEECgBgWiet3J/D1LL710DdaKIiOAAAIIINA8Al9//XUwT2yt9r4jvGvC8E6CmX6HHmI22XRT0659e/PX625onqO2Bvfa6OFdDTYZRUYAAQQQQKAuBAjv6qIZqQQCCCCAAAI1IeCGd9rjTv6W8K5169Y1UQ8KiQACCCCAQBYEFi5cWBDe6fCZWrasD51JeNeE4d2RRywa8vGoY44NelG99c6/zDLLLFOx41iGVqzk9rRgababZlm34lHruuFd0v1UerlKNFZUmcJ63iXZb9K6yrbSLJtk3yyDAAIIIIBAvQoQ3tVry1IvBBBAAAEEsicQFt5JcCd/2rRpk71CUyIEEEAAAQQyKrBgwYIgvHN732lxCe9yEwPKS05A3HG7l+3QvtmbdU4ThXcSlqyz5m/Ng1OnBXOWdd9iM7P3vvsVDYEowyMOGXS6d3hIee/Qgw40r7zxVt5NtnvUkUcYCX309YeNNjbnjbywYG60NVZb1bz3wYdeb3lv2hPTzer/8z/B+zJsY7cttzIfzpplJtw0rmC7t0y8oygg1DL//W8vBcu2bt3GHHLY4UXztvl2LuU//dRTzL333B1Zfg3v/jzgKHPm0CHB0KPyWmGFFc3lV15VNATpqSefVFR210TWl+2Ov/EGs3DhgmB7Prsxoy8zzz7ztFm383pm6sMPmXfe+WcwfKX8TJx8w1iKSZ89eufN4+qpx4drJHMjyhCr8pJ2mnTP5IJ2nXz3/xZ4+Oy1LLKuHD9qJ8ueOXx43c8j2Oy/ZCgAAggggEBNCxDe1XTzUXgEEEAAAQRqSsA3350Gd/J327Zta6o+FBYBBBBAAIHmFJg/f34+vJMAT8I6/SPlIrwjvAuOz/HjbjCXXnxxPniTQOjO2yeap557vuD4lRDuopEXeMM7X68sCQFX6djRjLxoVBC+vf/vf5vzzzvXTJs61bz08qv5oG3F5ZYpmkdNdyzv2XPw7brTjubtf/wjGN7T3u6g0waaj2bPLiiz7G/7P24dhHXHnXBisD8p57AzBpvNt+hmLr70ssjPp5S/bbt25uqxf40sv4ZssrHrx43Ph3XieP6Ic/KhqLwvy0rINuHWicE2NTh7/rnnCoJPCfhkHr1zz78g2J4sd8Xlo4Mwzw4zZXtXXzkmCPZOGzQ4qM8GG3Y1E8aPM9df+9eCbWpltZelDo0qpu1y9VRPLdNbb7yR9xS3V195JaiPBnarr/4/+VDVbScJ7k4+8QRzwkkn5wNE/ZkdnupxI0Hnyaeemg/r5Jg856yzzKWjLze99/xTc/4eZd8IIIAAAghkVoDwLrNNQ8EQQAABBBCoOwHCu7prUiqEAAIIINCMAoR3OXy3W7+0h33Cof9v5J53bk87tyeeHsNpwjs3ELQ/Bxt0Xsf0639kPtRJG95JSGf38JNtS5k33rBLQdgjAdiHH87Kh01aBuntJUODznjx7/nwyf2cavmfePrZot58EnbtvMuu+fJrgGaHjLo9X1AmPfTcQEr2d8ihi4YuDfOX96TnoT0noez7rjvvMG45w7bhc5JtXvPX64rqKe2ivTFl31HDZrrhndvG9jEkcytqT0vd5oWjLinqZadBpxsiN+PvVHaNAAIIIIBApgQI7zLVHBQGAQQQQACBuhZw75vpnHfS6+6HH34IHgrmhQACCCCAAALJBObNm2eWWGKJomEztccdPe/oeWc0yHLnuHNDJw1vkva8k+BMXr7ebdIjTl46FGba8E56zZ159vCiT4GEUDJ8pL4nAdI5I87z9tySwHLgaaeH9uqKKr87x11UyCThlB1WSRnl5QvLtEIS5F33l78U9XyU96X32qiLLsy/55bFRvG1YVSoaq+r4Z8dSCYN73TdsHkT7aAvapt6bH76ny+T/cZjKQQQQAABBBpMgPCuwRqc6iKAAAIIINCMAoR3zYjPrhFAAAEE6k6A8C7XpPS8iz6uJeCZN3duUe80DZ3s4S3T9LyT3mlhIZtbokqFdxJkyUvDO9nu7nvsaTp2XLUIQXqr7bX3PqFz30WV33WICtDccEoCqeOPPiqYm06Gw5R56XbvvUdBD0DtTSflc1+zZ38YzMGngVbcviU4tNtQQssdd9q5qN4S6j3z9NNm9ocfGp0fUPZdSngXFcjJNsVWhviU+sctG3Vs1N1vbCqEAAIIIIBASgHCu5RgLI4AAggggAACJQsQ3pVMx4oIIIAAAggUCRDe5UgI76I/GWustmowf5z0WHNfMpeaPZxhPYV3Utfdevc2Xbv+wQtUrfBOdyYh3n2TJwfz2klYJiGjzkEXFd7J+h06dCgYslO28cDDU731kN6HOpec9HjcfJM/FAwXKr3kdt91ZyO/LGQo0y4bbGB0Ljt3KMykPe/iAjnCO76tEEAAAQQQqIwA4V1lHNkKAggggAACCMQLhIV3MmSmDJ3JsJnxhiyBAAIIIICACsj9+FatWgVDZ7Zs2TL4I0NlMmymNVymYMkJSCPOeSe9rc456yyz1tprez8183MHkLx0zjF3CEh7JRnO8c/9++V7hKUdNtOeW0236xu6MSpUc3veRQ2bGfdrIqr8Y0ZfZh568IF8YJZm2EzffiVU691r13zIFjVsprt+VM87WVbKeuftE4M29M0BGDYvoKxbangXN2ymBMbXjxtPz7u4g5D3EUAAAQQQiBEgvOMQQQABBBBAAIGmEqiH8G6DDbuZCROuNV3W79xUbPn9HHroALPZ5puYowb0a/J9s0MEEEAAgewJEN7l2oSed+EHZtzQlm5PLV/PLd26DL9pD+cYNbeaO3Sj3TvMLq1s4/SBpxQM3ZgmvJMyyTCQbq80CZeuuHy0Oe6EE80yyyzjBYoqv1sGCdCkl6IvgHTDMdnuIYceXrRPe5vqbA9ZqStISCqv3nv+Kfg7LrzTIE3K1meP3ubS0ZcXzPMX5umzj5qDzg36wtrUHY41rpcew2Zm74uFEiGAAAIIZEeA8K76bfH+7E/NB7M/8e6oyzq/M8u0b1tWIZ6cMdM89fwr5qC9djard1yxrG0lXVn3ecyhe5Vd/qT71OW+nDvfbNqrv/n6m2/NBYMGmIP77Jx2E1Vd/qZJD5lZH31qhp5waMF+5Dg4duilZt01VzcXDTm6qmVg4wgggEBWBaoZ3k25/2HzxutvBlXv2HEV07PnTrlRh9rHUrz62hum06odEy17yy13mKuuvtY8+0zhyEWyjQcfeCTYV7v27cyuu/Qwq+UeOrZfX30117yWWy7s1T5X1qhA8IMPPjQ79uhtpj4yuWDbTz31rHn22ecT1TtJObV8Ut7bJk7KTZOz6KH8XXbt4S2fbHNublnfa/1cwJmkDWRd2Y68fAZS91mzPjTdu3eLbc+k5dYNRe3X3Zls+/7ccTZ79kfBW53XW9f0yh1nvpe0S9grST1iK8oCCCCAQE6A8C6HQHjn/yxEBXH2GvvtvZdZddVO5uJLLwt+LP//aPZsM+HWifl52qR31+WXXWoWLlyQ73knodEft+pmNttiC3PhxZcEIZn87PRTTzHTpk41056YXrS+9saS/Uioc8Kxx5g5cz4tObyTOm7/x63N9jvumC+D/GzQaQODOmiPwtAv5Nz8cKt07GhGXjQqKKtdfnseOQnQxt94g1l55ZXNmKuvyQ/FKS7njzinoPwSXK7TuXO+PLJv7QFp119Cv/+9a1K+h5q9nB3AxYV3sp6EmM8/91xQzVfeeKugur59S0B48oknBO3pBojSa+6Qww4vCj7d8E63cebw4fmwUoM7WV/nJSS847sKAQQQQACB0gUI70q3S7rmiMvHmWsm3BO6eNf1fm8mXD6s5BBMt3/rlWeZbTbvmrRYZS3X69DTzMzX/2macp9SYAnuevcbZD6Z84UZlgvHshbcSRnV5qOXCttcAs8Djh1upL2njLuoLH9WRgABBGpVoBrhnQQq++x7SO7ez2dm6623zA292dY8/vhTufsRC2N7yEngN2TIcHPv5NuLwjafcY+d9jCHHHyAOfDAffJvH3f8qebhh6eZbltsatZZZy0z7bEnzfvvzzJnnTmoYDkJiYYPv6Bos/PnLwiW32mn7c0VYy4ObdohQ8/J3aSdX7DMXn0OMu+++69E9U5aTimAuqywwvJm++22MW+99bZ59rkXvGX8/Vp/yE2d0sm0bdumqOyXXnJBItdrxl5vLrvsKrP++uuauybdXLAdCcGOPW6g+Sb30M4/3/575KGfptyyoaj9ujuS9uvbt79p3bq12Xbb7kFbTJ/+jBGjO24fXxBSSpn7HXFsUB/31bZNGzNu3Nha/QhTbgQQyJgA4V2uQQjv/EelhD5vvvF6EM5EvTRE09BHAqwD99snmKdNX3/YaGPz5wFHmTOHDikIh6Sn1pBBpxcsu8IKK5pxN99SNNechFUTbhqX36Yut8uO2xfM0SbhYbctt8rP+WaX3R02U96TMhx60IFBCKgvmV9OA8WouofV9byRFxaUX0K6Z595OiiXhpiy3dat2xT1dPNtU+p6zojzCnrEyfo+E3c53XdUO2pAdvSxx+dDM9dNwkcJ6+Sl5ZEAzw4U5T0J5aSdxVPq917uCSp5Sag36Z7JBS4aDOp2ZXk7uNP2kR6Buh23Peh5l7FvFYqDAAIIIJApAcK76jeHhmuDjjnIdFlnjfwOX33rPXPn/Y+b997/yKyx+ipm+qSrSipMI4V3EoCNvXmyOf2oA82GndcsyavaK4WFd7JfKX/73M3NrJa92jZsHwEEEKhGeCcBlgRgboAiYZWEK08+8aC395f05tq9975mQG4IyiTDUGp4Y2/vwgsvM7fedmdRSCg99IafM9Jcf92Vsb3FZCjMjz/5tKj87tEiw3VeecWo/PZk35PvzU3Hcv+kgvrJ9uYvWFAQgqUpp4Sh2/xxlyIXqX+fPn2L6iThXZJ6+o5+2deJJ55uZr78qum6YRdvua+/YUIQGkpAGhXepSl33H7dsuq2JRy2A1YNjiW4tENHDe/iwkZ+IyCAAALlChDe5QQJ78o9jPzrSwj1ysszc0/o/E++B13YntIsK0FT+w4disK9cmshPe7ef//fwTxraV9pyi/bTlIH3WaSusr2kjinrZe7fJJyl7IPCVDnfvVVSfal7I91EEAAAQQQaBQBwrvqt3RcuLZ1n2OCAO/q8wea3j228hZIepyFDa8Zt317g1HbiZOw143reVfOftKUI2rZNGVIs6zsM2r5qPCuUnXT7aQtd9z+eR8BBBCotkClwzsdSjIsPOq25Y7mmKP7F/SA0zpK6JemF5SEgfKywxvZfu/ddzWnn35SEZ1veXch6U03ZcpDsT3/fMN1Sph32qknFtVNQzY7OEpTTumNNmHCxKKhQaXsEgxK70Ktr4RXm262bdFQnkmOIynnwIFDgkWv/esVZmJuiM4XXvxbPgSTfUmoJ4GlvKQnW1QYlrTccfv1lV38L7p4tDcI9g1nKj0Azz9/lNcwiQ3LIIAAAkkFCO9yUoR3SQ8XlkMAAQQQQAABBBCoJQHCu+q3Vly4JnOkDR451hy4Z4+CudAmP/K0OfvS681n//kyX8jddtjSXDB4QBDkXXHjJDPyqsKhpXRBe8hGdztLL7WkOSQ3T5w7J5tP4uU33jFDL742GCJTXrrujJlveofNlLqOz9VH5qOT1/LLLWPOPrlfaCip+9z/2LPNS6/8w4wadqy59tZ7g21vvfmG5rYrzw4WccshP7Mt7LK7ZQirrwRfgy8Ya+579Jn86jKk5YhT+xf0jNOyXXfx6ebEs8fk20PqdtIR++aH7pTlps94uYjRHiZzze77mY03WDtfL1nYVw6fmxj0PORUIz04P/z4M3PL3YvmVpJXuUOvVv9TwB4QQACBRQKVDu/iQpKwAE2CnrG5P2G98tz28oVUccFV2Px4um0NhCZMuDZyrjtZ3jdcp4SPYcNSSm+4SZMmBNtNW04pl8zp5gskpQefDKGpwz6W08PMHQZUtq3hnQRi/Y88Lt8bMcl+kpY7ar9hn1PfkKX2sm5IbNeFzz4CCCBQTQHCO+vkwj3R8J146M/khGTZBBPjVrPxZNtzvviq2rtg+wgggAACCCCAAAI1KkB4V/2GiwvvfHOhSeB29BmjguE0j9hvN7NaxxXM/dOeCwIbDYMkzJmSC540SJMwq+NKvwkqpMGcvZ1Tjtw/eG/ivY8GIZMbFroSEiptt+/xQVil25634Gtz90PT8+GcPefdaeddHZRPQrcBB/U2H8yeY66beF9sr0LZr/ZWk39Lndu1aW3WXXP1IMx8f/anZsf9TwyKJ/Pc2RbucKMDBl0chHFitHnXRfPMPPLUi0EZ3Ppqj8ej+u5hum+2gZFhTMfcMClYZ+pto83qHVcM/m2XTerWOVcu20F7TIr1a2+9a+568MnATLYrr06rrJgP+FbZeI+COe90Dj8pnxh323h9M+ujT/MBqN0bU48TCSPbtF7K7LXLNsH2tf2jhl6VY2XvAcOC5d95aqLb1PwfAQQQaDKBSod3cSGJ733tmbbccr82K620QlD3HXbY1uy/Xx/v8JryvoR9jz76eKqhEaMCJ33PnRfP1xC+4TqjGkznfXvl5WeDxeKCr7j37X1JiLjnnrvlhxnVdSUofPCBRQ+VtGvfzuy6S49Ec93Z245qS18ZZfnO661revXcKfb4dcsdt1932xKUbrrJRt5AU7blvq91OeywvuaN198Mdtex4yqmZ66sHTJwrzgWjAUQQKBmBAjvck1Fz7uaOV4pKAIIIIAAAggggEAKAcK7FFglLlpKeCe96h5+8gUz4fJhBcNlau+uZ+4Zmw+XorbfdefDglI/dvuY2O241dOefW7opT3AZHkN7yRg23KPAQW95eR9DQDl3zMfujFUUAMy6VV23GF9CpbTQO7+8RcX9IjT8l0waEAQjmm57J5udhkkUHt92oTAQXs7uvvTbUiQNnbkouHRtGyug4ZpbmgWNWymG95pOSTos3tCqqf0wFM3O7x7Ycq1Be0ZN4ypriv1sXtllnhIsxoCCCBQskAWwjsJcubM+cz06rWz2WKLzcyHH84Ogrl33/1X0dx1WlHf8JtxoVfY+zrX3gorLG+2326b2FAnyfCbWk6dg22TTf5gzhtxZvDjUsvpNrL2FLx38u35YE7n9pNlu22xqVml48rmxRf/nptyZpbZe+898mVIcsCkDe+kd+H6669bEKj69uMrt72cb7/uttOGd9JmMkffUrkHbmSePHn97W8vm4ULF3qHOk3iwzIIIICAT4DwLqdCeMeHAwEEEEAAAQQQQKAeBQjvqt+qpYR3vlLZwyvaPd7Ctq9BlK+HnfbI84Vlum8NCt3QTN53wyIN0nzz9mmPPN92dF9RgZcMNbnSCr820yddVcAiHutt3zcfGGoZfHXSXnHHHLpXEHpp3TTMszcsPfI+mfNFvoeals0OTHV57b1nB2JpwrskxrpfDeB87RkWAtr1kvXltc3mXat/0LMHBBBAIESgucO7qCBHApePP/6kKAwKG5qz1FBMwjuZ301e8+bPD8IuCRN9w2fGDXlpM2twJz+74/bx+R5epZbT3raGdG5PQbGZdOfd5uRTjisY+lP2eexxA1MFVWnDO9lH+1wvNhkaNOwVVm57ed9+3W2nDe9km7M/+tice87Qgp520oPzssuuKmmOQH6pIIAAAj4BwrucCuEdHw4EEEAAAQQQQACBehQgvKt+q5Ya3knYcts9j5rZn36en3NOS5skvNOwR3pvrbLiouE09TVvwcJgKEm3x5e9TFQIpYGclkPrqENe2tv5KFd+6fVml9lVjwu8ZKjItdboVNRYMjee9rSLc/bVTdZ1X2+/NysYFlQDuaiy+Xq8xdXF7hmYxljb09dmUe9V/whnDwgggEBygeYO76KGT9SgTOeK01odeugAs846axUNmViJUEz3IWHPrbfdaXSoS/25b7hOn3ZYcCfLllvOJAGYr0xSp2mPPWkeefieRAdI2vAubqNJyx039KrsJ214F1U22dbaa/8+Va/EuLryPgIINK4A4V2u7QnvGvcDQM0RQAABBBBAAIF6FiC8q37rxoVKGrzIfGq3XXl2UCANxyR4k7nNZN40mevtqedfMddMuKcgCAvbflR4p7Xuf8DupnePrbwIaYKlqPBON37liJPzQ326O4wLvMLCO9mOzG0nQ07GOdv71P35wjtZrm2bpfNtQXhX/c8Ie0AAgcYRqHR4FxduucGMDId4/XVXmu7du3nR3fell9yOPXqbF55/vGiuMp07759v/927rbjQzF3JVzYZrvOMMwZGzusWFdzJPsopZ9IAzAeQtv6VDO/SlDtJeBcW4Gq948I92yfJ/hrnNwI1RQCBcgUI73KChHflHkasjwACCCCAAAIIIJBFAcK76rdKXKikwz1qjyod7tIO87SUOsximp539vxtaWqbZEhHt+edzj+XZj+ybFx4Z8/9FrZtdfaVQYJMCT512MyooTDd7euyYUNsSg/GUofN1G1HDU2q79HzLu1RxfIIIJBFgUqHd3EBkRu6xIVhboA2ZOg5Zt68+eaKMRd7OaPCQDdYlECpZ8+dikJA3bC7rbDhOu2CxAV3Ydu2txEWgCYJwCS0uvSSC/Jz4NnblfIPGTK8qDdh2HFZqfAuSbntMiQJ0+KW2WDDbubKK0YFobCEpZdecoUZN26st6pyTH00++PQ97P4uaVMCCCQXQHCu1zbEN5l9wClZAgggAACCCCAAAKlCxDelW6XdM2o8E6Cur0HDAuGaXRDGnduM5njbdNe/YNl7fAuaq43mS9OXi9MuTaY601fMkfaHVMeM1G94dxQUdfVcFH+r+XQn9lDQury0ovww08+y/dk87lFhXe+wFK2IfscevG1RnsPhpVB3Lbb9/hg6E6dPy6sbrLs0UMuMZ3XXD3ozScvLZs7XKXuT4YKtefjiwo9V9l4j/wwn7LtqHJIW7dpvZSZ+dCNQTnKDe+Y8y7pJ5blEECgmgKVDu8kvNrmj7t451bTXnN2T7uwee2kzjofnj10pR3K+FwkvFp55ZW84Z4Ehb133zU/3GZU7ywNIe0efnG9vZIGd1LuNOVUi+HnjDTuHHeugVtH+30pv7zCQix3W5UI79IGd1KGuGBOltH2mfrI5KKgUo+bJ594MAhmfced1lXabNeefUzfvvuZowb0q+ZHjW0jgECDCBDe5Rqa8K5BjnaqiQACCCCAAAIINJgA4V31GzxqSEmZs01edu84Denk54f02dl032wD88HsOeay6243CxZ+UxTevT/7U7PlHgOMDC25585bm3a5IR8P2mvnYIhKCekGjxxrJGA65cj9TYd2rc39054zt9z9iJHebI/dPqYg1LM17LBQyrfLdluY195614zPbVNebog4YNDF5r5HnzHSY3DAQb3NV/MWmon3Pmqmz3g5+JkOCeoTjwrvNOCU9YblAjUZPvTVt94zY26YVBB6yvu6HdnffrvvYObOWxCElOLsGvfuNyg/758aXzfxvuBng445yBx3WJ+gqLpNbSfbQQyuPn9gwdCjaq5Dnsp6GgS64Z0dLEpY23P7LfJtLWGj3YuwnPBO15Wy2L0Eq3/0swcEEECgUKDS4Z1sXeeLO+3UE82BB+4T7FB6Pw0cOMS0bdvG3DXp5nwhNOzrumEXM3z4kCCIkZ/dNnGSGTv2+oIQUEKZ8TfdGjlnm4Y6/Q7va/7858Pz4c2oS8aY6dOfMRroSAF02ZNOOsbsv1+ffA887aHWq9fO+XnQoobr1MrI/H1z5nxmzjvvLNO+3eIHdPT99dfvnN9HmnJKeU4+ebDZaaftzT5771l0CLfPBVRdctuWly5r10nKrvWfMOHa/LJxn4W04Z0bhqYpt10W3359Qav8bP78BWbY0NPyw65q2x2w/94FcyJK77opUx4K2qZXrrelfUzKv++4fXxoD8w4J95HAAEEbAHCu5wG4R0fCgQQQAABBBBAAIF6FCC8q36ranjn25P0VNun13bm4FxIZ78ksDrslPOD3mL6knBHgjmZ884dZlECIwn3dHm7Z568d+7l44KgS18SZF0weEBocKfLpS2HztWn60ugKAGkhldh2hKQvf3eLPPOUxO9i/jKIXYjTu1vNuy8Zn4dCcMGXzA2CBHtMkioedGQowu2Lcv2PeHcINjTlwRuZ5/cryCM0/BOQrqzL70+byx1kzDRbTvZljjc/dD0vLkGZhLeuUGmhK/HDr20oBy+bZcT3tm9JQnvqv+ZZw8IIBAuUI3wTvamAd431nedhE/nnjO0KCSRcOnkUwab1157M1/Q5Zb7ddHcchKOHXLwAflAMKxWOrzlf/7zRX6R9ddf15x11uCi4EpCtHNHXGTef39Wftmlct8nvvAnarhODeOijjUJ1OzeXUnLKSGVbePuQ8pr905Mut24z0XU/IW+eftkmIHJmssAACAASURBVNFuW2ya79mXttxaHt9+3W3LshLyDjtzhHn44WmRbadvpjkm42x4HwEEEAgTILzLyRDe8QFBAAEEEEAAAQQQqEcBwrtst6oEOx/M/sRss3nXsgsqAc7c3BPjpWxLy9Flnd/FBn5SUAma2ud6O9jBWtkVyG0gTTmSlkFCvFdzPQpX67hS0FvRfbm9AstxjDLQclTDrRL2bAMBBBCohEC1wjstm4Q8c3Mhi8w9FveSMOa13PKdOq1aNBSibKdv3/4FPefitieh4KxZHxq7x1vYOrpvuxebvWzccJ1xZYl6P0050+ynWttNU4amWlbC07C2c8uQ5phsqvKzHwQQqB8BwrtcWxLe1c8BTU0QQAABBBBAAAEEFgsQ3nE0IBAtEDWkJ3YIIIAAAukEqh3epStN+NISzsydNz8/5GGltptkOxKCPfDgI8yJlgSLZRBAAIEGFyC8I7xr8I8A1UcAAQQQQAABBOpXgPCuftuWmlVGgPCuMo5sBQEEEBCBWgnvaC0EEEAAAQRqQYDwjvCuFo5TyogAAggggAACCCBQggDhXQlorNJQAjJn4exPPjdjR57aUPWmsggggEA1BMLCux9//NH88MMPpl27dtXYLdtEAAEEEECgLgUkvFtiiSVMq1atTMuWLYM/LVq0CP7IS//OauVbfPPd9z/HFc4eFlOX9Q2VKe/ZJxru/92TkGU7tI/bddXfn/PFV1XfBztAAAEEEEAAAQQQqE0BwrvabDdKjQACCCCAQC0KEN7VYqtRZgQQQACBrAoQ3lmBHeFdVg9TyoUAAggggAACCCBQigDhXSlqrIMAAggggAACpQgQ3pWixjoIIIAAAgj4BQjvCO/4bCCAAAIIIIAAAgjUqQDhXZ02LNVCAAEEEEAggwJueCf/lyEz9U/btm0zWGqKhAACCCCAQDYF5s+fHwyZqX90yEyGzcydYMjLPfHQn8nPGTYzmwc1pUIAAQQQQAABBBBYJEB4x5GAAAIIIIAAAk0lQHjXVNLsBwEEEECgEQQI76yAToO5sL+Z864RPhLUEQEEEEAAAQQQqB8Bwrv6aUtqggACCCCAQNYF9L6Z3lf76aefjPzRnndt2rTJehUoHwIIIIAAApkRWLBgQb7XXcuWLY380V53Ukj735kptFWQFt989/2iLnIRL/vkQRdzTyjcn9tBnZ50EN7FSfM+AggggAACCCCAQJYECO+y1BqUBQEEEEAAgfoWCAvvNMBbaqmlghuPvBBAAAEEEEAgWkC+O7/55psgvNPgjvDOM1wm4R0fJQQQQAABBBBAAIFaFCC8q8VWo8wIIIAAAgjUpoAb3sn/7d530kNAAjxeCCCAAAIIIBAtIMGdfI/a4Z3Oeadr0vPOCvPoecdHCgEEEEAAAQQQQKCWBAjvaqm1KCsCCCCAAAK1L+Cb984O8OQm5C9/+Ut64NV+U1MDBBBAAIEqCMh35vfffx8MOe0L7jSwy3pwJzQMm/nFV1U4RNgkAggggAACCCCAQD0IEN7VQytSBwQQQAABBGpHIKr3nYZ42iNP/tY/UkPftDe1U3NKigACCCCAQDoBO4jTXnU6NKY9VKb+rJbmuyO8ywnMIbxL94lgaQQQQAABBBBAoIEECO8aqLGpKgIIIIAAAhkQ8IV3GtBJeEdwl4FGoggIIIAAApkRiAvwNNSrtSEzCe8I7zLzIaMgCCCAAAIIIIBAFgUI77LYKpQJAQQQQACB+hVwe8/ZvevC/u1q0AOvfo8PaoYAAgggkBtOMjcHrPtyQzrf/+11GDYzp+GO1S1AerKxbIf2zX6s0fOu2ZuAAiCAAAIIIIAAApkVILzLbNNQMAQQQAABBOpWICzAs++p2ffb6haCiiGAAAIIIJBQwNcDT1Z1e9zpzxJutlkXY847hs1s1gOQnSOAAAIIIIAAAlkWILzLcutQNgQQQAABBOpTwNdzzg3rfAFffWpQKwQQQAABBMIF3B50dogXFtTVQq+7oOzffPf9z3GNH3XSIOu643HbP6PnXZwu7yOAAAIIIIAAAghkVYDwLqstQ7kQQAABBBCob4GwoS8J7eq73akdAggggEBpAmEhnru1WgnupNyEd/S8K+3TwFoIIIAAAggggEADCBDeNUAjU0UEEEAAAQQyKpBk7roky2S0ehQLAQQQQACBigkkCeWSLFOxAlVgQ4R3hHcVOIzYBAIIIIAAAgggUJ8ChHf12a7UCgEEEEAAgVoSIKCrpdairAgggAACWROotdBO/QjvCO+y9lmiPAgggAACCCCAQGYECO8y0xQUBAEEEEAAAQT+vwBhHocCAggggAAC4QK1Gta5NSK8I7zjc44AAggggAACCCAQIkB4x6GBAAIIIIAAAggggAACCCCAAAJNLUB4R3jX1Mcc+0MAAQQQQAABBGpGgPCuZpqKgiKAAAIIIIAAAggggAACCCBQNwKEd4R3dXMwUxEEEEAAAQQQQKDSAoR3lRZlewgggAACCCCAAAIIIIAAAgggECdAeEd4F3eM8D4CCCCAAAIIINCwAoR3Ddv0VBwBBBBAAAEEEEAAAQQQQACBZhMgvCO8a7aDjx0jgAACCCCAAAJZFyC8y3oLUT4EEEAAAQQQQAABBBBAAAEE6k+A8I7wrv6OamqEAAIIIIAAAghUSIDwrkKQbAYBBBBAAAEEEEAAAQQQQAABBBILEN4R3iU+WFgQAQQQQAABBBBoNAHCu0ZrceqLAAIIIIBA9gV+/vnn7BeSEiKAAAIIINBMAi1atGimPVd2t4R3hHeVPaLYGgIIIIAAAgggUEcChHd11JhUBQEEEEAAgRoVIKyr0Yaj2AgggAACmRCo1TCP8I7wLhMfIAqBAAIIIIAAAghkUYDwLoutQpkQQAABBBBoDIEkoV2SZRpDi1oigAACCDSyQJKALskyWTIkvCO8y9LxSFkQQAABBBBAAIFMCRDeZao5KAwCCCCAAAINIxAWyrk/J7xrmEOCiiKAAAIIRAi4wVxYUFdLAR7hHeEdH3oEEEAAAQQQQACBEAHCOw4NBBBAAAEEEGhqAV8gpz9z/9ayEeI1dSuxPwQQQACBLAiEhXb6c19YVysBHuEd4V0WPmOUAQEEEEAAAQQQyKQA4V0mm4VCIYAAAgggUNcCvt51dmgn/w4L8eoahsohgAACCCAQImCHdfJv9//2aoR3uRMJebknF/oz+fmyHdo3+8E2h/Cu2duAAiCAAAIIIIAAAlkVILzLastQLgQQQAABBOpTICy408DO97crQS+8+jw2qBUCCCCAwCKBsN50GtqF/W371UKAR887wjs+8wgggAACCCCAAAIhAoR3HBoIIIAAAggg0JQCdvDmBnU//fRTcMPyF7/4hffGZVOWk30hgAACCCCQRQH57vzvf/8bdCpr2bJl8H1p/9EyE97lJOh5l8VDmDIhgAACCCCAAAIIJBEgvEuixDIIIIAAAgggUCkBX3gnoZ38kdevfvWrSu2K7SCAAAIIIFC3At99911QNwnw7BBPK0x4l5MgvKvb45+KIYAAAggggAACdS9AeFf3TUwFEUAAAQQQyJSAb247De8kuKuFm42ZAqUwCCCAAAINKSDfnd9//31ReGfPhZd1GIbNZNjMrB+jlO//tXcnQFJV9x7HzwAvL8gsuLy4gEtVYvIUQYgRFYMkLoCCoiUuqAhKiERxiaIRwQjucRc1oYJrJgroJG644Q6BuCRxixqjphBQxMQIzCBPg/Lu/+K/6/Tpu/V03+nt21VTMN33nuVzTg9d8+OcgwACCCCAAAIIlEyA8K5k9FSMAAIIIIBAzQlErbr74osvzCabbFJzJnQYAQQQQACB9gp8+umnpnPnzhW7+o7wjvCuvXOf+xBAAAEEEEAAgaoXILyr+iGmgwgggAACCJSNgBve6Yo7+VPCu27dupVNW2kIAggggAAC5S6wdu3arPBOt8/Udpf7anbCO8K7cn+P0T4EEEAAAQQQQKBkAoR3JaOnYgQQQAABBGpOICy8k+BOvurr62vOhA4jgAACCCDQXoG2tjY/vHNX3xHebdjgG3DmXXunFvchgAACCCCAAAIIlFqA8K7UI0D9CCCAAAII1I5A0Hl3GtzJnw0NDbWDQU8RQAABBBAoUKC1tTUT3kmAJyvt9EuKZuWdFeK5H0I2695UIH/ht69k5V3hiJSAAAIIIIAAAghUqQDhXZUOLN1CAAEEEECgDAUI78pwUGgSAggggEDFChDeeUPnLuuX0bQ/cOj3hHcVO89pOAIIIIAAAgggUJMChHc1Oex0GgEEEEAAgZIIuL830zPvZNXd+vXrTWNjY0naRaUIIIAAAghUosCaNWtMly5dcrbN1BV3rLxj5V0lzmvajAACCCCAAAIIIOAJEN4xDRBAAAEEEECgowQI7zpKmnoQQAABBGpBgPDOG2VW3tXCVKePCCCAAAIIIIBA7QkQ3tXemNNjBBBAAAEESiVAeFcqeepFAAEEEKhGAcI7wrtqnNf0CQEEEEAAAQQQQMATILxjGiCAAAIIIIBARwmEhXeyZaZsncm2mR01EtSDAAIIIFANAhLede7c2d86s1OnTv6XbJXJtpnWdpky0PIBhDPvqmHK0wcEEEAAAQQQQKB2BAjvames6SkCCCCAAAKlFqiG8G7XvgNMc/Ms06d3rw7nHDt2gtljz93NTyaM6/C6qRABBBBAoPwECO++CuZ0aOwPGhraEd6V38SlRQgggAACCCCAAALxAoR38UaFXrFk+YfmveUrAovps9O3zKZNDQVV8exzL5mFz79ijjt8qNmh51YFlZX0Zq3zlLGHF9z+pHXGXTdq4jTT2vapmXf7FXGXFvX1T1a3mv7Dx5tP1/2f+eWlk8yIwd8vSvkXX3+76e3NDy3v/vl/MLPuesAcOXxfc/zIoUWpoyMKkfk/ceo1ZucddzBXTDk5U2XYvA27viPaSh0IIJC+QJrh3byHHjOv//UNvxM9e/Yww4YNMd27N8V26tXXXjfbbdsz0bV33nm3uemXs8ziRY9nlStlPPLwfP+5xqZGc9CBg83222+bdc2qVavNa951YY8mr61RgeB77y0zBwweYR6ff39W2QsXLjaLFz+fqN9J2qntk/bOntNi1qxe4z914EGDA9snZa72rg169PYCziRjIPdKOfIIMpC+L126zAwcOCB2POPaHdVeKXy77bbNGTu30rTMYzvHBQgggIAjQHjngXDmHe8LBBBAAAEEEEAAgWoUILxLf1QlhPlV832hFfXb5dum+frz2x2Cafl33XiBGbRnv/Q75NUwfOw55qW//t10ZJ1xHevxvUP9S97/U7h1XBntff3l1982p11wnVmx8mNzz8yLTN9eO7a3KP8+CbaOmTjdyNzQMFLH+SejDzVTTx9bUPkdeXNQX6T+sHkbdn1Htpm6EEAgPYE0wjsJa448aoxZufIjs88+e3tbbzaYp59eaNauXRu7Qk4CvylTppsH7p8bG9iIyuAhh5oxxx9jjj32yAzSqaedbR577EkzYK/+ZqedvmOefOpZs2TJUnPBz8/Nuk5Co+nTL8vBbW1t868fMmQ/c8OMK0Pxp0y90KxZ05p1zeEjjzPvvPOPRP1O2k5pgLpsueU3zH77DjJvvvmWWfzHFwLb+O3vfNfssMN2pqGhPqft11x9WSLXX828xVx77U2md++dze9afptVjgRlE0+dZNZ5/0nm72/9JXJyJmn3L35xrXnhxT8HliOWx4w6wvzsZz8NrSct8/TedZSMAALVLEB4540u4V01T3H6hgACCCCAAAII1K4A4V36Y68hxbmnHGf67PTNTIWvvvmuueehp827S94339yhh1nQclO7GkN4t5FNArTV3i9AOyrAdAdLVuBNvmym6bn1/xQcrgUFWFL+q2++Y7bvuXWHrbBs14QMuEn60+T9UtcONaPmbdD1xWoL5SCAQGkF0gjvJEyRAOzuuXdkrfKSsGrBgkXm2WceCVz9Jau5DhlxlJngbUGZZBtKCd9Gjx6fVZ4EQXfNvicnJJQVetMvvNzccvONsavFZCvMD1Z8mNN+d6Rku84bb7gqU57Uff8DD5uHH2rJ6p+U19rWlhWC5dNOCUMH/eDAHBfp/8iRo3P6JOFdkn4GzTyp64wzfmZeevlV069vn8B233Jrsx8aSkAaFd7l2263PXJ//z1+aFpamkNXQKZlXtp3JbUjgEAlCxDeeaNHeFfJU5i2I4AAAggggAACCIQJEN6lPzfiwrV9Rp7iB3hRWy5KcBO2vWZc+XYPo8qJk7DvjVt5V0g90o6w+wspN+m9Sa8L8irWve1ZfZZP3Wlcm0+ZYpfPvHWt860r3+vj3gu8jgAC7RcodninW0mGhUcD9j7AnHLy+KwVcNp6Cf0a6uvN7bfPTNQhCQPlYa+Ok/JHHHJQ4EqtoOvdimQ13bx5j8au/AvarlPCvHPOPiOnbxqy2UFXPu2UVXDNzXNytgaVtkswKKsLdWWaBl7uVp5JQKWdkyZN8S+d9esbzBxvi05ZEacr76QuCfUksJTHuB9NjAzv8ml3UPskmJNVk/MfC1/Bn5Z5Ei+uQQABBIIECO88FcI73hwIIIAAAggggAAC1ShAeJf+qMaFFL9pedRMvnymOfawwVlngskZZ9OuucV89K9PMo08eP+9zWWTJ/hB3g23tZjLb8reWkovtLeOdMvZpOvXzRjvzLQkWy/KarapV87yt8iUh9773EtvBG6bKX29w+uPnP8mj29ssamZdua42HPg5Ly6P73yN3O+tx3kRV4Zer/2d4F3pp9tEbTVqJbx9sI5GS9p/wlnXRpqqBfqqrkHn1iUuVfquPjs8bFbYAbdm7TfUplrJvUOGdTfH1t720zpy7AxZxtZwXnqCSP9dkrdo0+/KDM+8lxQu3cceLT53q7/awbstouZcWtLxldWfM6YfkZOH+Pmnu2WT/2zb5yWaN5qe+X6qDEKcradln3wkbnz3o1nUKlNIVvUpv/TghoQqH6BYod3sk3ipZdeFRg0iWZYgCZBz0zvK2xVnjsSQSFVXHAVdj6eli2vX3HldbFbe8r1Qdt1SvgYti2lrIbTFWT5tlPatXz5+4GBpARcsoWmBp6ypWVcqBY2q91tQHU7SwnvJJQd/+NTM6sRk9STT7uD2hQV9Or1aZlX/zufHiKAQFoChHeeLOFdWtOLchFAAAEEEEAAAQRKKUB4l75+XHgXtMpKwpOTz7vK307zR0cf7G2VuKV56Mk/+kGEBjoSUszzwiYN0iToki0b5aHBnF3OWT8e5b8254EnzILnXs4JC10JCYb2Peo0P/jSste0fWrufXRBJvyxz7w755Jf+u3bZ8++ZsJxI8x7y1eam+c8GLuqUOrVlXwSDh42dB/TWL+Jmb/wRf9e6a+Eh9qG199e4rff3WpUy9DgcsnyD80Bo87wuyWhoBgu9EJAOX/QvVdXP8p5cgP32NXbnvJdP+SSx+Ozr4vcplLvlfB12H57ZfU77kxADWAlhDr8wEF+fTqe8nc7vNN5Yp9557ZbzCX8dNut5wHK89JO8V2+4p9Gwkoxt/uoYbK2abseW5lHnnku0Dyf+vOZt9Jeu+8yF0eMO9efDzIPBnyvt1n6/oeZoNhetapO0q/6bl1zXKO2qJX31BETzvf97BA4/Z8S1IBA7QgUO7yzA58gxaDXdWXaFltsbrbeekv/tv33/6EZdfTIwO015XUJ+5544umsrSjjAqWo1/U191y8oD4EbdcZNWP03LdXXl7sX1ZIO916JEQ87LCDM9uMatkSFD7y8Mb/LNHY1GgOOnBworPu7PKjxjKoD3J9r112NsOHDYl9A7ntdm/QIFXN1G3x4ufNSSedGDovtJw0zWM7xwUIIFDTAoR33vAT3tX0e4DOI4AAAggggAACVStAeJf+0LYnvJNQ57FnXzDuKiFZXSbB1aL7ZmYCpajy+w09we/gU3NnZG27GVSOK6HBkrsiUFc2yfUaTklQtvehE/zgzl0tJQGgPF569LZQbA3eLjt3gjneWxUoDzs8tAMreU2vf+iOKzOrxtzwTttvlyn3SqD5mnd2nAacGlbZK9rkOu2nhEUzL9+4VZr70JVvslJOV8MlvVeukxVm8nADQh2fqPAurH0a6h53+NDMHNHwzt2aVeeOPcYyZ9rWrjMvzJuVNWcmnHulH/apZ771232RPkfNWze80zFy54HOOwkadX7Z4Z3bh7jtXvVeaZ+9ejV04vICAgjkLVAO4Z0EOStXfmSGDx9q9tprD7Ns2XI/mHvnnX+EroILWpXV3lBMz9rbcstvmP32HWR69uxhhnkBVPfuTYGeSbbf1Btlld2RR40xu+/+XXPJxT/3n25vO93GaMD1wP1zM8Gcnu0n1w7Yq7/p0XMb8+KLfzFLliw1RxxxaKYNSSZKvuGdrC7s3XvnrEA1qJ6gdrvXyYq6/rvvlrXaUNoj5+3FneeXpnkSN65BAIHaFiC888af8K623wT0HgEEEEAAAQQQqFYBwrv0R7Y94V1Qq+ztGe0VXWHla7jihm9Stq7IcwMru14NkOyATF93QxANyoLO7dMVeUHluOW5gYkGRu4KNu2z3X43vNM+Smh048Vnhq6e037+9cnmnHMFZWXZipUf570KS+3dwMr21WvcwFOuCVqN6a68k/mwy36j/a1Jr5t2mhm0Z7/QySxhmB1w6YVahr0qTrbmjGqThpn51l9IeJdkLmqgrU5B8z4sBLTh5H55RHmm/1ODGhCoXoFSh3dRQY6EZB98sCInDArbmrO9oZiEd3K+mzzWtLb6YZeEic3Ns0yf3r2yBj9uy0v7Yg2R5Lm7596RCQPb2067bA3p3JWCYtNyz73mzLNOzWq71Dnx1EmBZ/KFze58wzupo8kLPF2zJO22r9GVmO65fTJOS5cu8wLCXqHBaprm1ftTgJ4hgEAxBQjvPE3Cu2JOKcpCAAEEEEAAAQQQKBcBwrv0R6K94Z2ECLPve8Is//CfWWeaSYuThHcaYkho02Orjdtp6mNN21p/C0J3JZN9jRuG2a9pIKft0D7KloSN9d2y6nrfa79svRm1hWRYXWF2+rzd/qAyNPyTBknb9uzXy9/a0g5m9D4Jl9zHW+8u9bcIjVqFJSHWb3//mL9SUvuq5USFd0HbYOp9bqgmzwddr2GUvC7jvEffnf0tJXX1opbnrmSz+6mr8qSP+bapkPrzWXmXz1yM6kPUa+n/JKAGBBAQgVKHd1HbJ2pQpmfF6YiNHTvB7LTTd3LOgCtGKKZ1SHB11+x7jL1to7wWtF1n0EwKC5Hk2kLbGRbcxc1o6dOTTz1r5j92X9yl/uv5hndxhSZtdz4rG+060zSP6xuvI4AAAipAeGd9uHA/aAR98NDn5APJZiFL3jtyeq38eFVHVkddCCCAAAIIIIAAAhUkQHiX/mAlDe/s1U4ajtnnjtlnthUa3mmvxx9ziBkx+PuBCPkEJlHhnRYetfotrfBO6pYVbnfd97h5wzsrT87Ok4e9FWZUeCfXNnjnw9lbgdpYUvYJZ12adS6gnJm3fc+t/W1E0w7vpC2ydeSDj//BDw81bJSg8v5bLs+sJEwrvCukfsK79H/2UAMC5ShQ7PAuLtxyAyHZajFqG0T3dVl9dcDgEeaF55/OWX2lK7b+/tZfAqnjQjP3pqC2yXad5503KfJct6gQSeoopJ1JA7AggHz7X8zwLmm7xW7QDw40N95wlRk4cEDit0ya5okbwYUIIICAJ0B45yGw8o73AgIIIIAAAggggEA1ChDepT+qceGdbjmpq8iitlPU7QPzCe+izmyL6n2SrQrdlXfu+XJJddMM7+w2yIq2k6dc7Z8bqFt8at32OYJJ2x1m1BHbZoa1MegcOwnvJNBb0HJT1m3uCj9dmRa1bWbQa3ahYfUXsm1m0BmHWqf7Givvks5erkOgNALFDu/iAiJ31VxcGOYGaFOmXuj9YrTV3DDjykCwqDDQDRYlUIo6284tK2y7TrshcSGSXptPO/WeJAGYnBV3zdWXZc7As9sm7Z8yZXrOasKwmVes8C5Ju7UNMkbNzXPM4kWPJ35DpGmeuBFciAACCHwlQHjnQRDe8X5AAAEEEEAAAQQQqEYBwrv0RzUqvJOQ54gJ5/tbM+qZcGFndknQ0n/4eP9aO7zT8C/o/LodBx7td/CFebOyznOT7Q7vnvdU5FlwbqioUhpMyffajqiwSlYRLlvxUejqNSknjfBOzrx77c13zCljD8/qu3teXlg/NejrteMOZurpYwMnirbbPS9P64haeScFho2PhoL2/W4oJebznlhkhu+/t+nba8dM+4ICON0a0926VPtunw8X1ibtkwa0+dbvWkTNW3elYNQYyXuivltX89Kjt/kGhYZ3nHmX/s9EaqhtgWKHd7py6pyzzzDHHntkFq6umrNX2oWdayc36nl49taVu/YdELkqS8KrbbbZOjDck6BwxCEHZbbblGv7775bzvabUreGkPYKv7DtOrWTSUMkuT6fdqrF9AsvN+4Zd+7sdftovy7tl8ftt89MNOmLEd7lE9xJo6T9p5w8PmfuhDU4TfNESFyEAAIIOAKEdx4I4R3vCwQQQAABBBBAAIFqFCC8S39Uo7aUDNrGUUM6admYkUONbMP43vKV5tqb55q2tetywjvZNlG2aNyk69fNYUP38c6c28Qcd/hQs0PPrYyeSSarrs768SjTvbGbeejJP5o7753vn5H21NwZWcGWrWGHhbJ678B99/LDsDu84E8eboio58vJyqwJx40wq9asNXMeeMJf5Ra3WiuN8E4DH7vv4njR9bf7bdeVdtLPEePOzZwBqN43z3nQfy4oFFUnO6STLUjFV84pfHLRn/064sI7vV/G4sSjhpmmhnrzyDPPmT+98rec+4PCu2FjzvbH/XwvXJRtVcX86l/P9tttr4LU8E7nyN679zGLXnzVnwfy3OOzr/Pnizxstx8dfbBfXiNVqQAAD5ZJREFUrvTpQS8otLfj1MA2af2uRdS8dcM7GaN9jzrN355UgkY5t1DfE/Kc3ddCwju9VxyizjlM/6cGNSBQvQLFDu9ESs+LswM82Spy0qQppsH7ufq7lt9mQDXs69e3j5k+fYq/Ykyemz2nxcz0VmHZZUgQdMdv7oo8s01Dt3EnjjYnnXSiv7WmhIZXXT3DLFiwyDz7zCOZ7Tb12p/+9BQz6uiRmed1hdrw4UPNJRf/3G9r1Had2hk5v2/lyo/MJZdcYJoaG3ImTe/evXLqTtJOac+ZZ042Q4bsZ4484rCccpu8PvbxypaHXmv3ye5/c/OszLVxszrf8M4NQ/Npt7ZdVgbaY2S3Ucb/9/c+kLWyMC3zOBteRwABBMIECO88GcI73iAIIIAAAggggAAC1ShAeJf+qGpAE1STBBpHDt/XHO+FdPbDPktNn5fQQoK5XzXfl1mlp69JSCfhngQZ8rBXWMlrGljp9RLGXTZ5Qmhwp9fl2w49q0/vl2BHAsiwlWt6nYR3cl7b2wvnZDmona5KtPs7+fKZWcFaUBkSRN0696GMi9wvQdl1004zg/bsl6lLwqHRp1+UORNPr5t25rjQMwH1ZrfPUv5tV59nJFiLCy2ljKT3a7Bkh4ny3PlX3eyHdbb5aSeONKeeMDLznIZhe/bb2Q9fJVjUPkpb7ZV78ry4zbi1JXOdPCdztfn687PmTD71B1mEzVtpr3u9hH0Tp16TNUYaHNrvn0LCO3tVKeFd+j8bqaE2BdII70RSA7x1X/18k+ckfLrowqk5Z9VJuHTmWZPNa6+9kRmELbbYPOdsOQlqxhx/TOyqLN3e8l//+jhTXu/eO5sLLpicE1xJgHfRxVeYJUuWZq7t6v1becyoI7JW5MVt16lBYNQskkDtJxPGZS5J2k4JxWwbtw5pr706MWm5cTM+6vzCoHP7ZCvQAXv1z6zsy7fdsgqzZ49tAldC6py65dZm09LS7I9jmuZxNryOAAIIhAkQ3nkyhHe8QRBAAAEEEEAAAQSqUYDwrrxHVQKL95avyAqa2ttiCSZWt7a1qyxtR5+dvhUb+En7JECRVWRuKNTethd6X9L2S4j3qre6cPueW2dWoiWtW/rcnvu0/ELM4trtrmRLWpfOmbhxj6s/qWGS67SucppfSdrNNQggsFEgrfBOfSXkWe2tpBs4cEAsuay4e827frvtts05s03KGT16fOiqrKDCJRRcunSZsVe8hTVC67ZXsdnXxm3XGdu5iAvyaWc+9aRVbj5tKNdrsSnXkaFdCFS+AOGd9eHC/aAR9MFDn5MPJJt5S8lL/Vj58apSN4H6EUAAAQQQQAABBMpUgPCuTAeGZiFQRAE3vCti0RSFAAII5CWQdniXV2MiLpZVVqvXtJrhw4YUq8jE5UjQ8/Aj87NWzSW+mQsRQAABBGpKgPDOG25W3tXUnKezCCCAAAIIIIBAzQgQ3tXMUNPRGhYgvKvhwafrCJSZQKWEd2XGRnMQQAABBBAIFCC8I7zjrYEAAggggAACCCBQpQKEd1U6sHQLAUtg1MRpZsBuu2SdgwcQAgggUAqBsPDuiy++MOvXrzeNjY2laBZ1IoAAAgggUJECEt516dLFdO7c2XTq1Mn/qqur87/koX+Wa+fq1n32+Ya4xtkr6/TaoNV28pr9QcP93v0QwraZcfK8jgACCCCAAAIIIFBKAcK7UupTNwIIIIAAArUlQHhXW+NNbxFAAAEE0hUgvLMCO8K7dCcbpSOAAAIIIIAAAgh0rADhXcd6UxsCCCCAAAK1LEB4V8ujT98RQAABBIotQHhHeFfsOUV5CCCAAAIIIIAAAmUiQHhXJgNBMxBAAAEEEKgBATe8k+9ly0z9amhoqAEFuogAAggggEBxBFpbW/0tM/VLt8xk20zvA4Y83A8e+pw8z7aZxZmElIIAAggggAACCCCQjgDhXTqulIoAAggggAACuQKEd8wKBBBAAAEEiidAeGcFdG5YR3hXvIlGSQgggAACCCCAAAIdL0B41/Hm1IgAAggggECtCmh4p79P+/LLL4186cq7+vr6WqWh3wgggAACCOQt0NbWlll116lTJyNfuupOCrP/nnfhHXBD3brPPt+4RC7iYX940MvcDxTu8/b/FtIPHe7/IGLlXZw8ryOAAAIIIIAAAgiUUoDwrpT61I0AAggggEBtCYSFdxrgde3a1f/FIw8EEEAAAQQQiBaQfzvXrVvnh3ca3BHeBWyXSXjHWwkBBBBAAAEEEECgEgUI7ypx1GgzAggggAAClSnghnfyvb36TlYISIDHAwEEEEAAAQSiBSS4k39H7fBOz7zTO1l5Z4V5rLzjLYUAAggggAACCCBQSQKEd5U0WrQVAQQQQACByhcIOvfODvDkl5Bf+9rXWIFX+UNNDxBAAAEEUhCQfzM///xzf8vpoOBOA7tyD+6Ehm0zP16VwhShSAQQQAABBBBAAIFqECC8q4ZRpA8IIIAAAghUjkDU6jsN8XRFnvypX9LDoGNvKqfntBQBBBBAAIH8BOwgTlfV6daY9laZ+lwlnXdHeOcJrCS8y+8dwdUIIIAAAggggEANCRDe1dBg01UEEEAAAQTKQCAovNOATsI7grsyGCSagAACCCBQNgJxAZ6GepW2ZSbhHeFd2bzJaAgCCCCAAAIIIFCOAoR35TgqtAkBBBBAAIHqFXBXz9mr68L+7mqwAq965wc9QwABBBDwtpP0zoB1H25IF/S9fQ/bZnoa7l7dAqQfNjbr3lTyucbKu5IPAQ1AAAEEEEAAAQTKVoDwrmyHhoYhgAACCCBQtQJhAZ79OzX7921VC0HHEEAAAQQQSCgQtAJPbnVX3OlzCYst6WWcece2mSWdgFSOAAIIIIAAAgiUswDhXTmPDm1DAAEEEECgOgWCVs65YV1QwFedGvQKAQQQQACBcAF3BZ0d4oUFdZWw6s5v+7rPPt8QN/hRHxrkXnc/bvs5Vt7F6fI6AggggAACCCCAQLkKEN6V68jQLgQQQAABBKpbIGzrS0K76h53eocAAggg0D6BsBDPLa1SgjtpN+EdK+/a927gLgQQQAABBBBAoAYECO9qYJDpIgIIIIAAAmUqkOTsuiTXlGn3aBYCCCCAAAJFE0gSyiW5pmgNKkJBhHeEd0WYRhSBAAIIIIAAAghUpwDhXXWOK71CAAEEEECgkgQI6CpptGgrAggggEC5CVRaaKd+hHeEd+X2XqI9CCCAAAIIIIBA2QgQ3pXNUNAQBBBAAAEEEPhKgDCPqYAAAggggEC4QKWGdW6PCO8I73ifI4AAAggggAACCIQIEN4xNRBAAAEEEEAAAQQQQAABBBBAoKMFCO8I7zp6zlEfAggggAACCCBQMQKEdxUzVDQUAQQQQAABBBBAAAEEEEAAgaoRILwjvKuayUxHEEAAAQQQQACBYgsQ3hVblPIQQAABBBBAAAEEEEAAAQQQQCBOgPCO8C5ujvA6AggggAACCCBQswKEdzU79HQcAQQQQAABBBBAAAEEEEAAgZIJEN4R3pVs8lExAggggAACCCBQ7gKEd+U+QrQPAQQQQAABBBBAAAEEEEAAgeoTILwjvKu+WU2PEEAAAQQQQACBIgkQ3hUJkmIQQAABBBBAAAEEEEAAAQQQQCCxAOEd4V3iycKFCCCAAAIIIIBArQkQ3tXaiNNfBBBAAAEEEEAAAQQQQAABBEovQHhHeFf6WUgLEEAAAQQQQACBMhUgvCvTgaFZCCCAAAIIIIAAAggggAACCFSxAOEd4V0VT2+6hgACCCCAAAIIFCZAeFeYH3cjgAACCCCAAAIIIIAAAggggED+AoR3hHf5zxruQAABBBBAAAEEakSA8K5GBppuIoAAAggggAACCCCAAAIIIFBGAh0a3km/N2zY4H/JY9OmxpJTrCS8K/kY0AAEEEAAAQQQQKBcBcohvPv3qtU+T11dnf9lP+R7+WztPq/P6eduvcf+LL75pt3LlZ12IYAAAggggAACCCCAAAIIIFDTAoR3hHc1/Qag8wgggAACCCCAQJQA4R3zAwEEEEAAAQQQQAABBBBAAAEEOlqA8I7wrqPnHPUhgAACCCCAAAIVI0B4VzFDRUMRQAABBBBAAAEEEEAAAQQQqBoBwjvCu6qZzHQEAQQQQAABBBAotgDhXbFFKQ8BBBBAAAEEEEAAAQQQQAABBOIECO8I7+LmCK8jgAACCCCAAAI1K0B4V7NDT8cRQAABBBBAAAEEEEAAAQQQKJkA4R3hXckmHxUjgAACCCCAAAJlK7DBa1mdMYR3ZTtCNAwBBBBAAAEEEEAAAQQQQACBqhWo+fDun5+sMRu+/NLI72d4IIAAAggggAACCCDgC3jBXee6TmaLTRtTAdmwIfmnz3+vWr2xSXV1/pf9kO+lLPd5fc6tR77X5zbftHsqfaNQBBBAAAEEEEAAAQQQQAABBBAoTKDmw7v/rF9vPl7VZrzfzZg673coyX+NUhg8dyOAAAIIIIAAAgiUoYCXjdVtqDNfeiHXFt0bTZcu3ofEFB6EdymgUiQCCCCAAAIIIIAAAggggAACVSJQkvBO7OQXFps2pfM/mfMdm8/+8x+zuvVTbwWeF91l/2fmfIviegQQQAABBBBAAIFKFvA+DnbqXGca67uZ//6vLqn1JN/wTlfWFWPlnX4WZ+VdasNLwQgggAACCCCAAAIIIIAAAggUJJBaeKe/FNBfTAT9WS7hXUGC3IwAAggggAACCCCAQJ4CxQzvoqoO2jaT8C7PweJyBBBAAAEEEEAAAQQQQAABBDpYIPXwLirEI7zr4NGmOgQQQAABBBBAAIGyEChGeOeuwgvrmF2X/R/qWHlXFlOBRiCAAAIIIIAAAggggAACCCCQI1CU8E4DOvtP9zlW3jH7EEAAAQQQQAABBBDYKFDM8E5CPLc8+znCO2YdAggggAACCCCAAAIIIIAAApUlkCi8C/oFQ9gWPG5oFxXisfKusiYLrUUAAQQQQAABBBAojkA+4d0nq9dkKpVQToM5+xw8KU+/17/b/3lO77Hr3ax7U3E6QykIIIAAAggggAACCCCAAAIIIFBUgQ4P7zTMk18cEN4VdSwpDAEEEEAAAQQQQKBCBNoT3oWFdW6YFxXe6Wdx+ZPwrkImC81EAAEEEEAAAQQQQAABBBCoOQHCu5obcjqMAAIIIIAAAgggUGoBwrtSjwD1I4AAAggggAACCCCAAAIIIFC+Au0O76RLQedn2M8HnXNnv969saF8ZWgZAggggAACCCCAAAIpCeQT3q1a0+p/7rZX3tnNilt5p9e622iyC0ZKg0uxCCCAAAIIIIAAAggggAACCBQo8P97apS1iyvrGwAAAABJRU5ErkJggg==;" vertex="1" parent="1">
          <mxGeometry x="446.02" y="100" width="677.95" height="179.13" as="geometry" />
        </mxCell>
        <mxCell id="uD4aB0nu4uxJm6UnGofd-61" value="" style="edgeStyle=orthogonalEdgeStyle;rounded=0;orthogonalLoop=1;jettySize=auto;html=1;entryX=0.5;entryY=0;entryDx=0;entryDy=0;entryPerimeter=0;" edge="1" parent="1" source="uD4aB0nu4uxJm6UnGofd-32" target="uD4aB0nu4uxJm6UnGofd-46">
          <mxGeometry relative="1" as="geometry">
            <mxPoint x="1010" y="640.6300000000001" as="targetPoint" />
          </mxGeometry>
        </mxCell>
        <mxCell id="uD4aB0nu4uxJm6UnGofd-32" value="WS alimentation demande" style="rounded=1;whiteSpace=wrap;html=1;fillColor=#dae8fc;fontFamily=Work Sans;strokeColor=#6c8ebf;fontSource=https%3A%2F%2Ffonts.googleapis.com%2Fcss%3Ffamily%3DWork%2BSans;fontSize=14;" vertex="1" parent="1">
          <mxGeometry x="950" y="500.63" width="120" height="60" as="geometry" />
        </mxCell>
        <mxCell id="uD4aB0nu4uxJm6UnGofd-36" value="declaration" style="strokeWidth=2;html=1;shape=mxgraph.flowchart.database;whiteSpace=wrap;fillColor=#ffe6cc;strokeColor=#d79b00;fontStyle=1;fontFamily=Work Sans;fontSource=https%3A%2F%2Ffonts.googleapis.com%2Fcss%3Ffamily%3DWork%2BSans;fontSize=14;" vertex="1" parent="1">
          <mxGeometry x="322.5" y="720" width="140" height="150" as="geometry" />
        </mxCell>
        <mxCell id="uD4aB0nu4uxJm6UnGofd-37" value="" style="shape=image;verticalLabelPosition=bottom;labelBackgroundColor=default;verticalAlign=top;aspect=fixed;imageAspect=0;image=data:image/svg+xml,PHN2ZyB4bWxucz0iaHR0cDovL3d3dy53My5vcmcvMjAwMC9zdmciIGhlaWdodD0iNjAiIHdpZHRoPSIxMjAiIHZpZXdCb3g9IjAgMCAxMjAgNjAiPjxzdHlsZT4uQntzdHJva2Utd2lkdGg6Ljg2Nn0uQ3tzdHJva2U6I2ZmZn0uRHtzdHJva2UtbGluZWNhcDpyb3VuZH0uRXtzdHJva2UtbGluZWpvaW46cm91bmR9PC9zdHlsZT48cGF0aCBmaWxsPSIjMjMxZjIwIiBkPSJNMTMuNTYgNDMuOTI3SDguMzR2LTUuMjVoNS41MDRjMi4wMTQgMCAzLjAyMi45IDMuMDIyIDIuNjY2IDAgMS43MjMtMS4xMDIgMi41ODUtMy4zMDUgMi41ODVtMy43NTItNS4zMTJjLS43MTUtLjY0LTEuNzE2LS45Ni0zLjAwMy0uOTZsLTcuNDc2LjA0djEyLjU2SDguMzRsLS4wMTQtNS4zNDdoNS41NjNjMS4zOTUgMCAyLjQ5My0uMzIgMy4yOTQtLjk2czEuMjAyLTEuNTMgMS4yMDItMi42NjYtLjM1OC0yLjAyNi0xLjA3My0yLjY2NnptOS43NDcgOS4wMDRhMi41NiAyLjU2IDAgMCAxLS43MTUgMS4wNjhjLS42NzUuNjYtMS43MDQuOTg3LTMuMS45ODctMS4yNSAwLTIuMi0uMzItMi44OC0uOTZzLTEuMDA1LTEuNDk3LTEuMDA1LTIuNTdjMC0uNTYuMDg4LTEuMDU1LjI2My0xLjQ4OGEyLjkyIDIuOTIgMCAwIDEgLjc2Mi0xLjA5NmMuNjkyLS42MyAxLjY0Ni0uOTQ3IDIuODYtLjk0NyAyLjcgMCA0LjAzMyAxLjE3NyA0LjAzMyAzLjUzIDAgLjU2LS4wNzcgMS4wNS0uMjMgMS40NzRtLjI3My00LjYzM2MtLjkxOC0uODM3LTIuMjc3LTEuMjU2LTQuMDc3LTEuMjU2LTEuNyAwLTMuMDE1LjQyOC0zLjk0MiAxLjI4My0uODM3Ljc3NC0xLjI1NSAxLjgxOC0xLjI1NSAzLjEzMiAwIDEuMzA1LjQzMiAyLjM1OCAxLjI5NiAzLjE2LjQ3Ny40MzIgMS4wMzMuNzQ1IDEuNjY3LjkzOHMxLjM4LjMgMi4yMzQuM2MxLjggMCAzLjE1NC0uNDE0IDQuMS0xLjI0Mi44MzctLjc1NiAxLjI1NS0xLjgwNCAxLjI1NS0zLjE0NSAwLTEuMzUtLjQyMy0yLjQwMy0xLjI3LTMuMTZ6bTExLjQgNC45OTdjMCAxLjctMS41MTUgMi41MzYtNC41NDQgMi41MzYtLjkyNiAwLTEuNzA2LS4wNi0yLjM0LS4xNzZzLTEuMTQ4LS4zMTMtMS41NDQtLjU4NGEyLjMxIDIuMzEgMCAwIDEtLjcyOC0uOGMtLjE4LS4zMjMtLjI5Ny0uNzUtLjM1LTEuMjU1bDEuNC0uMDEzYzAgLjY2NS4yNDcgMS4xNTUuNzQgMS40Ny41My4zNzggMS40NjcuNTY3IDIuODEzLjU2NyAyLjExNyAwIDMuMTc2LS41MyAzLjE3Ni0xLjU5MiAwLS42Mi0uMzU1LTEuMDQ3LTEuMDY1LTEuMjgtLjE0NC0uMDQ1LTEtLjE2NC0yLjU3LS4zNTdzLTIuNTQ2LS4zNjctMi45MzMtLjUyYy0uODM2LS4zMzMtMS4yNTQtLjkzLTEuMjU0LTEuNzk0YTIuMDIgMi4wMiAwIDAgMSAxLjEyLTEuODg5Yy4zNy0uMTcuODMtLjMwMyAxLjM4NC0uMzk4czEuMTk1LS4xNDIgMS45MjQtLjE0MmMyLjkxNiAwIDQuMzc0LjkxNSA0LjM3NCAyLjc0NWgtMS4zNGMwLTEuMjg2LTEuMDI1LTEuOTMtMy4wNzUtMS45My0xLjA0MyAwLTEuODIuMTMtMi4zMzMuNHMtLjc3LjY2LS43NyAxLjJjMCAuNTA0LjM0Ni44NjggMS4wMzggMS4wOTMuNDA1LjExNyAxLjMzNS4yNTIgMi43OTIuNDA1IDEuMzA0LjExNyAyLjE5OC4yODMgMi42ODQuNS45MjYuMzYgMS40Ljk3IDEuNCAxLjgzNHptNS41MzYgMi4zbC0uNTczLjA4LS4zNTguMDI3Yy0uOTE4IDAtMS41OC0uMTMzLTEuOTg1LS40cy0uNi0uNzMyLS42LTEuNHYtNS43M2gtMS42N3YtLjg0M2gxLjY2bC4wMTMtMi43MDhoMS4yODV2Mi43MDhoMi4yMzh2Ljg1N2wtMi4yMzgtLjAxNHY1LjU3N2MwIC40MTUuMS43MDIuMzMuODZzLjYxNC4yMzcgMS4xOC4yMzdjLjA4LjAxLjE3LjAwNi4yNy0uMDFzLjI0Ny0uMDUuNDQ1LS4xMDJsLjAxNC44NnptOC44ODctMS45MTJhMy44MSAzLjgxIDAgMCAxLTEuMi42NjFjLS40NS4xNTMtLjk2Ni4yMy0xLjU1LjIzLTIuNjg4IDAtNC4wMy0xLjEtNC4wMy0zLjMzIDAtMS4wMzMuMzQ0LTEuODQyIDEuMDMtMi40MjZzMS42NTYtLjg3NiAyLjkwNS0uODc2YzEuMjU4IDAgMi4yMTMuMjk0IDIuODY1Ljg4M3MuOTc4IDEuMzc3Ljk3OCAyLjM2NmMwIDEuMDc4LS4zMzMgMS45LS45OTggMi40OTRtMi4yODMtNi4zNmgtMS4yODVsLS4wMTQgMS40MTdjLS41NjYtLjU3NS0uOTctLjk0LTEuMjE0LTEuMDkyLS43Mi0uMzk1LTEuNjUtLjU5My0yLjc5Mi0uNTkzLTEuNjczIDAtMi45NS4zODItMy44MyAxLjE0Ni0uODM2LjctMS4yNTQgMS43MTctMS4yNTQgMy4wNDcgMCAuNjU2LjEwNiAxLjI0My4zMTcgMS43NnMuNTIuOTU1LjkyNSAxLjMxNGMuODgzLjczNyAyLjEzIDEuMTA2IDMuNzQyIDEuMTA2IDEuOTM2IDAgMy4zLS41MyA0LjEyLTEuNnYxLjQ2N2MwIC45MzUtLjI5NSAxLjY2LS44ODQgMi4xNzJzLTEuNTU4Ljc3LTIuOTA3Ljc3Yy0xLjI2OCAwLTIuMTcyLS4xNzUtMi43LS41MjQtLjQwNS0uMjY4LS42ODQtLjczNC0uODM2LTEuMzk3SDQ1LjVjLjE0NC45MjUuNTM1IDEuNTk1IDEuMTc0IDIuMDA4LjczOC40NzYgMS45ODQuNzE0IDMuNzM4LjcxNCAzLjM1NiAwIDUuMDM0LTEuMjQ3IDUuMDM0LTMuNzQydi03Ljk4M3ptNi45NS44MzVhNi43MiA2LjcyIDAgMCAwLTEuMDc4LS4wOTRjLTIuMTEyIDAtMy4xNjggMS4xNTgtMy4xNjggMy40NzV2NC4wMjhoLTEuMjdsLS4wMTQtOC4yNDMgMS4yODUuMDEzdjEuNDdoLjA2N2MuMjE2LS41OC41NTctMS4wMiAxLjAyNS0xLjMxOC41MTItLjMgMS4yNzYtLjQzNSAyLjI5Mi0uNDM1aC44NjN2MS4xMDN6bTEuMTk2IDIuNzY2Yy4xNjItLjkzNy41MjYtMS42NjIgMS4wOTItMi4xNzYuMzctLjI5Ny43ODctLjUyIDEuMjU0LS42N3MuOTk0LS4yMjMgMS41NzgtLjIyM2MxLjE0MiAwIDIuMDc0LjMxMyAyLjc5OC45NHMxLjA5NSAxLjMzNiAxLjA5NSAyLjEzaC03LjgwN203LjkzMy0yLjU0M2E0LjEyIDQuMTIgMCAwIDAtMS42NzQtMS4wMDFjLS42NjYtLjIxNy0xLjQ0NC0uMzI1LTIuMzM1LS4zMjUtMS42NjUgMC0yLjk1Ni4zODctMy44NzQgMS4xNnMtMS4zNzcgMS44MjctMS4zNzcgMy4xNi40NCAyLjQgMS4zMjIgMy4xNzJjLjk1My44NjQgMi4yOTggMS4yOTYgNC4wMzUgMS4yOTYuNjkyIDAgMS4zMzMtLjA4IDEuOTIyLS4yMzVzMS4xMDQtLjM4IDEuNTQ1LS42NjVjLjc3NC0uNTU2IDEuMjYzLTEuMjQgMS40Ny0yLjA1NmgtMS40Yy0uNDc3IDEuNC0xLjY2MyAyLjExNC0zLjU2IDIuMTE0LTEuMzQgMC0yLjM3LS4zNDQtMy4xLTEuMDM0LS42Mi0uNi0uOTMtMS4zNTYtLjkzLTIuMjk2aDkuMTZjMC0xLjM5OC0uNC0yLjQ5NS0xLjIyOC0zLjN6Ii8+PHBhdGggZmlsbD0iIzM2N2ZhZiIgZD0iTTg2LjMyIDQ2Ljg4OGMwIDIuNDQ3LTEuOTc0IDMuNjctNS45MiAzLjY3LTIuMzY1IDAtNC4wOTItLjQyLTUuMTgtMS4yNjUtLjktLjY5My0xLjMzNS0xLjc1LTEuMzM1LTMuMTdoMS42YzAgMi4yODUgMS42NCAzLjQyNyA0LjkyNSAzLjQyNyAxLjU3NCAwIDIuNzEzLS4yMzQgMy40MTQtLjcuNTk0LS40MTMuOS0xLjA2LjktMS45NCAwLS44NzItLjQwNS0xLjQ4My0xLjIxNS0xLjgzNC0uNDYtLjItMS41OC0uNDI3LTMuMzYtLjcxNS0yLjI0LS4zNDItMy42OTMtLjY4My00LjM1OC0xLjAyNC0uOTYyLS41MDMtMS40NDQtMS4zNTctMS40NDQtMi41NjIgMC0xLjEyMy40LTEuOTYgMS4yMjgtMi41MDguODgtLjYwMiAyLjM5My0uOTAzIDQuNTM0LS45MDMgMy44NyAwIDUuODAzIDEuMjg1IDUuODAzIDMuODU1SDg0LjNjMC0xLjkyNS0xLjQzNy0yLjg4Ny00LjMtMi44ODctMS40NCAwLTIuNDk0LjE5NC0zLjE2LjU4LS42My40MTQtLjk0NSAxLjAyLS45NDUgMS44MjIgMCAuODM3LjQwNSAxLjQyNiAxLjIxNSAxLjc2OC40My4xOTggMS43LjQ3MiAzLjgwNi44MjQgMS45OC4yOTcgMy4zMTUuNjQzIDQgMS4wNC45NDUuNDg2IDEuNDE3IDEuMzI3IDEuNDE3IDIuNTI0em0xMi45MDggMS4yNWE2LjIgNi4yIDAgMCAxLTIuMDEyIDEuMDcxYy0uNzQ4LjIzOC0xLjU4NS4zNTctMi41MTIuMzU3LTEuOSAwLTMuNDItLjUtNC41ODYtMS41M3MtMS43NS0yLjM3Ny0xLjc1LTQuMDc0YzAtMS43Ny41NzgtMy4xNDcgMS43MzUtNC4xMzVzMi43LTEuNDgyIDQuNi0xLjQ4MmMxLjkzNiAwIDMuNDU4LjUxNiA0LjU2NSAxLjU1LjU4NS41MDMgMS4wMTcgMS4xIDEuMjk3IDEuNzY1cy40MiAxLjQ0LjQyIDIuMzAzYzAgMS43Ni0uNTg2IDMuMTUyLTEuNzU2IDQuMTc2bS44NDUuODMzYy44MjgtLjU4NCAxLjQ0LTEuMyAxLjgzNy0yLjEyM3MuNTk1LTEuOC41OTUtMi44NzhjMC0xLjk1LS42NDgtMy41MTQtMS45NDQtNC43LS42OTMtLjY0Ny0xLjUzLTEuMTI4LTIuNS0xLjQ0MnMtMi4xLS40NzItMy4zNi0uNDcyYy0yLjQ0NyAwLTQuMzY4LjU5My01Ljc2MyAxLjc4cy0yLjA5MiAyLjc5NS0yLjA5MiA0LjgyNmMwIDEuOTc3LjcwMyAzLjU3MiAyLjEgNC43ODVzMy4zMyAxLjgyIDUuNzY4IDEuODJjLjk1MyAwIDEuNzg1LS4wNjUgMi40OTYtLjE5M3MxLjMxMy0uMzI3IDEuODA4LS41OTRsMi4zNDggMS42MjcuOTgtLjktMi4yNzMtMS41NDJ6bTE0LjMzIDEuMjgzaC0xMC44NThWMzcuNjhsMS40OTMtLjAyN3YxMS41NWg5LjM4bC0uMDE0IDEuMDV6Ii8+PHBhdGggc3Ryb2tlLXdpZHRoPSIyLjU5OCIgc3Ryb2tlPSIjMjMxZjIwIiBmaWxsPSIjMjMxZjIwIiBkPSJNNjcuNDE1IDI3LjU1NmMuMTk3LTEuNjQuMTM4LTEuODggMS4zNi0xLjYxNGwuMy4wMjdjLjk0LjA0MyAyLjE2Ny0uMTUgMi44OS0uNDg2IDEuNTUzLS43MiAyLjQ3NC0xLjkyNC45NDMtMS42MDgtMy40OTQuNzItMy43MzQtLjQ2Mi0zLjczNC0uNDYyIDMuNjktNS40NzQgNS4yMy0xMi40MjMgMy45LTE0LjEyMy0zLjYzLTQuNjQtOS45MTYtMi40NDUtMTAuMDItMi4zODhsLS4wMzMuMDA2Yy0uNjktLjE0My0xLjQ2My0uMjMtMi4zMy0uMjQzLTEuNTgtLjAyNi0yLjc4LjQxNC0zLjcgMS4xMDUgMCAwLTExLjIxMi00LjYyLTEwLjcgNS44MS4xMSAyLjIxOCAzLjE4IDE2Ljc4NiA2Ljg0IDEyLjM4NiAxLjMzOC0xLjYxIDIuNjMtMi45NyAyLjYzLTIuOTcuNjQyLjQyNyAxLjQuNjQ0IDIuMjE3LjU2NmwuMDYyLS4wNTNhMi40MyAyLjQzIDAgMCAwIC4wMjUuNjI2Yy0uOTQzIDEuMDUzLS42NjYgMS4yNC0yLjU1IDEuNjI3LTEuOTA3LjM5My0uNzg3IDEuMDkzLS4wNTUgMS4yNzYuODg3LjIyMiAyLjk0LjUzNiA0LjMyNS0xLjQwNWwtLjA1NS4yMjJjLjM3LjI5Ni4zNDUgMi4xMjcuMzk3IDMuNDM1cy4xNCAyLjUzLjQwNyAzLjI1LjU4IDIuNTc0IDMuMDYgMi4wNDNjMi4wNy0uNDQ0IDMuNjU0LTEuMDgyIDMuNzk4LTcuMDIzIi8+PHBhdGggZmlsbD0iIzQxN2JhMiIgZD0iTTcyLjkxNiAyMy44NzVjLTMuNDk0LjcyLTMuNzM0LS40NjItMy43MzQtLjQ2MiAzLjY5LTUuNDc0IDUuMjMtMTIuNDIzIDMuOS0xNC4xMjQtMy42My00LjY0LTkuOTE2LTIuNDQ1LTEwLjAyLTIuMzg4bC0uMDM0LjAwNmMtLjY5LS4xNDMtMS40NjMtLjIzLTIuMzMtLjI0My0xLjU4LS4wMjYtMi43OC40MTQtMy43IDEuMTA1IDAgMC0xMS4yMTItNC42Mi0xMC43IDUuODEuMTEgMi4yMiAzLjE4IDE2Ljc4NiA2Ljg0IDEyLjM4NiAxLjMzOC0xLjYxIDIuNjMtMi45NyAyLjYzLTIuOTcuNjQyLjQyNyAxLjQxLjY0NCAyLjIxNi41NjZsLjA2My0uMDUzYy0uMDIuMi0uMDEuMzk1LjAyNS42MjYtLjk0MyAxLjA1My0uNjY2IDEuMjQtMi41NSAxLjYyNy0xLjkwNy4zOTMtLjc4NyAxLjA5My0uMDU1IDEuMjc2Ljg4Ny4yMjIgMi45NC41MzYgNC4zMjUtMS40MDVsLS4wNTUuMjIyYy4zNy4yOTYuNjMgMS45MjUuNTg1IDMuNHMtLjA3MiAyLjQ5LjIyIDMuMjgyLjU4IDIuNTc0IDMuMDYgMi4wNDNjMi4wNy0uNDQ0IDMuMTQ0LTEuNTk0IDMuMjkzLTMuNTEyLjEwNi0xLjM2NC4zNDYtMS4xNjIuMzYtMi4zOGwuMTkyLS41NzdjLjIyMi0xLjg1LjAzNS0yLjQ0NSAxLjMxLTIuMTY3bC4zLjAyN2MuOTQuMDQzIDIuMTY4LS4xNSAyLjg5LS40ODYgMS41NTMtLjcyIDIuNDc0LTEuOTI0Ljk0My0xLjYwOHoiLz48ZyBjbGFzcz0iQyBCIiBmaWxsPSJub25lIj48ZyBjbGFzcz0iRCI+PHBhdGggY2xhc3M9IkUiIGQ9Ik01OS45NiAyNC45MzVjLS4wOTYgMy40NC4wMjQgNi45MDMuMzYgNy43NDVzMS4wNTcgMi40OCAzLjUzNiAxLjk0OGMyLjA3LS40NDQgMi44MjQtMS4zMDMgMy4xNS0zLjJsLjc2NS02LjA2M001NyA3LjY5MnMtMTEuMjItNC41ODYtMTAuNyA1Ljg0MmMuMSAyLjIyIDMuMTggMTYuNzg3IDYuODQgMTIuMzg3IDEuMzM4LTEuNiAyLjU0Ny0yLjg3IDIuNTQ3LTIuODdNNjMuMDUgNi44NTVjLS40LjEyMiA2LjI0LTIuNDIzIDEwLjAwOCAyLjQgMS4zMyAxLjctLjIgOC42NS0zLjkgMTQuMTI0Ii8+PHBhdGggc3Ryb2tlLWxpbmVqb2luPSJiZXZlbCIgZD0iTTY5LjE1NyAyMy4zN3MuMjQgMS4xODMgMy43MzUuNDYyYzEuNTMtLjMxNi42Ljg4Ny0uOTQzIDEuNjA4LTEuMjc0LjU5LTQuMTMuNzQzLTQuMTc4LS4wNzQtLjEyLTIuMTEgMS41MDQtMS40NjggMS4zODYtMS45OTYtLjEwNi0uNDc2LS44MzItLjk0My0xLjMxMi0yLjEwNy0uNDItMS4wMTctNS43NS04LjgxMiAxLjQ4LTcuNjU0LjI2NS0uMDU1LTEuODg2LTYuODc3LTguNjUyLTYuOTg4cy02LjU0MiA4LjMyLTYuNTQyIDguMzIiLz48L2c+PGcgY2xhc3M9IkUiPjxwYXRoIGQ9Ik01OC4wNjYgMjQuMDljLS45NDMgMS4wNTMtLjY2NiAxLjI0LTIuNTUgMS42MjctMS45MDcuMzkzLS43ODcgMS4wOTMtLjA1NSAxLjI3Ni44ODcuMjIyIDIuOTQuNTM2IDQuMzI1LTEuNDA1LjQyMi0uNTktLjAwMi0xLjUzNC0uNTgyLTEuNzc1LS4yOC0uMTE2LS42NTUtLjI2LTEuMTM2LjI3N3oiLz48cGF0aCBjbGFzcz0iRCIgZD0iTTU4LjAwNCAyNC4wNzJjLS4wOTUtLjYyLjIwNC0xLjM1Ni41MjMtMi4yMi40OC0xLjI5NCAxLjYtMi41ODguNzAzLTYuNjkyLS42Ni0zLjA1OC01LjA5OC0uNjM3LTUuMS0uMjIycy4yIDIuMTAyLS4wNzQgNC4wNjdjLS4zNiAyLjU2NCAxLjYzIDQuNzMzIDMuOTIzIDQuNTEiLz48L2c+PC9nPjxnIGNsYXNzPSJDIiBmaWxsPSIjZmZmIj48cGF0aCBzdHJva2Utd2lkdGg9Ii4yODkiIGQ9Ik01Ni45NDggMTQuODc3Yy0uMDIuMTQyLjI2LjUyLjYyMy41N3MuNjc1LS4yNDUuNjk0LS4zODYtLjI2LS4yOTgtLjYyNC0uMzUtLjY3NS4wMjMtLjY5NC4xNjV6Ii8+PHBhdGggc3Ryb2tlLXdpZHRoPSIuMTQ0IiBkPSJNNjguMDIyIDE0LjU4OGMuMDIuMTQyLS4yNi41Mi0uNjIzLjU3cy0uNjc1LS4yNDUtLjY5NS0uMzg2LjI2LS4yOTguNjI0LS4zNDguNjc1LjAyMy42OTUuMTY1eiIvPjwvZz48cGF0aCBjbGFzcz0iQiBDIEQgRSIgZmlsbD0ibm9uZSIgZD0iTTY5LjMyMyAxMy42MDhjLjA2IDEuMTEtLjI0IDEuODY4LS4yNzcgMy4wNS0uMDU2IDEuNzIuODIgMy42ODctLjUgNS42NTciLz48L3N2Zz4=;fontSize=14;" vertex="1" parent="1">
          <mxGeometry x="337.5" y="813.75" width="100" height="50" as="geometry" />
        </mxCell>
        <mxCell id="uD4aB0nu4uxJm6UnGofd-39" value="" style="endArrow=classic;html=1;rounded=0;entryX=0;entryY=0;entryDx=32.5;entryDy=50;entryPerimeter=0;exitX=0.5;exitY=0;exitDx=0;exitDy=0;" edge="1" parent="1" source="uD4aB0nu4uxJm6UnGofd-15" target="uD4aB0nu4uxJm6UnGofd-27">
          <mxGeometry width="50" height="50" relative="1" as="geometry">
            <mxPoint x="770" y="600" as="sourcePoint" />
            <mxPoint x="820" y="550" as="targetPoint" />
          </mxGeometry>
        </mxCell>
        <mxCell id="uD4aB0nu4uxJm6UnGofd-40" value="" style="endArrow=classic;startArrow=classic;html=1;rounded=0;entryX=0.5;entryY=1;entryDx=0;entryDy=0;exitX=0.511;exitY=0;exitDx=0;exitDy=0;exitPerimeter=0;" edge="1" parent="1" source="uD4aB0nu4uxJm6UnGofd-28" target="uD4aB0nu4uxJm6UnGofd-31">
          <mxGeometry width="50" height="50" relative="1" as="geometry">
            <mxPoint x="800" y="360" as="sourcePoint" />
            <mxPoint x="820" y="500" as="targetPoint" />
          </mxGeometry>
        </mxCell>
        <mxCell id="uD4aB0nu4uxJm6UnGofd-42" value="demande" style="strokeWidth=2;html=1;shape=mxgraph.flowchart.database;whiteSpace=wrap;fillColor=#ffe6cc;strokeColor=#d79b00;fontStyle=1;fontFamily=Work Sans;fontSource=https%3A%2F%2Ffonts.googleapis.com%2Fcss%3Ffamily%3DWork%2BSans;fontSize=14;" vertex="1" parent="1">
          <mxGeometry x="720" y="730" width="140" height="150" as="geometry" />
        </mxCell>
        <mxCell id="uD4aB0nu4uxJm6UnGofd-43" value="" style="shape=image;verticalLabelPosition=bottom;labelBackgroundColor=default;verticalAlign=top;aspect=fixed;imageAspect=0;image=data:image/svg+xml,PHN2ZyB4bWxucz0iaHR0cDovL3d3dy53My5vcmcvMjAwMC9zdmciIGhlaWdodD0iNjAiIHdpZHRoPSIxMjAiIHZpZXdCb3g9IjAgMCAxMjAgNjAiPjxzdHlsZT4uQntzdHJva2Utd2lkdGg6Ljg2Nn0uQ3tzdHJva2U6I2ZmZn0uRHtzdHJva2UtbGluZWNhcDpyb3VuZH0uRXtzdHJva2UtbGluZWpvaW46cm91bmR9PC9zdHlsZT48cGF0aCBmaWxsPSIjMjMxZjIwIiBkPSJNMTMuNTYgNDMuOTI3SDguMzR2LTUuMjVoNS41MDRjMi4wMTQgMCAzLjAyMi45IDMuMDIyIDIuNjY2IDAgMS43MjMtMS4xMDIgMi41ODUtMy4zMDUgMi41ODVtMy43NTItNS4zMTJjLS43MTUtLjY0LTEuNzE2LS45Ni0zLjAwMy0uOTZsLTcuNDc2LjA0djEyLjU2SDguMzRsLS4wMTQtNS4zNDdoNS41NjNjMS4zOTUgMCAyLjQ5My0uMzIgMy4yOTQtLjk2czEuMjAyLTEuNTMgMS4yMDItMi42NjYtLjM1OC0yLjAyNi0xLjA3My0yLjY2NnptOS43NDcgOS4wMDRhMi41NiAyLjU2IDAgMCAxLS43MTUgMS4wNjhjLS42NzUuNjYtMS43MDQuOTg3LTMuMS45ODctMS4yNSAwLTIuMi0uMzItMi44OC0uOTZzLTEuMDA1LTEuNDk3LTEuMDA1LTIuNTdjMC0uNTYuMDg4LTEuMDU1LjI2My0xLjQ4OGEyLjkyIDIuOTIgMCAwIDEgLjc2Mi0xLjA5NmMuNjkyLS42MyAxLjY0Ni0uOTQ3IDIuODYtLjk0NyAyLjcgMCA0LjAzMyAxLjE3NyA0LjAzMyAzLjUzIDAgLjU2LS4wNzcgMS4wNS0uMjMgMS40NzRtLjI3My00LjYzM2MtLjkxOC0uODM3LTIuMjc3LTEuMjU2LTQuMDc3LTEuMjU2LTEuNyAwLTMuMDE1LjQyOC0zLjk0MiAxLjI4My0uODM3Ljc3NC0xLjI1NSAxLjgxOC0xLjI1NSAzLjEzMiAwIDEuMzA1LjQzMiAyLjM1OCAxLjI5NiAzLjE2LjQ3Ny40MzIgMS4wMzMuNzQ1IDEuNjY3LjkzOHMxLjM4LjMgMi4yMzQuM2MxLjggMCAzLjE1NC0uNDE0IDQuMS0xLjI0Mi44MzctLjc1NiAxLjI1NS0xLjgwNCAxLjI1NS0zLjE0NSAwLTEuMzUtLjQyMy0yLjQwMy0xLjI3LTMuMTZ6bTExLjQgNC45OTdjMCAxLjctMS41MTUgMi41MzYtNC41NDQgMi41MzYtLjkyNiAwLTEuNzA2LS4wNi0yLjM0LS4xNzZzLTEuMTQ4LS4zMTMtMS41NDQtLjU4NGEyLjMxIDIuMzEgMCAwIDEtLjcyOC0uOGMtLjE4LS4zMjMtLjI5Ny0uNzUtLjM1LTEuMjU1bDEuNC0uMDEzYzAgLjY2NS4yNDcgMS4xNTUuNzQgMS40Ny41My4zNzggMS40NjcuNTY3IDIuODEzLjU2NyAyLjExNyAwIDMuMTc2LS41MyAzLjE3Ni0xLjU5MiAwLS42Mi0uMzU1LTEuMDQ3LTEuMDY1LTEuMjgtLjE0NC0uMDQ1LTEtLjE2NC0yLjU3LS4zNTdzLTIuNTQ2LS4zNjctMi45MzMtLjUyYy0uODM2LS4zMzMtMS4yNTQtLjkzLTEuMjU0LTEuNzk0YTIuMDIgMi4wMiAwIDAgMSAxLjEyLTEuODg5Yy4zNy0uMTcuODMtLjMwMyAxLjM4NC0uMzk4czEuMTk1LS4xNDIgMS45MjQtLjE0MmMyLjkxNiAwIDQuMzc0LjkxNSA0LjM3NCAyLjc0NWgtMS4zNGMwLTEuMjg2LTEuMDI1LTEuOTMtMy4wNzUtMS45My0xLjA0MyAwLTEuODIuMTMtMi4zMzMuNHMtLjc3LjY2LS43NyAxLjJjMCAuNTA0LjM0Ni44NjggMS4wMzggMS4wOTMuNDA1LjExNyAxLjMzNS4yNTIgMi43OTIuNDA1IDEuMzA0LjExNyAyLjE5OC4yODMgMi42ODQuNS45MjYuMzYgMS40Ljk3IDEuNCAxLjgzNHptNS41MzYgMi4zbC0uNTczLjA4LS4zNTguMDI3Yy0uOTE4IDAtMS41OC0uMTMzLTEuOTg1LS40cy0uNi0uNzMyLS42LTEuNHYtNS43M2gtMS42N3YtLjg0M2gxLjY2bC4wMTMtMi43MDhoMS4yODV2Mi43MDhoMi4yMzh2Ljg1N2wtMi4yMzgtLjAxNHY1LjU3N2MwIC40MTUuMS43MDIuMzMuODZzLjYxNC4yMzcgMS4xOC4yMzdjLjA4LjAxLjE3LjAwNi4yNy0uMDFzLjI0Ny0uMDUuNDQ1LS4xMDJsLjAxNC44NnptOC44ODctMS45MTJhMy44MSAzLjgxIDAgMCAxLTEuMi42NjFjLS40NS4xNTMtLjk2Ni4yMy0xLjU1LjIzLTIuNjg4IDAtNC4wMy0xLjEtNC4wMy0zLjMzIDAtMS4wMzMuMzQ0LTEuODQyIDEuMDMtMi40MjZzMS42NTYtLjg3NiAyLjkwNS0uODc2YzEuMjU4IDAgMi4yMTMuMjk0IDIuODY1Ljg4M3MuOTc4IDEuMzc3Ljk3OCAyLjM2NmMwIDEuMDc4LS4zMzMgMS45LS45OTggMi40OTRtMi4yODMtNi4zNmgtMS4yODVsLS4wMTQgMS40MTdjLS41NjYtLjU3NS0uOTctLjk0LTEuMjE0LTEuMDkyLS43Mi0uMzk1LTEuNjUtLjU5My0yLjc5Mi0uNTkzLTEuNjczIDAtMi45NS4zODItMy44MyAxLjE0Ni0uODM2LjctMS4yNTQgMS43MTctMS4yNTQgMy4wNDcgMCAuNjU2LjEwNiAxLjI0My4zMTcgMS43NnMuNTIuOTU1LjkyNSAxLjMxNGMuODgzLjczNyAyLjEzIDEuMTA2IDMuNzQyIDEuMTA2IDEuOTM2IDAgMy4zLS41MyA0LjEyLTEuNnYxLjQ2N2MwIC45MzUtLjI5NSAxLjY2LS44ODQgMi4xNzJzLTEuNTU4Ljc3LTIuOTA3Ljc3Yy0xLjI2OCAwLTIuMTcyLS4xNzUtMi43LS41MjQtLjQwNS0uMjY4LS42ODQtLjczNC0uODM2LTEuMzk3SDQ1LjVjLjE0NC45MjUuNTM1IDEuNTk1IDEuMTc0IDIuMDA4LjczOC40NzYgMS45ODQuNzE0IDMuNzM4LjcxNCAzLjM1NiAwIDUuMDM0LTEuMjQ3IDUuMDM0LTMuNzQydi03Ljk4M3ptNi45NS44MzVhNi43MiA2LjcyIDAgMCAwLTEuMDc4LS4wOTRjLTIuMTEyIDAtMy4xNjggMS4xNTgtMy4xNjggMy40NzV2NC4wMjhoLTEuMjdsLS4wMTQtOC4yNDMgMS4yODUuMDEzdjEuNDdoLjA2N2MuMjE2LS41OC41NTctMS4wMiAxLjAyNS0xLjMxOC41MTItLjMgMS4yNzYtLjQzNSAyLjI5Mi0uNDM1aC44NjN2MS4xMDN6bTEuMTk2IDIuNzY2Yy4xNjItLjkzNy41MjYtMS42NjIgMS4wOTItMi4xNzYuMzctLjI5Ny43ODctLjUyIDEuMjU0LS42N3MuOTk0LS4yMjMgMS41NzgtLjIyM2MxLjE0MiAwIDIuMDc0LjMxMyAyLjc5OC45NHMxLjA5NSAxLjMzNiAxLjA5NSAyLjEzaC03LjgwN203LjkzMy0yLjU0M2E0LjEyIDQuMTIgMCAwIDAtMS42NzQtMS4wMDFjLS42NjYtLjIxNy0xLjQ0NC0uMzI1LTIuMzM1LS4zMjUtMS42NjUgMC0yLjk1Ni4zODctMy44NzQgMS4xNnMtMS4zNzcgMS44MjctMS4zNzcgMy4xNi40NCAyLjQgMS4zMjIgMy4xNzJjLjk1My44NjQgMi4yOTggMS4yOTYgNC4wMzUgMS4yOTYuNjkyIDAgMS4zMzMtLjA4IDEuOTIyLS4yMzVzMS4xMDQtLjM4IDEuNTQ1LS42NjVjLjc3NC0uNTU2IDEuMjYzLTEuMjQgMS40Ny0yLjA1NmgtMS40Yy0uNDc3IDEuNC0xLjY2MyAyLjExNC0zLjU2IDIuMTE0LTEuMzQgMC0yLjM3LS4zNDQtMy4xLTEuMDM0LS42Mi0uNi0uOTMtMS4zNTYtLjkzLTIuMjk2aDkuMTZjMC0xLjM5OC0uNC0yLjQ5NS0xLjIyOC0zLjN6Ii8+PHBhdGggZmlsbD0iIzM2N2ZhZiIgZD0iTTg2LjMyIDQ2Ljg4OGMwIDIuNDQ3LTEuOTc0IDMuNjctNS45MiAzLjY3LTIuMzY1IDAtNC4wOTItLjQyLTUuMTgtMS4yNjUtLjktLjY5My0xLjMzNS0xLjc1LTEuMzM1LTMuMTdoMS42YzAgMi4yODUgMS42NCAzLjQyNyA0LjkyNSAzLjQyNyAxLjU3NCAwIDIuNzEzLS4yMzQgMy40MTQtLjcuNTk0LS40MTMuOS0xLjA2LjktMS45NCAwLS44NzItLjQwNS0xLjQ4My0xLjIxNS0xLjgzNC0uNDYtLjItMS41OC0uNDI3LTMuMzYtLjcxNS0yLjI0LS4zNDItMy42OTMtLjY4My00LjM1OC0xLjAyNC0uOTYyLS41MDMtMS40NDQtMS4zNTctMS40NDQtMi41NjIgMC0xLjEyMy40LTEuOTYgMS4yMjgtMi41MDguODgtLjYwMiAyLjM5My0uOTAzIDQuNTM0LS45MDMgMy44NyAwIDUuODAzIDEuMjg1IDUuODAzIDMuODU1SDg0LjNjMC0xLjkyNS0xLjQzNy0yLjg4Ny00LjMtMi44ODctMS40NCAwLTIuNDk0LjE5NC0zLjE2LjU4LS42My40MTQtLjk0NSAxLjAyLS45NDUgMS44MjIgMCAuODM3LjQwNSAxLjQyNiAxLjIxNSAxLjc2OC40My4xOTggMS43LjQ3MiAzLjgwNi44MjQgMS45OC4yOTcgMy4zMTUuNjQzIDQgMS4wNC45NDUuNDg2IDEuNDE3IDEuMzI3IDEuNDE3IDIuNTI0em0xMi45MDggMS4yNWE2LjIgNi4yIDAgMCAxLTIuMDEyIDEuMDcxYy0uNzQ4LjIzOC0xLjU4NS4zNTctMi41MTIuMzU3LTEuOSAwLTMuNDItLjUtNC41ODYtMS41M3MtMS43NS0yLjM3Ny0xLjc1LTQuMDc0YzAtMS43Ny41NzgtMy4xNDcgMS43MzUtNC4xMzVzMi43LTEuNDgyIDQuNi0xLjQ4MmMxLjkzNiAwIDMuNDU4LjUxNiA0LjU2NSAxLjU1LjU4NS41MDMgMS4wMTcgMS4xIDEuMjk3IDEuNzY1cy40MiAxLjQ0LjQyIDIuMzAzYzAgMS43Ni0uNTg2IDMuMTUyLTEuNzU2IDQuMTc2bS44NDUuODMzYy44MjgtLjU4NCAxLjQ0LTEuMyAxLjgzNy0yLjEyM3MuNTk1LTEuOC41OTUtMi44NzhjMC0xLjk1LS42NDgtMy41MTQtMS45NDQtNC43LS42OTMtLjY0Ny0xLjUzLTEuMTI4LTIuNS0xLjQ0MnMtMi4xLS40NzItMy4zNi0uNDcyYy0yLjQ0NyAwLTQuMzY4LjU5My01Ljc2MyAxLjc4cy0yLjA5MiAyLjc5NS0yLjA5MiA0LjgyNmMwIDEuOTc3LjcwMyAzLjU3MiAyLjEgNC43ODVzMy4zMyAxLjgyIDUuNzY4IDEuODJjLjk1MyAwIDEuNzg1LS4wNjUgMi40OTYtLjE5M3MxLjMxMy0uMzI3IDEuODA4LS41OTRsMi4zNDggMS42MjcuOTgtLjktMi4yNzMtMS41NDJ6bTE0LjMzIDEuMjgzaC0xMC44NThWMzcuNjhsMS40OTMtLjAyN3YxMS41NWg5LjM4bC0uMDE0IDEuMDV6Ii8+PHBhdGggc3Ryb2tlLXdpZHRoPSIyLjU5OCIgc3Ryb2tlPSIjMjMxZjIwIiBmaWxsPSIjMjMxZjIwIiBkPSJNNjcuNDE1IDI3LjU1NmMuMTk3LTEuNjQuMTM4LTEuODggMS4zNi0xLjYxNGwuMy4wMjdjLjk0LjA0MyAyLjE2Ny0uMTUgMi44OS0uNDg2IDEuNTUzLS43MiAyLjQ3NC0xLjkyNC45NDMtMS42MDgtMy40OTQuNzItMy43MzQtLjQ2Mi0zLjczNC0uNDYyIDMuNjktNS40NzQgNS4yMy0xMi40MjMgMy45LTE0LjEyMy0zLjYzLTQuNjQtOS45MTYtMi40NDUtMTAuMDItMi4zODhsLS4wMzMuMDA2Yy0uNjktLjE0My0xLjQ2My0uMjMtMi4zMy0uMjQzLTEuNTgtLjAyNi0yLjc4LjQxNC0zLjcgMS4xMDUgMCAwLTExLjIxMi00LjYyLTEwLjcgNS44MS4xMSAyLjIxOCAzLjE4IDE2Ljc4NiA2Ljg0IDEyLjM4NiAxLjMzOC0xLjYxIDIuNjMtMi45NyAyLjYzLTIuOTcuNjQyLjQyNyAxLjQuNjQ0IDIuMjE3LjU2NmwuMDYyLS4wNTNhMi40MyAyLjQzIDAgMCAwIC4wMjUuNjI2Yy0uOTQzIDEuMDUzLS42NjYgMS4yNC0yLjU1IDEuNjI3LTEuOTA3LjM5My0uNzg3IDEuMDkzLS4wNTUgMS4yNzYuODg3LjIyMiAyLjk0LjUzNiA0LjMyNS0xLjQwNWwtLjA1NS4yMjJjLjM3LjI5Ni4zNDUgMi4xMjcuMzk3IDMuNDM1cy4xNCAyLjUzLjQwNyAzLjI1LjU4IDIuNTc0IDMuMDYgMi4wNDNjMi4wNy0uNDQ0IDMuNjU0LTEuMDgyIDMuNzk4LTcuMDIzIi8+PHBhdGggZmlsbD0iIzQxN2JhMiIgZD0iTTcyLjkxNiAyMy44NzVjLTMuNDk0LjcyLTMuNzM0LS40NjItMy43MzQtLjQ2MiAzLjY5LTUuNDc0IDUuMjMtMTIuNDIzIDMuOS0xNC4xMjQtMy42My00LjY0LTkuOTE2LTIuNDQ1LTEwLjAyLTIuMzg4bC0uMDM0LjAwNmMtLjY5LS4xNDMtMS40NjMtLjIzLTIuMzMtLjI0My0xLjU4LS4wMjYtMi43OC40MTQtMy43IDEuMTA1IDAgMC0xMS4yMTItNC42Mi0xMC43IDUuODEuMTEgMi4yMiAzLjE4IDE2Ljc4NiA2Ljg0IDEyLjM4NiAxLjMzOC0xLjYxIDIuNjMtMi45NyAyLjYzLTIuOTcuNjQyLjQyNyAxLjQxLjY0NCAyLjIxNi41NjZsLjA2My0uMDUzYy0uMDIuMi0uMDEuMzk1LjAyNS42MjYtLjk0MyAxLjA1My0uNjY2IDEuMjQtMi41NSAxLjYyNy0xLjkwNy4zOTMtLjc4NyAxLjA5My0uMDU1IDEuMjc2Ljg4Ny4yMjIgMi45NC41MzYgNC4zMjUtMS40MDVsLS4wNTUuMjIyYy4zNy4yOTYuNjMgMS45MjUuNTg1IDMuNHMtLjA3MiAyLjQ5LjIyIDMuMjgyLjU4IDIuNTc0IDMuMDYgMi4wNDNjMi4wNy0uNDQ0IDMuMTQ0LTEuNTk0IDMuMjkzLTMuNTEyLjEwNi0xLjM2NC4zNDYtMS4xNjIuMzYtMi4zOGwuMTkyLS41NzdjLjIyMi0xLjg1LjAzNS0yLjQ0NSAxLjMxLTIuMTY3bC4zLjAyN2MuOTQuMDQzIDIuMTY4LS4xNSAyLjg5LS40ODYgMS41NTMtLjcyIDIuNDc0LTEuOTI0Ljk0My0xLjYwOHoiLz48ZyBjbGFzcz0iQyBCIiBmaWxsPSJub25lIj48ZyBjbGFzcz0iRCI+PHBhdGggY2xhc3M9IkUiIGQ9Ik01OS45NiAyNC45MzVjLS4wOTYgMy40NC4wMjQgNi45MDMuMzYgNy43NDVzMS4wNTcgMi40OCAzLjUzNiAxLjk0OGMyLjA3LS40NDQgMi44MjQtMS4zMDMgMy4xNS0zLjJsLjc2NS02LjA2M001NyA3LjY5MnMtMTEuMjItNC41ODYtMTAuNyA1Ljg0MmMuMSAyLjIyIDMuMTggMTYuNzg3IDYuODQgMTIuMzg3IDEuMzM4LTEuNiAyLjU0Ny0yLjg3IDIuNTQ3LTIuODdNNjMuMDUgNi44NTVjLS40LjEyMiA2LjI0LTIuNDIzIDEwLjAwOCAyLjQgMS4zMyAxLjctLjIgOC42NS0zLjkgMTQuMTI0Ii8+PHBhdGggc3Ryb2tlLWxpbmVqb2luPSJiZXZlbCIgZD0iTTY5LjE1NyAyMy4zN3MuMjQgMS4xODMgMy43MzUuNDYyYzEuNTMtLjMxNi42Ljg4Ny0uOTQzIDEuNjA4LTEuMjc0LjU5LTQuMTMuNzQzLTQuMTc4LS4wNzQtLjEyLTIuMTEgMS41MDQtMS40NjggMS4zODYtMS45OTYtLjEwNi0uNDc2LS44MzItLjk0My0xLjMxMi0yLjEwNy0uNDItMS4wMTctNS43NS04LjgxMiAxLjQ4LTcuNjU0LjI2NS0uMDU1LTEuODg2LTYuODc3LTguNjUyLTYuOTg4cy02LjU0MiA4LjMyLTYuNTQyIDguMzIiLz48L2c+PGcgY2xhc3M9IkUiPjxwYXRoIGQ9Ik01OC4wNjYgMjQuMDljLS45NDMgMS4wNTMtLjY2NiAxLjI0LTIuNTUgMS42MjctMS45MDcuMzkzLS43ODcgMS4wOTMtLjA1NSAxLjI3Ni44ODcuMjIyIDIuOTQuNTM2IDQuMzI1LTEuNDA1LjQyMi0uNTktLjAwMi0xLjUzNC0uNTgyLTEuNzc1LS4yOC0uMTE2LS42NTUtLjI2LTEuMTM2LjI3N3oiLz48cGF0aCBjbGFzcz0iRCIgZD0iTTU4LjAwNCAyNC4wNzJjLS4wOTUtLjYyLjIwNC0xLjM1Ni41MjMtMi4yMi40OC0xLjI5NCAxLjYtMi41ODguNzAzLTYuNjkyLS42Ni0zLjA1OC01LjA5OC0uNjM3LTUuMS0uMjIycy4yIDIuMTAyLS4wNzQgNC4wNjdjLS4zNiAyLjU2NCAxLjYzIDQuNzMzIDMuOTIzIDQuNTEiLz48L2c+PC9nPjxnIGNsYXNzPSJDIiBmaWxsPSIjZmZmIj48cGF0aCBzdHJva2Utd2lkdGg9Ii4yODkiIGQ9Ik01Ni45NDggMTQuODc3Yy0uMDIuMTQyLjI2LjUyLjYyMy41N3MuNjc1LS4yNDUuNjk0LS4zODYtLjI2LS4yOTgtLjYyNC0uMzUtLjY3NS4wMjMtLjY5NC4xNjV6Ii8+PHBhdGggc3Ryb2tlLXdpZHRoPSIuMTQ0IiBkPSJNNjguMDIyIDE0LjU4OGMuMDIuMTQyLS4yNi41Mi0uNjIzLjU3cy0uNjc1LS4yNDUtLjY5NS0uMzg2LjI2LS4yOTguNjI0LS4zNDguNjc1LjAyMy42OTUuMTY1eiIvPjwvZz48cGF0aCBjbGFzcz0iQiBDIEQgRSIgZmlsbD0ibm9uZSIgZD0iTTY5LjMyMyAxMy42MDhjLjA2IDEuMTEtLjI0IDEuODY4LS4yNzcgMy4wNS0uMDU2IDEuNzIuODIgMy42ODctLjUgNS42NTciLz48L3N2Zz4=;fontSize=14;" vertex="1" parent="1">
          <mxGeometry x="735" y="823.75" width="100" height="50" as="geometry" />
        </mxCell>
        <mxCell id="uD4aB0nu4uxJm6UnGofd-46" value="demande" style="strokeWidth=2;html=1;shape=mxgraph.flowchart.database;whiteSpace=wrap;fillColor=#ffe6cc;strokeColor=#d79b00;fontStyle=1;fontFamily=Work Sans;fontSource=https%3A%2F%2Ffonts.googleapis.com%2Fcss%3Ffamily%3DWork%2BSans;fontSize=14;" vertex="1" parent="1">
          <mxGeometry x="940" y="730" width="140" height="150" as="geometry" />
        </mxCell>
        <mxCell id="uD4aB0nu4uxJm6UnGofd-47" value="" style="shape=image;verticalLabelPosition=bottom;labelBackgroundColor=default;verticalAlign=top;aspect=fixed;imageAspect=0;image=data:image/svg+xml,PHN2ZyB4bWxucz0iaHR0cDovL3d3dy53My5vcmcvMjAwMC9zdmciIGhlaWdodD0iNjAiIHdpZHRoPSIxMjAiIHZpZXdCb3g9IjAgMCAxMjAgNjAiPjxzdHlsZT4uQntzdHJva2Utd2lkdGg6Ljg2Nn0uQ3tzdHJva2U6I2ZmZn0uRHtzdHJva2UtbGluZWNhcDpyb3VuZH0uRXtzdHJva2UtbGluZWpvaW46cm91bmR9PC9zdHlsZT48cGF0aCBmaWxsPSIjMjMxZjIwIiBkPSJNMTMuNTYgNDMuOTI3SDguMzR2LTUuMjVoNS41MDRjMi4wMTQgMCAzLjAyMi45IDMuMDIyIDIuNjY2IDAgMS43MjMtMS4xMDIgMi41ODUtMy4zMDUgMi41ODVtMy43NTItNS4zMTJjLS43MTUtLjY0LTEuNzE2LS45Ni0zLjAwMy0uOTZsLTcuNDc2LjA0djEyLjU2SDguMzRsLS4wMTQtNS4zNDdoNS41NjNjMS4zOTUgMCAyLjQ5My0uMzIgMy4yOTQtLjk2czEuMjAyLTEuNTMgMS4yMDItMi42NjYtLjM1OC0yLjAyNi0xLjA3My0yLjY2NnptOS43NDcgOS4wMDRhMi41NiAyLjU2IDAgMCAxLS43MTUgMS4wNjhjLS42NzUuNjYtMS43MDQuOTg3LTMuMS45ODctMS4yNSAwLTIuMi0uMzItMi44OC0uOTZzLTEuMDA1LTEuNDk3LTEuMDA1LTIuNTdjMC0uNTYuMDg4LTEuMDU1LjI2My0xLjQ4OGEyLjkyIDIuOTIgMCAwIDEgLjc2Mi0xLjA5NmMuNjkyLS42MyAxLjY0Ni0uOTQ3IDIuODYtLjk0NyAyLjcgMCA0LjAzMyAxLjE3NyA0LjAzMyAzLjUzIDAgLjU2LS4wNzcgMS4wNS0uMjMgMS40NzRtLjI3My00LjYzM2MtLjkxOC0uODM3LTIuMjc3LTEuMjU2LTQuMDc3LTEuMjU2LTEuNyAwLTMuMDE1LjQyOC0zLjk0MiAxLjI4My0uODM3Ljc3NC0xLjI1NSAxLjgxOC0xLjI1NSAzLjEzMiAwIDEuMzA1LjQzMiAyLjM1OCAxLjI5NiAzLjE2LjQ3Ny40MzIgMS4wMzMuNzQ1IDEuNjY3LjkzOHMxLjM4LjMgMi4yMzQuM2MxLjggMCAzLjE1NC0uNDE0IDQuMS0xLjI0Mi44MzctLjc1NiAxLjI1NS0xLjgwNCAxLjI1NS0zLjE0NSAwLTEuMzUtLjQyMy0yLjQwMy0xLjI3LTMuMTZ6bTExLjQgNC45OTdjMCAxLjctMS41MTUgMi41MzYtNC41NDQgMi41MzYtLjkyNiAwLTEuNzA2LS4wNi0yLjM0LS4xNzZzLTEuMTQ4LS4zMTMtMS41NDQtLjU4NGEyLjMxIDIuMzEgMCAwIDEtLjcyOC0uOGMtLjE4LS4zMjMtLjI5Ny0uNzUtLjM1LTEuMjU1bDEuNC0uMDEzYzAgLjY2NS4yNDcgMS4xNTUuNzQgMS40Ny41My4zNzggMS40NjcuNTY3IDIuODEzLjU2NyAyLjExNyAwIDMuMTc2LS41MyAzLjE3Ni0xLjU5MiAwLS42Mi0uMzU1LTEuMDQ3LTEuMDY1LTEuMjgtLjE0NC0uMDQ1LTEtLjE2NC0yLjU3LS4zNTdzLTIuNTQ2LS4zNjctMi45MzMtLjUyYy0uODM2LS4zMzMtMS4yNTQtLjkzLTEuMjU0LTEuNzk0YTIuMDIgMi4wMiAwIDAgMSAxLjEyLTEuODg5Yy4zNy0uMTcuODMtLjMwMyAxLjM4NC0uMzk4czEuMTk1LS4xNDIgMS45MjQtLjE0MmMyLjkxNiAwIDQuMzc0LjkxNSA0LjM3NCAyLjc0NWgtMS4zNGMwLTEuMjg2LTEuMDI1LTEuOTMtMy4wNzUtMS45My0xLjA0MyAwLTEuODIuMTMtMi4zMzMuNHMtLjc3LjY2LS43NyAxLjJjMCAuNTA0LjM0Ni44NjggMS4wMzggMS4wOTMuNDA1LjExNyAxLjMzNS4yNTIgMi43OTIuNDA1IDEuMzA0LjExNyAyLjE5OC4yODMgMi42ODQuNS45MjYuMzYgMS40Ljk3IDEuNCAxLjgzNHptNS41MzYgMi4zbC0uNTczLjA4LS4zNTguMDI3Yy0uOTE4IDAtMS41OC0uMTMzLTEuOTg1LS40cy0uNi0uNzMyLS42LTEuNHYtNS43M2gtMS42N3YtLjg0M2gxLjY2bC4wMTMtMi43MDhoMS4yODV2Mi43MDhoMi4yMzh2Ljg1N2wtMi4yMzgtLjAxNHY1LjU3N2MwIC40MTUuMS43MDIuMzMuODZzLjYxNC4yMzcgMS4xOC4yMzdjLjA4LjAxLjE3LjAwNi4yNy0uMDFzLjI0Ny0uMDUuNDQ1LS4xMDJsLjAxNC44NnptOC44ODctMS45MTJhMy44MSAzLjgxIDAgMCAxLTEuMi42NjFjLS40NS4xNTMtLjk2Ni4yMy0xLjU1LjIzLTIuNjg4IDAtNC4wMy0xLjEtNC4wMy0zLjMzIDAtMS4wMzMuMzQ0LTEuODQyIDEuMDMtMi40MjZzMS42NTYtLjg3NiAyLjkwNS0uODc2YzEuMjU4IDAgMi4yMTMuMjk0IDIuODY1Ljg4M3MuOTc4IDEuMzc3Ljk3OCAyLjM2NmMwIDEuMDc4LS4zMzMgMS45LS45OTggMi40OTRtMi4yODMtNi4zNmgtMS4yODVsLS4wMTQgMS40MTdjLS41NjYtLjU3NS0uOTctLjk0LTEuMjE0LTEuMDkyLS43Mi0uMzk1LTEuNjUtLjU5My0yLjc5Mi0uNTkzLTEuNjczIDAtMi45NS4zODItMy44MyAxLjE0Ni0uODM2LjctMS4yNTQgMS43MTctMS4yNTQgMy4wNDcgMCAuNjU2LjEwNiAxLjI0My4zMTcgMS43NnMuNTIuOTU1LjkyNSAxLjMxNGMuODgzLjczNyAyLjEzIDEuMTA2IDMuNzQyIDEuMTA2IDEuOTM2IDAgMy4zLS41MyA0LjEyLTEuNnYxLjQ2N2MwIC45MzUtLjI5NSAxLjY2LS44ODQgMi4xNzJzLTEuNTU4Ljc3LTIuOTA3Ljc3Yy0xLjI2OCAwLTIuMTcyLS4xNzUtMi43LS41MjQtLjQwNS0uMjY4LS42ODQtLjczNC0uODM2LTEuMzk3SDQ1LjVjLjE0NC45MjUuNTM1IDEuNTk1IDEuMTc0IDIuMDA4LjczOC40NzYgMS45ODQuNzE0IDMuNzM4LjcxNCAzLjM1NiAwIDUuMDM0LTEuMjQ3IDUuMDM0LTMuNzQydi03Ljk4M3ptNi45NS44MzVhNi43MiA2LjcyIDAgMCAwLTEuMDc4LS4wOTRjLTIuMTEyIDAtMy4xNjggMS4xNTgtMy4xNjggMy40NzV2NC4wMjhoLTEuMjdsLS4wMTQtOC4yNDMgMS4yODUuMDEzdjEuNDdoLjA2N2MuMjE2LS41OC41NTctMS4wMiAxLjAyNS0xLjMxOC41MTItLjMgMS4yNzYtLjQzNSAyLjI5Mi0uNDM1aC44NjN2MS4xMDN6bTEuMTk2IDIuNzY2Yy4xNjItLjkzNy41MjYtMS42NjIgMS4wOTItMi4xNzYuMzctLjI5Ny43ODctLjUyIDEuMjU0LS42N3MuOTk0LS4yMjMgMS41NzgtLjIyM2MxLjE0MiAwIDIuMDc0LjMxMyAyLjc5OC45NHMxLjA5NSAxLjMzNiAxLjA5NSAyLjEzaC03LjgwN203LjkzMy0yLjU0M2E0LjEyIDQuMTIgMCAwIDAtMS42NzQtMS4wMDFjLS42NjYtLjIxNy0xLjQ0NC0uMzI1LTIuMzM1LS4zMjUtMS42NjUgMC0yLjk1Ni4zODctMy44NzQgMS4xNnMtMS4zNzcgMS44MjctMS4zNzcgMy4xNi40NCAyLjQgMS4zMjIgMy4xNzJjLjk1My44NjQgMi4yOTggMS4yOTYgNC4wMzUgMS4yOTYuNjkyIDAgMS4zMzMtLjA4IDEuOTIyLS4yMzVzMS4xMDQtLjM4IDEuNTQ1LS42NjVjLjc3NC0uNTU2IDEuMjYzLTEuMjQgMS40Ny0yLjA1NmgtMS40Yy0uNDc3IDEuNC0xLjY2MyAyLjExNC0zLjU2IDIuMTE0LTEuMzQgMC0yLjM3LS4zNDQtMy4xLTEuMDM0LS42Mi0uNi0uOTMtMS4zNTYtLjkzLTIuMjk2aDkuMTZjMC0xLjM5OC0uNC0yLjQ5NS0xLjIyOC0zLjN6Ii8+PHBhdGggZmlsbD0iIzM2N2ZhZiIgZD0iTTg2LjMyIDQ2Ljg4OGMwIDIuNDQ3LTEuOTc0IDMuNjctNS45MiAzLjY3LTIuMzY1IDAtNC4wOTItLjQyLTUuMTgtMS4yNjUtLjktLjY5My0xLjMzNS0xLjc1LTEuMzM1LTMuMTdoMS42YzAgMi4yODUgMS42NCAzLjQyNyA0LjkyNSAzLjQyNyAxLjU3NCAwIDIuNzEzLS4yMzQgMy40MTQtLjcuNTk0LS40MTMuOS0xLjA2LjktMS45NCAwLS44NzItLjQwNS0xLjQ4My0xLjIxNS0xLjgzNC0uNDYtLjItMS41OC0uNDI3LTMuMzYtLjcxNS0yLjI0LS4zNDItMy42OTMtLjY4My00LjM1OC0xLjAyNC0uOTYyLS41MDMtMS40NDQtMS4zNTctMS40NDQtMi41NjIgMC0xLjEyMy40LTEuOTYgMS4yMjgtMi41MDguODgtLjYwMiAyLjM5My0uOTAzIDQuNTM0LS45MDMgMy44NyAwIDUuODAzIDEuMjg1IDUuODAzIDMuODU1SDg0LjNjMC0xLjkyNS0xLjQzNy0yLjg4Ny00LjMtMi44ODctMS40NCAwLTIuNDk0LjE5NC0zLjE2LjU4LS42My40MTQtLjk0NSAxLjAyLS45NDUgMS44MjIgMCAuODM3LjQwNSAxLjQyNiAxLjIxNSAxLjc2OC40My4xOTggMS43LjQ3MiAzLjgwNi44MjQgMS45OC4yOTcgMy4zMTUuNjQzIDQgMS4wNC45NDUuNDg2IDEuNDE3IDEuMzI3IDEuNDE3IDIuNTI0em0xMi45MDggMS4yNWE2LjIgNi4yIDAgMCAxLTIuMDEyIDEuMDcxYy0uNzQ4LjIzOC0xLjU4NS4zNTctMi41MTIuMzU3LTEuOSAwLTMuNDItLjUtNC41ODYtMS41M3MtMS43NS0yLjM3Ny0xLjc1LTQuMDc0YzAtMS43Ny41NzgtMy4xNDcgMS43MzUtNC4xMzVzMi43LTEuNDgyIDQuNi0xLjQ4MmMxLjkzNiAwIDMuNDU4LjUxNiA0LjU2NSAxLjU1LjU4NS41MDMgMS4wMTcgMS4xIDEuMjk3IDEuNzY1cy40MiAxLjQ0LjQyIDIuMzAzYzAgMS43Ni0uNTg2IDMuMTUyLTEuNzU2IDQuMTc2bS44NDUuODMzYy44MjgtLjU4NCAxLjQ0LTEuMyAxLjgzNy0yLjEyM3MuNTk1LTEuOC41OTUtMi44NzhjMC0xLjk1LS42NDgtMy41MTQtMS45NDQtNC43LS42OTMtLjY0Ny0xLjUzLTEuMTI4LTIuNS0xLjQ0MnMtMi4xLS40NzItMy4zNi0uNDcyYy0yLjQ0NyAwLTQuMzY4LjU5My01Ljc2MyAxLjc4cy0yLjA5MiAyLjc5NS0yLjA5MiA0LjgyNmMwIDEuOTc3LjcwMyAzLjU3MiAyLjEgNC43ODVzMy4zMyAxLjgyIDUuNzY4IDEuODJjLjk1MyAwIDEuNzg1LS4wNjUgMi40OTYtLjE5M3MxLjMxMy0uMzI3IDEuODA4LS41OTRsMi4zNDggMS42MjcuOTgtLjktMi4yNzMtMS41NDJ6bTE0LjMzIDEuMjgzaC0xMC44NThWMzcuNjhsMS40OTMtLjAyN3YxMS41NWg5LjM4bC0uMDE0IDEuMDV6Ii8+PHBhdGggc3Ryb2tlLXdpZHRoPSIyLjU5OCIgc3Ryb2tlPSIjMjMxZjIwIiBmaWxsPSIjMjMxZjIwIiBkPSJNNjcuNDE1IDI3LjU1NmMuMTk3LTEuNjQuMTM4LTEuODggMS4zNi0xLjYxNGwuMy4wMjdjLjk0LjA0MyAyLjE2Ny0uMTUgMi44OS0uNDg2IDEuNTUzLS43MiAyLjQ3NC0xLjkyNC45NDMtMS42MDgtMy40OTQuNzItMy43MzQtLjQ2Mi0zLjczNC0uNDYyIDMuNjktNS40NzQgNS4yMy0xMi40MjMgMy45LTE0LjEyMy0zLjYzLTQuNjQtOS45MTYtMi40NDUtMTAuMDItMi4zODhsLS4wMzMuMDA2Yy0uNjktLjE0My0xLjQ2My0uMjMtMi4zMy0uMjQzLTEuNTgtLjAyNi0yLjc4LjQxNC0zLjcgMS4xMDUgMCAwLTExLjIxMi00LjYyLTEwLjcgNS44MS4xMSAyLjIxOCAzLjE4IDE2Ljc4NiA2Ljg0IDEyLjM4NiAxLjMzOC0xLjYxIDIuNjMtMi45NyAyLjYzLTIuOTcuNjQyLjQyNyAxLjQuNjQ0IDIuMjE3LjU2NmwuMDYyLS4wNTNhMi40MyAyLjQzIDAgMCAwIC4wMjUuNjI2Yy0uOTQzIDEuMDUzLS42NjYgMS4yNC0yLjU1IDEuNjI3LTEuOTA3LjM5My0uNzg3IDEuMDkzLS4wNTUgMS4yNzYuODg3LjIyMiAyLjk0LjUzNiA0LjMyNS0xLjQwNWwtLjA1NS4yMjJjLjM3LjI5Ni4zNDUgMi4xMjcuMzk3IDMuNDM1cy4xNCAyLjUzLjQwNyAzLjI1LjU4IDIuNTc0IDMuMDYgMi4wNDNjMi4wNy0uNDQ0IDMuNjU0LTEuMDgyIDMuNzk4LTcuMDIzIi8+PHBhdGggZmlsbD0iIzQxN2JhMiIgZD0iTTcyLjkxNiAyMy44NzVjLTMuNDk0LjcyLTMuNzM0LS40NjItMy43MzQtLjQ2MiAzLjY5LTUuNDc0IDUuMjMtMTIuNDIzIDMuOS0xNC4xMjQtMy42My00LjY0LTkuOTE2LTIuNDQ1LTEwLjAyLTIuMzg4bC0uMDM0LjAwNmMtLjY5LS4xNDMtMS40NjMtLjIzLTIuMzMtLjI0My0xLjU4LS4wMjYtMi43OC40MTQtMy43IDEuMTA1IDAgMC0xMS4yMTItNC42Mi0xMC43IDUuODEuMTEgMi4yMiAzLjE4IDE2Ljc4NiA2Ljg0IDEyLjM4NiAxLjMzOC0xLjYxIDIuNjMtMi45NyAyLjYzLTIuOTcuNjQyLjQyNyAxLjQxLjY0NCAyLjIxNi41NjZsLjA2My0uMDUzYy0uMDIuMi0uMDEuMzk1LjAyNS42MjYtLjk0MyAxLjA1My0uNjY2IDEuMjQtMi41NSAxLjYyNy0xLjkwNy4zOTMtLjc4NyAxLjA5My0uMDU1IDEuMjc2Ljg4Ny4yMjIgMi45NC41MzYgNC4zMjUtMS40MDVsLS4wNTUuMjIyYy4zNy4yOTYuNjMgMS45MjUuNTg1IDMuNHMtLjA3MiAyLjQ5LjIyIDMuMjgyLjU4IDIuNTc0IDMuMDYgMi4wNDNjMi4wNy0uNDQ0IDMuMTQ0LTEuNTk0IDMuMjkzLTMuNTEyLjEwNi0xLjM2NC4zNDYtMS4xNjIuMzYtMi4zOGwuMTkyLS41NzdjLjIyMi0xLjg1LjAzNS0yLjQ0NSAxLjMxLTIuMTY3bC4zLjAyN2MuOTQuMDQzIDIuMTY4LS4xNSAyLjg5LS40ODYgMS41NTMtLjcyIDIuNDc0LTEuOTI0Ljk0My0xLjYwOHoiLz48ZyBjbGFzcz0iQyBCIiBmaWxsPSJub25lIj48ZyBjbGFzcz0iRCI+PHBhdGggY2xhc3M9IkUiIGQ9Ik01OS45NiAyNC45MzVjLS4wOTYgMy40NC4wMjQgNi45MDMuMzYgNy43NDVzMS4wNTcgMi40OCAzLjUzNiAxLjk0OGMyLjA3LS40NDQgMi44MjQtMS4zMDMgMy4xNS0zLjJsLjc2NS02LjA2M001NyA3LjY5MnMtMTEuMjItNC41ODYtMTAuNyA1Ljg0MmMuMSAyLjIyIDMuMTggMTYuNzg3IDYuODQgMTIuMzg3IDEuMzM4LTEuNiAyLjU0Ny0yLjg3IDIuNTQ3LTIuODdNNjMuMDUgNi44NTVjLS40LjEyMiA2LjI0LTIuNDIzIDEwLjAwOCAyLjQgMS4zMyAxLjctLjIgOC42NS0zLjkgMTQuMTI0Ii8+PHBhdGggc3Ryb2tlLWxpbmVqb2luPSJiZXZlbCIgZD0iTTY5LjE1NyAyMy4zN3MuMjQgMS4xODMgMy43MzUuNDYyYzEuNTMtLjMxNi42Ljg4Ny0uOTQzIDEuNjA4LTEuMjc0LjU5LTQuMTMuNzQzLTQuMTc4LS4wNzQtLjEyLTIuMTEgMS41MDQtMS40NjggMS4zODYtMS45OTYtLjEwNi0uNDc2LS44MzItLjk0My0xLjMxMi0yLjEwNy0uNDItMS4wMTctNS43NS04LjgxMiAxLjQ4LTcuNjU0LjI2NS0uMDU1LTEuODg2LTYuODc3LTguNjUyLTYuOTg4cy02LjU0MiA4LjMyLTYuNTQyIDguMzIiLz48L2c+PGcgY2xhc3M9IkUiPjxwYXRoIGQ9Ik01OC4wNjYgMjQuMDljLS45NDMgMS4wNTMtLjY2NiAxLjI0LTIuNTUgMS42MjctMS45MDcuMzkzLS43ODcgMS4wOTMtLjA1NSAxLjI3Ni44ODcuMjIyIDIuOTQuNTM2IDQuMzI1LTEuNDA1LjQyMi0uNTktLjAwMi0xLjUzNC0uNTgyLTEuNzc1LS4yOC0uMTE2LS42NTUtLjI2LTEuMTM2LjI3N3oiLz48cGF0aCBjbGFzcz0iRCIgZD0iTTU4LjAwNCAyNC4wNzJjLS4wOTUtLjYyLjIwNC0xLjM1Ni41MjMtMi4yMi40OC0xLjI5NCAxLjYtMi41ODguNzAzLTYuNjkyLS42Ni0zLjA1OC01LjA5OC0uNjM3LTUuMS0uMjIycy4yIDIuMTAyLS4wNzQgNC4wNjdjLS4zNiAyLjU2NCAxLjYzIDQuNzMzIDMuOTIzIDQuNTEiLz48L2c+PC9nPjxnIGNsYXNzPSJDIiBmaWxsPSIjZmZmIj48cGF0aCBzdHJva2Utd2lkdGg9Ii4yODkiIGQ9Ik01Ni45NDggMTQuODc3Yy0uMDIuMTQyLjI2LjUyLjYyMy41N3MuNjc1LS4yNDUuNjk0LS4zODYtLjI2LS4yOTgtLjYyNC0uMzUtLjY3NS4wMjMtLjY5NC4xNjV6Ii8+PHBhdGggc3Ryb2tlLXdpZHRoPSIuMTQ0IiBkPSJNNjguMDIyIDE0LjU4OGMuMDIuMTQyLS4yNi41Mi0uNjIzLjU3cy0uNjc1LS4yNDUtLjY5NS0uMzg2LjI2LS4yOTguNjI0LS4zNDguNjc1LjAyMy42OTUuMTY1eiIvPjwvZz48cGF0aCBjbGFzcz0iQiBDIEQgRSIgZmlsbD0ibm9uZSIgZD0iTTY5LjMyMyAxMy42MDhjLjA2IDEuMTEtLjI0IDEuODY4LS4yNzcgMy4wNS0uMDU2IDEuNzIuODIgMy42ODctLjUgNS42NTciLz48L3N2Zz4=;fontSize=14;" vertex="1" parent="1">
          <mxGeometry x="955" y="823.75" width="100" height="50" as="geometry" />
        </mxCell>
        <mxCell id="uD4aB0nu4uxJm6UnGofd-50" value="declaration" style="strokeWidth=2;html=1;shape=mxgraph.flowchart.database;whiteSpace=wrap;fillColor=#ffe6cc;strokeColor=#d79b00;fontStyle=1;fontFamily=Work Sans;fontSource=https%3A%2F%2Ffonts.googleapis.com%2Fcss%3Ffamily%3DWork%2BSans;fontSize=14;" vertex="1" parent="1">
          <mxGeometry x="1260" y="260" width="140" height="150" as="geometry" />
        </mxCell>
        <mxCell id="uD4aB0nu4uxJm6UnGofd-53" value="" style="edgeStyle=orthogonalEdgeStyle;rounded=0;orthogonalLoop=1;jettySize=auto;html=1;entryX=0.5;entryY=0;entryDx=0;entryDy=0;exitX=0;exitY=0.5;exitDx=0;exitDy=0;exitPerimeter=0;" edge="1" parent="1" source="uD4aB0nu4uxJm6UnGofd-50" target="uD4aB0nu4uxJm6UnGofd-32">
          <mxGeometry relative="1" as="geometry">
            <mxPoint x="1225" y="378.75" as="targetPoint" />
          </mxGeometry>
        </mxCell>
        <mxCell id="uD4aB0nu4uxJm6UnGofd-51" value="" style="shape=image;verticalLabelPosition=bottom;labelBackgroundColor=default;verticalAlign=top;aspect=fixed;imageAspect=0;image=data:image/svg+xml,PHN2ZyB4bWxucz0iaHR0cDovL3d3dy53My5vcmcvMjAwMC9zdmciIGhlaWdodD0iNjAiIHdpZHRoPSIxMjAiIHZpZXdCb3g9IjAgMCAxMjAgNjAiPjxzdHlsZT4uQntzdHJva2Utd2lkdGg6Ljg2Nn0uQ3tzdHJva2U6I2ZmZn0uRHtzdHJva2UtbGluZWNhcDpyb3VuZH0uRXtzdHJva2UtbGluZWpvaW46cm91bmR9PC9zdHlsZT48cGF0aCBmaWxsPSIjMjMxZjIwIiBkPSJNMTMuNTYgNDMuOTI3SDguMzR2LTUuMjVoNS41MDRjMi4wMTQgMCAzLjAyMi45IDMuMDIyIDIuNjY2IDAgMS43MjMtMS4xMDIgMi41ODUtMy4zMDUgMi41ODVtMy43NTItNS4zMTJjLS43MTUtLjY0LTEuNzE2LS45Ni0zLjAwMy0uOTZsLTcuNDc2LjA0djEyLjU2SDguMzRsLS4wMTQtNS4zNDdoNS41NjNjMS4zOTUgMCAyLjQ5My0uMzIgMy4yOTQtLjk2czEuMjAyLTEuNTMgMS4yMDItMi42NjYtLjM1OC0yLjAyNi0xLjA3My0yLjY2NnptOS43NDcgOS4wMDRhMi41NiAyLjU2IDAgMCAxLS43MTUgMS4wNjhjLS42NzUuNjYtMS43MDQuOTg3LTMuMS45ODctMS4yNSAwLTIuMi0uMzItMi44OC0uOTZzLTEuMDA1LTEuNDk3LTEuMDA1LTIuNTdjMC0uNTYuMDg4LTEuMDU1LjI2My0xLjQ4OGEyLjkyIDIuOTIgMCAwIDEgLjc2Mi0xLjA5NmMuNjkyLS42MyAxLjY0Ni0uOTQ3IDIuODYtLjk0NyAyLjcgMCA0LjAzMyAxLjE3NyA0LjAzMyAzLjUzIDAgLjU2LS4wNzcgMS4wNS0uMjMgMS40NzRtLjI3My00LjYzM2MtLjkxOC0uODM3LTIuMjc3LTEuMjU2LTQuMDc3LTEuMjU2LTEuNyAwLTMuMDE1LjQyOC0zLjk0MiAxLjI4My0uODM3Ljc3NC0xLjI1NSAxLjgxOC0xLjI1NSAzLjEzMiAwIDEuMzA1LjQzMiAyLjM1OCAxLjI5NiAzLjE2LjQ3Ny40MzIgMS4wMzMuNzQ1IDEuNjY3LjkzOHMxLjM4LjMgMi4yMzQuM2MxLjggMCAzLjE1NC0uNDE0IDQuMS0xLjI0Mi44MzctLjc1NiAxLjI1NS0xLjgwNCAxLjI1NS0zLjE0NSAwLTEuMzUtLjQyMy0yLjQwMy0xLjI3LTMuMTZ6bTExLjQgNC45OTdjMCAxLjctMS41MTUgMi41MzYtNC41NDQgMi41MzYtLjkyNiAwLTEuNzA2LS4wNi0yLjM0LS4xNzZzLTEuMTQ4LS4zMTMtMS41NDQtLjU4NGEyLjMxIDIuMzEgMCAwIDEtLjcyOC0uOGMtLjE4LS4zMjMtLjI5Ny0uNzUtLjM1LTEuMjU1bDEuNC0uMDEzYzAgLjY2NS4yNDcgMS4xNTUuNzQgMS40Ny41My4zNzggMS40NjcuNTY3IDIuODEzLjU2NyAyLjExNyAwIDMuMTc2LS41MyAzLjE3Ni0xLjU5MiAwLS42Mi0uMzU1LTEuMDQ3LTEuMDY1LTEuMjgtLjE0NC0uMDQ1LTEtLjE2NC0yLjU3LS4zNTdzLTIuNTQ2LS4zNjctMi45MzMtLjUyYy0uODM2LS4zMzMtMS4yNTQtLjkzLTEuMjU0LTEuNzk0YTIuMDIgMi4wMiAwIDAgMSAxLjEyLTEuODg5Yy4zNy0uMTcuODMtLjMwMyAxLjM4NC0uMzk4czEuMTk1LS4xNDIgMS45MjQtLjE0MmMyLjkxNiAwIDQuMzc0LjkxNSA0LjM3NCAyLjc0NWgtMS4zNGMwLTEuMjg2LTEuMDI1LTEuOTMtMy4wNzUtMS45My0xLjA0MyAwLTEuODIuMTMtMi4zMzMuNHMtLjc3LjY2LS43NyAxLjJjMCAuNTA0LjM0Ni44NjggMS4wMzggMS4wOTMuNDA1LjExNyAxLjMzNS4yNTIgMi43OTIuNDA1IDEuMzA0LjExNyAyLjE5OC4yODMgMi42ODQuNS45MjYuMzYgMS40Ljk3IDEuNCAxLjgzNHptNS41MzYgMi4zbC0uNTczLjA4LS4zNTguMDI3Yy0uOTE4IDAtMS41OC0uMTMzLTEuOTg1LS40cy0uNi0uNzMyLS42LTEuNHYtNS43M2gtMS42N3YtLjg0M2gxLjY2bC4wMTMtMi43MDhoMS4yODV2Mi43MDhoMi4yMzh2Ljg1N2wtMi4yMzgtLjAxNHY1LjU3N2MwIC40MTUuMS43MDIuMzMuODZzLjYxNC4yMzcgMS4xOC4yMzdjLjA4LjAxLjE3LjAwNi4yNy0uMDFzLjI0Ny0uMDUuNDQ1LS4xMDJsLjAxNC44NnptOC44ODctMS45MTJhMy44MSAzLjgxIDAgMCAxLTEuMi42NjFjLS40NS4xNTMtLjk2Ni4yMy0xLjU1LjIzLTIuNjg4IDAtNC4wMy0xLjEtNC4wMy0zLjMzIDAtMS4wMzMuMzQ0LTEuODQyIDEuMDMtMi40MjZzMS42NTYtLjg3NiAyLjkwNS0uODc2YzEuMjU4IDAgMi4yMTMuMjk0IDIuODY1Ljg4M3MuOTc4IDEuMzc3Ljk3OCAyLjM2NmMwIDEuMDc4LS4zMzMgMS45LS45OTggMi40OTRtMi4yODMtNi4zNmgtMS4yODVsLS4wMTQgMS40MTdjLS41NjYtLjU3NS0uOTctLjk0LTEuMjE0LTEuMDkyLS43Mi0uMzk1LTEuNjUtLjU5My0yLjc5Mi0uNTkzLTEuNjczIDAtMi45NS4zODItMy44MyAxLjE0Ni0uODM2LjctMS4yNTQgMS43MTctMS4yNTQgMy4wNDcgMCAuNjU2LjEwNiAxLjI0My4zMTcgMS43NnMuNTIuOTU1LjkyNSAxLjMxNGMuODgzLjczNyAyLjEzIDEuMTA2IDMuNzQyIDEuMTA2IDEuOTM2IDAgMy4zLS41MyA0LjEyLTEuNnYxLjQ2N2MwIC45MzUtLjI5NSAxLjY2LS44ODQgMi4xNzJzLTEuNTU4Ljc3LTIuOTA3Ljc3Yy0xLjI2OCAwLTIuMTcyLS4xNzUtMi43LS41MjQtLjQwNS0uMjY4LS42ODQtLjczNC0uODM2LTEuMzk3SDQ1LjVjLjE0NC45MjUuNTM1IDEuNTk1IDEuMTc0IDIuMDA4LjczOC40NzYgMS45ODQuNzE0IDMuNzM4LjcxNCAzLjM1NiAwIDUuMDM0LTEuMjQ3IDUuMDM0LTMuNzQydi03Ljk4M3ptNi45NS44MzVhNi43MiA2LjcyIDAgMCAwLTEuMDc4LS4wOTRjLTIuMTEyIDAtMy4xNjggMS4xNTgtMy4xNjggMy40NzV2NC4wMjhoLTEuMjdsLS4wMTQtOC4yNDMgMS4yODUuMDEzdjEuNDdoLjA2N2MuMjE2LS41OC41NTctMS4wMiAxLjAyNS0xLjMxOC41MTItLjMgMS4yNzYtLjQzNSAyLjI5Mi0uNDM1aC44NjN2MS4xMDN6bTEuMTk2IDIuNzY2Yy4xNjItLjkzNy41MjYtMS42NjIgMS4wOTItMi4xNzYuMzctLjI5Ny43ODctLjUyIDEuMjU0LS42N3MuOTk0LS4yMjMgMS41NzgtLjIyM2MxLjE0MiAwIDIuMDc0LjMxMyAyLjc5OC45NHMxLjA5NSAxLjMzNiAxLjA5NSAyLjEzaC03LjgwN203LjkzMy0yLjU0M2E0LjEyIDQuMTIgMCAwIDAtMS42NzQtMS4wMDFjLS42NjYtLjIxNy0xLjQ0NC0uMzI1LTIuMzM1LS4zMjUtMS42NjUgMC0yLjk1Ni4zODctMy44NzQgMS4xNnMtMS4zNzcgMS44MjctMS4zNzcgMy4xNi40NCAyLjQgMS4zMjIgMy4xNzJjLjk1My44NjQgMi4yOTggMS4yOTYgNC4wMzUgMS4yOTYuNjkyIDAgMS4zMzMtLjA4IDEuOTIyLS4yMzVzMS4xMDQtLjM4IDEuNTQ1LS42NjVjLjc3NC0uNTU2IDEuMjYzLTEuMjQgMS40Ny0yLjA1NmgtMS40Yy0uNDc3IDEuNC0xLjY2MyAyLjExNC0zLjU2IDIuMTE0LTEuMzQgMC0yLjM3LS4zNDQtMy4xLTEuMDM0LS42Mi0uNi0uOTMtMS4zNTYtLjkzLTIuMjk2aDkuMTZjMC0xLjM5OC0uNC0yLjQ5NS0xLjIyOC0zLjN6Ii8+PHBhdGggZmlsbD0iIzM2N2ZhZiIgZD0iTTg2LjMyIDQ2Ljg4OGMwIDIuNDQ3LTEuOTc0IDMuNjctNS45MiAzLjY3LTIuMzY1IDAtNC4wOTItLjQyLTUuMTgtMS4yNjUtLjktLjY5My0xLjMzNS0xLjc1LTEuMzM1LTMuMTdoMS42YzAgMi4yODUgMS42NCAzLjQyNyA0LjkyNSAzLjQyNyAxLjU3NCAwIDIuNzEzLS4yMzQgMy40MTQtLjcuNTk0LS40MTMuOS0xLjA2LjktMS45NCAwLS44NzItLjQwNS0xLjQ4My0xLjIxNS0xLjgzNC0uNDYtLjItMS41OC0uNDI3LTMuMzYtLjcxNS0yLjI0LS4zNDItMy42OTMtLjY4My00LjM1OC0xLjAyNC0uOTYyLS41MDMtMS40NDQtMS4zNTctMS40NDQtMi41NjIgMC0xLjEyMy40LTEuOTYgMS4yMjgtMi41MDguODgtLjYwMiAyLjM5My0uOTAzIDQuNTM0LS45MDMgMy44NyAwIDUuODAzIDEuMjg1IDUuODAzIDMuODU1SDg0LjNjMC0xLjkyNS0xLjQzNy0yLjg4Ny00LjMtMi44ODctMS40NCAwLTIuNDk0LjE5NC0zLjE2LjU4LS42My40MTQtLjk0NSAxLjAyLS45NDUgMS44MjIgMCAuODM3LjQwNSAxLjQyNiAxLjIxNSAxLjc2OC40My4xOTggMS43LjQ3MiAzLjgwNi44MjQgMS45OC4yOTcgMy4zMTUuNjQzIDQgMS4wNC45NDUuNDg2IDEuNDE3IDEuMzI3IDEuNDE3IDIuNTI0em0xMi45MDggMS4yNWE2LjIgNi4yIDAgMCAxLTIuMDEyIDEuMDcxYy0uNzQ4LjIzOC0xLjU4NS4zNTctMi41MTIuMzU3LTEuOSAwLTMuNDItLjUtNC41ODYtMS41M3MtMS43NS0yLjM3Ny0xLjc1LTQuMDc0YzAtMS43Ny41NzgtMy4xNDcgMS43MzUtNC4xMzVzMi43LTEuNDgyIDQuNi0xLjQ4MmMxLjkzNiAwIDMuNDU4LjUxNiA0LjU2NSAxLjU1LjU4NS41MDMgMS4wMTcgMS4xIDEuMjk3IDEuNzY1cy40MiAxLjQ0LjQyIDIuMzAzYzAgMS43Ni0uNTg2IDMuMTUyLTEuNzU2IDQuMTc2bS44NDUuODMzYy44MjgtLjU4NCAxLjQ0LTEuMyAxLjgzNy0yLjEyM3MuNTk1LTEuOC41OTUtMi44NzhjMC0xLjk1LS42NDgtMy41MTQtMS45NDQtNC43LS42OTMtLjY0Ny0xLjUzLTEuMTI4LTIuNS0xLjQ0MnMtMi4xLS40NzItMy4zNi0uNDcyYy0yLjQ0NyAwLTQuMzY4LjU5My01Ljc2MyAxLjc4cy0yLjA5MiAyLjc5NS0yLjA5MiA0LjgyNmMwIDEuOTc3LjcwMyAzLjU3MiAyLjEgNC43ODVzMy4zMyAxLjgyIDUuNzY4IDEuODJjLjk1MyAwIDEuNzg1LS4wNjUgMi40OTYtLjE5M3MxLjMxMy0uMzI3IDEuODA4LS41OTRsMi4zNDggMS42MjcuOTgtLjktMi4yNzMtMS41NDJ6bTE0LjMzIDEuMjgzaC0xMC44NThWMzcuNjhsMS40OTMtLjAyN3YxMS41NWg5LjM4bC0uMDE0IDEuMDV6Ii8+PHBhdGggc3Ryb2tlLXdpZHRoPSIyLjU5OCIgc3Ryb2tlPSIjMjMxZjIwIiBmaWxsPSIjMjMxZjIwIiBkPSJNNjcuNDE1IDI3LjU1NmMuMTk3LTEuNjQuMTM4LTEuODggMS4zNi0xLjYxNGwuMy4wMjdjLjk0LjA0MyAyLjE2Ny0uMTUgMi44OS0uNDg2IDEuNTUzLS43MiAyLjQ3NC0xLjkyNC45NDMtMS42MDgtMy40OTQuNzItMy43MzQtLjQ2Mi0zLjczNC0uNDYyIDMuNjktNS40NzQgNS4yMy0xMi40MjMgMy45LTE0LjEyMy0zLjYzLTQuNjQtOS45MTYtMi40NDUtMTAuMDItMi4zODhsLS4wMzMuMDA2Yy0uNjktLjE0My0xLjQ2My0uMjMtMi4zMy0uMjQzLTEuNTgtLjAyNi0yLjc4LjQxNC0zLjcgMS4xMDUgMCAwLTExLjIxMi00LjYyLTEwLjcgNS44MS4xMSAyLjIxOCAzLjE4IDE2Ljc4NiA2Ljg0IDEyLjM4NiAxLjMzOC0xLjYxIDIuNjMtMi45NyAyLjYzLTIuOTcuNjQyLjQyNyAxLjQuNjQ0IDIuMjE3LjU2NmwuMDYyLS4wNTNhMi40MyAyLjQzIDAgMCAwIC4wMjUuNjI2Yy0uOTQzIDEuMDUzLS42NjYgMS4yNC0yLjU1IDEuNjI3LTEuOTA3LjM5My0uNzg3IDEuMDkzLS4wNTUgMS4yNzYuODg3LjIyMiAyLjk0LjUzNiA0LjMyNS0xLjQwNWwtLjA1NS4yMjJjLjM3LjI5Ni4zNDUgMi4xMjcuMzk3IDMuNDM1cy4xNCAyLjUzLjQwNyAzLjI1LjU4IDIuNTc0IDMuMDYgMi4wNDNjMi4wNy0uNDQ0IDMuNjU0LTEuMDgyIDMuNzk4LTcuMDIzIi8+PHBhdGggZmlsbD0iIzQxN2JhMiIgZD0iTTcyLjkxNiAyMy44NzVjLTMuNDk0LjcyLTMuNzM0LS40NjItMy43MzQtLjQ2MiAzLjY5LTUuNDc0IDUuMjMtMTIuNDIzIDMuOS0xNC4xMjQtMy42My00LjY0LTkuOTE2LTIuNDQ1LTEwLjAyLTIuMzg4bC0uMDM0LjAwNmMtLjY5LS4xNDMtMS40NjMtLjIzLTIuMzMtLjI0My0xLjU4LS4wMjYtMi43OC40MTQtMy43IDEuMTA1IDAgMC0xMS4yMTItNC42Mi0xMC43IDUuODEuMTEgMi4yMiAzLjE4IDE2Ljc4NiA2Ljg0IDEyLjM4NiAxLjMzOC0xLjYxIDIuNjMtMi45NyAyLjYzLTIuOTcuNjQyLjQyNyAxLjQxLjY0NCAyLjIxNi41NjZsLjA2My0uMDUzYy0uMDIuMi0uMDEuMzk1LjAyNS42MjYtLjk0MyAxLjA1My0uNjY2IDEuMjQtMi41NSAxLjYyNy0xLjkwNy4zOTMtLjc4NyAxLjA5My0uMDU1IDEuMjc2Ljg4Ny4yMjIgMi45NC41MzYgNC4zMjUtMS40MDVsLS4wNTUuMjIyYy4zNy4yOTYuNjMgMS45MjUuNTg1IDMuNHMtLjA3MiAyLjQ5LjIyIDMuMjgyLjU4IDIuNTc0IDMuMDYgMi4wNDNjMi4wNy0uNDQ0IDMuMTQ0LTEuNTk0IDMuMjkzLTMuNTEyLjEwNi0xLjM2NC4zNDYtMS4xNjIuMzYtMi4zOGwuMTkyLS41NzdjLjIyMi0xLjg1LjAzNS0yLjQ0NSAxLjMxLTIuMTY3bC4zLjAyN2MuOTQuMDQzIDIuMTY4LS4xNSAyLjg5LS40ODYgMS41NTMtLjcyIDIuNDc0LTEuOTI0Ljk0My0xLjYwOHoiLz48ZyBjbGFzcz0iQyBCIiBmaWxsPSJub25lIj48ZyBjbGFzcz0iRCI+PHBhdGggY2xhc3M9IkUiIGQ9Ik01OS45NiAyNC45MzVjLS4wOTYgMy40NC4wMjQgNi45MDMuMzYgNy43NDVzMS4wNTcgMi40OCAzLjUzNiAxLjk0OGMyLjA3LS40NDQgMi44MjQtMS4zMDMgMy4xNS0zLjJsLjc2NS02LjA2M001NyA3LjY5MnMtMTEuMjItNC41ODYtMTAuNyA1Ljg0MmMuMSAyLjIyIDMuMTggMTYuNzg3IDYuODQgMTIuMzg3IDEuMzM4LTEuNiAyLjU0Ny0yLjg3IDIuNTQ3LTIuODdNNjMuMDUgNi44NTVjLS40LjEyMiA2LjI0LTIuNDIzIDEwLjAwOCAyLjQgMS4zMyAxLjctLjIgOC42NS0zLjkgMTQuMTI0Ii8+PHBhdGggc3Ryb2tlLWxpbmVqb2luPSJiZXZlbCIgZD0iTTY5LjE1NyAyMy4zN3MuMjQgMS4xODMgMy43MzUuNDYyYzEuNTMtLjMxNi42Ljg4Ny0uOTQzIDEuNjA4LTEuMjc0LjU5LTQuMTMuNzQzLTQuMTc4LS4wNzQtLjEyLTIuMTEgMS41MDQtMS40NjggMS4zODYtMS45OTYtLjEwNi0uNDc2LS44MzItLjk0My0xLjMxMi0yLjEwNy0uNDItMS4wMTctNS43NS04LjgxMiAxLjQ4LTcuNjU0LjI2NS0uMDU1LTEuODg2LTYuODc3LTguNjUyLTYuOTg4cy02LjU0MiA4LjMyLTYuNTQyIDguMzIiLz48L2c+PGcgY2xhc3M9IkUiPjxwYXRoIGQ9Ik01OC4wNjYgMjQuMDljLS45NDMgMS4wNTMtLjY2NiAxLjI0LTIuNTUgMS42MjctMS45MDcuMzkzLS43ODcgMS4wOTMtLjA1NSAxLjI3Ni44ODcuMjIyIDIuOTQuNTM2IDQuMzI1LTEuNDA1LjQyMi0uNTktLjAwMi0xLjUzNC0uNTgyLTEuNzc1LS4yOC0uMTE2LS42NTUtLjI2LTEuMTM2LjI3N3oiLz48cGF0aCBjbGFzcz0iRCIgZD0iTTU4LjAwNCAyNC4wNzJjLS4wOTUtLjYyLjIwNC0xLjM1Ni41MjMtMi4yMi40OC0xLjI5NCAxLjYtMi41ODguNzAzLTYuNjkyLS42Ni0zLjA1OC01LjA5OC0uNjM3LTUuMS0uMjIycy4yIDIuMTAyLS4wNzQgNC4wNjdjLS4zNiAyLjU2NCAxLjYzIDQuNzMzIDMuOTIzIDQuNTEiLz48L2c+PC9nPjxnIGNsYXNzPSJDIiBmaWxsPSIjZmZmIj48cGF0aCBzdHJva2Utd2lkdGg9Ii4yODkiIGQ9Ik01Ni45NDggMTQuODc3Yy0uMDIuMTQyLjI2LjUyLjYyMy41N3MuNjc1LS4yNDUuNjk0LS4zODYtLjI2LS4yOTgtLjYyNC0uMzUtLjY3NS4wMjMtLjY5NC4xNjV6Ii8+PHBhdGggc3Ryb2tlLXdpZHRoPSIuMTQ0IiBkPSJNNjguMDIyIDE0LjU4OGMuMDIuMTQyLS4yNi41Mi0uNjIzLjU3cy0uNjc1LS4yNDUtLjY5NS0uMzg2LjI2LS4yOTguNjI0LS4zNDguNjc1LjAyMy42OTUuMTY1eiIvPjwvZz48cGF0aCBjbGFzcz0iQiBDIEQgRSIgZmlsbD0ibm9uZSIgZD0iTTY5LjMyMyAxMy42MDhjLjA2IDEuMTEtLjI0IDEuODY4LS4yNzcgMy4wNS0uMDU2IDEuNzIuODIgMy42ODctLjUgNS42NTciLz48L3N2Zz4=;fontSize=14;" vertex="1" parent="1">
          <mxGeometry x="1275" y="353.75" width="100" height="50" as="geometry" />
        </mxCell>
        <mxCell id="uD4aB0nu4uxJm6UnGofd-54" value="" style="verticalLabelPosition=bottom;verticalAlign=top;html=1;shape=mxgraph.basic.layered_rect;dx=10;outlineConnect=0;whiteSpace=wrap;fillColor=#d5e8d4;strokeColor=#82b366;fontSize=14;" vertex="1" parent="1">
          <mxGeometry x="1131.47" y="310" width="55" height="50" as="geometry" />
        </mxCell>
        <mxCell id="uD4aB0nu4uxJm6UnGofd-55" value="&lt;font style=&quot;font-size: 14px;&quot; face=&quot;Work sans&quot;&gt;&lt;i style=&quot;font-size: 14px;&quot;&gt;&lt;b style=&quot;font-size: 14px;&quot;&gt;Liasse&lt;/b&gt;&lt;/i&gt;&lt;/font&gt;" style="text;html=1;align=center;verticalAlign=middle;resizable=0;points=[];autosize=1;strokeColor=none;fillColor=none;fontSize=14;" vertex="1" parent="1">
          <mxGeometry x="1123.97" y="280" width="70" height="30" as="geometry" />
        </mxCell>
        <mxCell id="uD4aB0nu4uxJm6UnGofd-56" value="&lt;i style=&quot;font-family: &amp;quot;Work sans&amp;quot;; font-size: 14px;&quot;&gt;&lt;b style=&quot;font-size: 14px;&quot;&gt;XML&lt;/b&gt;&lt;/i&gt;" style="text;html=1;align=center;verticalAlign=middle;resizable=0;points=[];autosize=1;strokeColor=none;fillColor=none;fontSize=14;" vertex="1" parent="1">
          <mxGeometry x="1131.47" y="318.12" width="50" height="30" as="geometry" />
        </mxCell>
        <mxCell id="uD4aB0nu4uxJm6UnGofd-57" value="&lt;div&gt;&lt;font face=&quot;Work sans&quot;&gt;&lt;i&gt;Récup&lt;/i&gt;&lt;/font&gt;&lt;/div&gt;&lt;div&gt;&lt;font face=&quot;Work sans&quot;&gt;&lt;i&gt;déclaration XML&lt;br&gt;&lt;/i&gt;&lt;/font&gt;&lt;/div&gt;" style="text;html=1;align=center;verticalAlign=middle;resizable=0;points=[];autosize=1;strokeColor=none;fillColor=none;fontSize=14;" vertex="1" parent="1">
          <mxGeometry x="1001.47" y="410" width="130" height="50" as="geometry" />
        </mxCell>
        <mxCell id="uD4aB0nu4uxJm6UnGofd-62" value="&lt;div&gt;&lt;i&gt;&lt;b&gt;Mapping&lt;/b&gt;&lt;/i&gt;&lt;/div&gt;" style="text;html=1;align=center;verticalAlign=middle;resizable=0;points=[];autosize=1;strokeColor=none;fillColor=none;fontSize=14;" vertex="1" parent="1">
          <mxGeometry x="1032.5" y="680" width="80" height="30" as="geometry" />
        </mxCell>
        <mxCell id="uD4aB0nu4uxJm6UnGofd-63" value="" style="verticalLabelPosition=bottom;verticalAlign=top;html=1;shape=mxgraph.basic.layered_rect;dx=10;outlineConnect=0;whiteSpace=wrap;fillColor=#d5e8d4;strokeColor=#82b366;fontSize=14;" vertex="1" parent="1">
          <mxGeometry x="977.5" y="618.75" width="55" height="50" as="geometry" />
        </mxCell>
        <mxCell id="uD4aB0nu4uxJm6UnGofd-64" value="&lt;font style=&quot;font-size: 14px;&quot; face=&quot;Work sans&quot;&gt;&lt;i style=&quot;font-size: 14px;&quot;&gt;&lt;b style=&quot;font-size: 14px;&quot;&gt;Liasse&lt;/b&gt;&lt;/i&gt;&lt;/font&gt;" style="text;html=1;align=center;verticalAlign=middle;resizable=0;points=[];autosize=1;strokeColor=none;fillColor=none;fontSize=14;" vertex="1" parent="1">
          <mxGeometry x="970" y="588.75" width="70" height="30" as="geometry" />
        </mxCell>
        <mxCell id="uD4aB0nu4uxJm6UnGofd-65" value="&lt;i style=&quot;font-family: &amp;quot;Work sans&amp;quot;; font-size: 14px;&quot;&gt;&lt;b style=&quot;font-size: 14px;&quot;&gt;XML&lt;/b&gt;&lt;/i&gt;" style="text;html=1;align=center;verticalAlign=middle;resizable=0;points=[];autosize=1;strokeColor=none;fillColor=none;fontSize=14;" vertex="1" parent="1">
          <mxGeometry x="977.5" y="626.87" width="50" height="30" as="geometry" />
        </mxCell>
        <mxCell id="uD4aB0nu4uxJm6UnGofd-66" value="Ex: demande.liasse_type = balise &amp;lt;C05&amp;gt;" style="text;html=1;align=center;verticalAlign=middle;resizable=0;points=[];autosize=1;strokeColor=none;fillColor=none;fontSize=14;" vertex="1" parent="1">
          <mxGeometry x="1010" y="700" width="280" height="30" as="geometry" />
        </mxCell>
      </root>
    </mxGraphModel>
  </diagram>
</mxfile>
